<?xml version="1.0" encoding="UTF-8" standalone="no"?>
<svg
   xmlns:dc="http://purl.org/dc/elements/1.1/"
   xmlns:cc="http://creativecommons.org/ns#"
   xmlns:rdf="http://www.w3.org/1999/02/22-rdf-syntax-ns#"
   xmlns:svg="http://www.w3.org/2000/svg"
   xmlns="http://www.w3.org/2000/svg"
   xmlns:sodipodi="http://sodipodi.sourceforge.net/DTD/sodipodi-0.dtd"
   xmlns:inkscape="http://www.inkscape.org/namespaces/inkscape"
   version="1.0"
   width="798.091pt"
   height="902.72314pt"
   viewBox="0 0 798.091 902.72314"
   preserveAspectRatio="xMidYMid meet"
   id="svg16"
   sodipodi:docname="angry.svg"
   inkscape:version="0.92.4 (fd57863, 2020-04-02)">
  <defs
     id="defs20" />
  <sodipodi:namedview
     pagecolor="#ffffff"
     bordercolor="#666666"
     borderopacity="1"
     objecttolerance="10"
     gridtolerance="10"
     guidetolerance="10"
     inkscape:pageopacity="0"
     inkscape:pageshadow="2"
     inkscape:window-width="640"
     inkscape:window-height="480"
     id="namedview18"
     showgrid="false"
     inkscape:zoom="0.069140625"
     inkscape:cx="536.23335"
     inkscape:cy="730.42744"
     inkscape:window-x="0"
     inkscape:window-y="27"
     inkscape:window-maximized="0"
     inkscape:current-layer="svg16" />
  <metadata
     id="metadata2">
Created by potrace 1.15, written by Peter Selinger 2001-2017
<rdf:RDF>
  <cc:Work
     rdf:about="">
    <dc:format>image/svg+xml</dc:format>
    <dc:type
       rdf:resource="http://purl.org/dc/dcmitype/StillImage" />
  </cc:Work>
</rdf:RDF>
</metadata>
  <g
     transform="matrix(0.1,0,0,-0.1,-397.825,1634.9025)"
     id="g14"
     style="fill:#000000;stroke:none">
    <path
       d="m 5824,16340 c -49,-20 -66,-77 -39,-130 13,-25 13,-41 0,-132 -41,-290 -53,-1013 -21,-1258 33,-251 105,-495 227,-765 33,-71 56,-132 51,-136 -4,-4 -112,-37 -241,-74 -238,-68 -531,-164 -586,-193 -42,-21 -54,-41 -55,-85 0,-28 7,-45 26,-63 35,-35 72,-30 264,39 202,72 690,212 700,201 4,-5 50,-77 102,-160 l 95,-151 -56,-29 c -146,-76 -671,-392 -707,-426 -60,-55 -17,-158 66,-158 12,0 124,62 248,138 208,127 343,206 494,290 l 57,31 99,-132 c 125,-166 173,-220 270,-300 141,-117 277,-197 444,-262 l 96,-38 -76,-91 c -245,-289 -376,-495 -471,-734 -91,-229 -106,-336 -106,-787 0,-383 7,-462 66,-745 l 30,-145 -73,-68 c -80,-74 -223,-177 -290,-207 -80,-37 -186,-21 -319,45 -203,103 -348,273 -513,603 -81,160 -118,265 -191,528 -84,304 -114,385 -250,659 -155,316 -384,690 -485,793 -97,99 -182,153 -305,192 -187,58 -336,0 -381,-147 -21,-69 -21,-251 0,-338 38,-155 178,-386 330,-545 117,-122 215,-273 273,-419 54,-139 75,-270 93,-596 5,-104 15,-221 21,-260 13,-82 94,-308 150,-415 68,-131 355,-496 497,-632 94,-89 339,-275 455,-344 110,-65 268,-118 421,-140 117,-17 174,-15 331,12 17,2 -21,-11 -84,-31 -136,-43 -180,-64 -235,-115 -50,-46 -88,-112 -111,-194 -24,-82 -16,-263 15,-361 75,-236 196,-376 393,-455 342,-137 1071,-180 1359,-81 141,49 236,129 298,252 54,109 72,199 68,342 -2,65 -2,117 -1,117 0,0 50,-20 110,-44 170,-68 240,-81 433,-80 162,0 167,1 273,36 59,20 107,35 107,34 1,0 5,-73 10,-161 10,-186 29,-260 91,-355 76,-117 218,-248 316,-292 98,-43 142,-50 353,-55 325,-8 495,22 820,144 323,120 531,226 611,310 102,106 133,199 134,398 0,120 -3,148 -22,199 -48,127 -163,229 -335,297 -78,31 -90,33 -203,32 -114,0 -157,-7 -403,-61 l -24,-5 28,54 c 15,30 75,173 134,319 59,146 144,349 188,451 142,328 193,528 193,754 1,77 -6,167 -15,220 -39,212 -134,518 -266,855 -164,416 -216,521 -380,764 -59,88 -156,234 -214,322 -57,89 -130,188 -160,222 l -56,60 72,40 c 193,106 347,225 522,400 l 118,119 322,-154 c 176,-85 349,-169 384,-185 60,-29 65,-30 100,-16 48,18 68,57 56,107 -8,33 -18,41 -109,88 -55,29 -220,109 -367,180 -242,115 -267,129 -255,144 112,156 230,366 288,514 13,33 24,61 24,62 1,2 62,-13 136,-31 174,-45 328,-100 456,-165 120,-60 152,-63 194,-22 31,32 36,64 17,106 -13,29 -191,120 -338,173 -100,37 -316,99 -369,108 l -37,6 18,69 c 36,145 50,272 55,529 10,453 -33,693 -200,1121 -60,156 -103,292 -112,358 -9,69 -40,101 -97,101 -52,0 -88,-35 -88,-84 0,-33 -3,-36 -42,-46 -259,-67 -362,-153 -585,-490 -53,-80 -121,-178 -151,-219 l -54,-74 -102,101 c -118,118 -151,135 -406,207 -544,154 -808,200 -1145,200 -368,-1 -577,-45 -847,-181 -185,-93 -423,-268 -493,-363 -17,-22 -33,-41 -36,-41 -4,0 -65,91 -135,202 -280,440 -377,540 -694,717 -52,29 -102,59 -110,66 -17,16 -98,45 -120,44 -8,0 -25,-4 -36,-9 z m 256,-310 c 202,-120 281,-201 452,-463 57,-86 147,-225 201,-308 103,-158 135,-189 195,-189 46,0 77,24 114,89 60,106 190,221 388,344 341,210 773,273 1290,186 123,-20 477,-106 675,-163 218,-62 229,-68 340,-176 147,-142 159,-150 212,-150 89,0 123,36 353,375 154,228 233,318 319,364 71,37 190,76 200,65 4,-5 16,-31 26,-59 10,-27 46,-124 81,-215 70,-185 126,-384 149,-535 37,-239 29,-660 -17,-875 -29,-138 -30,-140 -37,-144 -9,-6 -210,35 -423,85 -159,38 -179,41 -208,29 -58,-24 -73,-106 -26,-148 23,-23 167,-60 429,-113 155,-31 166,-35 161,-54 -13,-44 -113,-244 -161,-321 -85,-136 -133,-196 -151,-189 -10,3 -90,51 -179,106 -111,68 -171,99 -192,99 -41,0 -80,-37 -88,-82 -5,-33 -2,-41 28,-71 19,-18 97,-70 174,-117 77,-46 142,-85 144,-87 9,-7 -182,-193 -262,-256 -100,-79 -244,-171 -373,-235 -92,-47 -105,-51 -150,-46 -41,5 -54,2 -76,-16 -16,-12 -28,-28 -28,-35 0,-29 -302,-104 -525,-130 -344,-40 -851,-24 -1289,42 l -110,16 31,28 c 62,55 70,104 24,150 -53,53 -92,40 -198,-64 l -71,-70 -109,37 c -217,75 -390,183 -537,333 -79,81 -225,269 -226,289 0,6 14,17 30,24 41,17 60,46 60,92 0,71 -61,103 -139,74 -25,-10 -52,-19 -59,-20 -8,0 -53,62 -102,139 l -88,140 127,38 c 140,42 171,64 171,121 0,41 -31,82 -68,91 -17,3 -63,-5 -124,-24 -53,-16 -120,-37 -148,-45 l -52,-15 -69,143 c -122,253 -207,547 -230,800 -14,149 -7,840 10,996 14,131 21,180 26,180 3,0 50,-27 105,-60 z m 3757,-3489 c 59,-43 104,-100 220,-276 58,-88 157,-236 219,-330 138,-207 204,-338 327,-650 258,-653 332,-978 281,-1246 -34,-184 -69,-283 -224,-644 -45,-104 -111,-264 -147,-355 -35,-91 -99,-235 -140,-320 -85,-175 -94,-221 -53,-265 36,-38 77,-41 208,-11 328,75 343,78 447,74 92,-4 106,-7 173,-41 169,-87 222,-190 193,-377 -15,-96 -45,-162 -92,-205 -108,-97 -639,-314 -895,-365 -127,-26 -427,-37 -534,-21 -107,16 -189,59 -275,145 -133,132 -154,186 -166,440 -9,204 -16,228 -72,270 -41,30 -92,25 -242,-24 -126,-42 -134,-43 -260,-43 -160,-1 -218,13 -420,95 -176,71 -249,83 -302,49 -52,-33 -56,-88 -13,-206 19,-51 21,-74 17,-155 -8,-156 -53,-257 -145,-327 -83,-63 -248,-93 -513,-93 -460,0 -854,91 -978,225 -51,56 -114,185 -137,281 -33,141 -1,277 77,334 39,28 59,34 594,185 187,53 362,108 389,123 86,46 119,128 82,200 -15,28 -103,115 -218,214 -45,39 -75,75 -92,110 -36,74 -72,223 -109,451 -32,196 -32,196 -13,223 37,50 17,123 -40,144 -18,7 -25,28 -48,147 -35,188 -45,275 -52,481 -7,204 9,557 30,658 62,292 253,618 573,972 77,86 79,88 113,80 74,-16 383,-58 550,-75 250,-24 813,-25 995,0 199,27 360,62 502,110 70,24 133,45 139,45 6,1 29,-11 51,-27 z m -5505,-131 c 96,-29 191,-102 268,-205 65,-87 238,-370 322,-528 172,-321 230,-463 308,-756 79,-297 140,-459 247,-661 121,-228 264,-409 412,-520 82,-62 225,-134 310,-155 65,-17 196,-21 248,-9 56,13 182,86 290,168 l 110,84 18,-126 c 20,-147 62,-322 97,-409 24,-60 25,-63 7,-68 -11,-4 -37,-33 -59,-65 -48,-71 -73,-91 -164,-134 -130,-62 -229,-88 -356,-93 -102,-5 -128,-2 -229,22 -142,34 -246,86 -406,201 -245,177 -296,226 -514,499 -166,207 -220,291 -278,437 -64,162 -80,241 -88,408 -8,186 -22,351 -41,469 -38,246 -165,489 -369,711 -218,238 -311,428 -303,623 3,79 6,91 27,108 30,24 63,24 143,-1 z M 7246,8968 c 4,-5 4,-11 2,-13 -5,-5 -562,-165 -574,-165 -5,0 37,20 93,44 171,73 229,116 294,218 l 31,48 74,-62 c 41,-34 77,-66 80,-70 z"
       id="path4"
       inkscape:connector-curvature="0" />
    <path
       d="m 9231,15099 c -41,-16 -194,-179 -264,-280 -56,-81 -67,-104 -67,-138 0,-46 23,-76 64,-87 49,-12 78,9 143,102 71,102 171,216 213,241 56,33 66,99 21,144 -31,30 -65,36 -110,18 z"
       id="path6"
       inkscape:connector-curvature="0" />
    <path
       d="m 7115,14908 c -57,-33 -60,-89 -8,-176 69,-116 329,-419 384,-448 43,-22 77,-17 110,15 21,22 29,39 29,66 0,33 -10,48 -98,139 -117,120 -202,225 -266,324 -57,88 -99,110 -151,80 z"
       id="path8"
       inkscape:connector-curvature="0" />
    <path
       d="m 8320,14219 c -43,-17 -91,-60 -121,-107 -15,-25 -26,-48 -24,-53 3,-4 1,-10 -4,-13 -4,-3 -9,-41 -10,-83 -1,-67 3,-87 27,-138 16,-33 45,-75 66,-93 75,-66 168,-32 215,79 23,52 65,228 57,236 -2,2 -36,-34 -75,-81 -39,-47 -76,-88 -81,-91 -16,-10 -40,59 -40,112 1,99 62,177 148,188 26,3 54,7 62,9 25,3 -126,46 -162,45 -18,0 -44,-5 -58,-10 z"
       id="path10"
       inkscape:connector-curvature="0" />
    <path
       d="m 8165,13386 c -113,-22 -195,-46 -261,-76 -68,-31 -217,-139 -234,-170 -27,-51 5,-121 61,-134 29,-6 55,6 171,86 90,61 183,95 331,118 92,15 234,8 322,-15 145,-40 370,-181 527,-332 103,-100 108,-103 152,-103 55,0 86,32 86,89 0,30 -9,47 -50,93 -155,174 -456,369 -660,428 -96,28 -338,37 -445,16 z"
       id="path12"
       inkscape:connector-curvature="0" />
  </g>
</svg>
