<?xml version="1.0" encoding="UTF-8" standalone="no"?>
<svg
   xmlns:dc="http://purl.org/dc/elements/1.1/"
   xmlns:cc="http://creativecommons.org/ns#"
   xmlns:rdf="http://www.w3.org/1999/02/22-rdf-syntax-ns#"
   xmlns:svg="http://www.w3.org/2000/svg"
   xmlns="http://www.w3.org/2000/svg"
   xmlns:sodipodi="http://sodipodi.sourceforge.net/DTD/sodipodi-0.dtd"
   xmlns:inkscape="http://www.inkscape.org/namespaces/inkscape"
   version="1.0"
   width="595.42596pt"
   height="544.78302pt"
   viewBox="0 0 595.42596 544.78302"
   preserveAspectRatio="xMidYMid meet"
   id="svg30"
   sodipodi:docname="meow.svg"
   inkscape:version="0.92.4 (fd57863, 2020-04-02)">
  <defs
     id="defs34" />
  <sodipodi:namedview
     pagecolor="#ffffff"
     bordercolor="#666666"
     borderopacity="1"
     objecttolerance="10"
     gridtolerance="10"
     guidetolerance="10"
     inkscape:pageopacity="0"
     inkscape:pageshadow="2"
     inkscape:window-width="640"
     inkscape:window-height="480"
     id="namedview32"
     showgrid="false"
     inkscape:zoom="0.39111844"
     inkscape:cx="268.46445"
     inkscape:cy="393.65319"
     inkscape:window-x="0"
     inkscape:window-y="27"
     inkscape:window-maximized="0"
     inkscape:current-layer="svg30" />
  <metadata
     id="metadata2">
Created by potrace 1.15, written by Peter Selinger 2001-2017
<rdf:RDF>
  <cc:Work
     rdf:about="">
    <dc:format>image/svg+xml</dc:format>
    <dc:type
       rdf:resource="http://purl.org/dc/dcmitype/StillImage" />
  </cc:Work>
</rdf:RDF>
</metadata>
  <g
     transform="matrix(0.1,0,0,-0.1,-679.50346,1570.0023)"
     id="g28"
     style="fill:#000000;stroke:none">
    <path
       d="m 11096,15673 c -4,-4 -226,-8 -494,-8 l -487,-1 -120,-27 c -527,-121 -619,-166 -700,-341 -44,-94 -59,-185 -52,-310 12,-226 115,-392 286,-462 l 69,-29 -69,-70 c -39,-40 -69,-79 -69,-90 0,-33 15,-47 46,-44 18,2 47,-7 74,-24 66,-38 121,-55 203,-63 94,-8 159,10 252,71 l 69,46 192,-30 c 105,-17 234,-43 285,-58 91,-27 100,-28 309,-27 242,2 371,14 511,49 198,49 332,115 476,232 125,101 210,195 306,338 142,212 181,325 157,448 -44,224 -229,341 -617,392 -120,16 -613,22 -627,8 z m 694,-111 c 63,-12 146,-31 184,-42 65,-20 68,-22 45,-34 l -24,-12 4,-155 c 2,-94 -1,-183 -9,-227 l -12,-73 -65,83 c -76,98 -98,118 -128,118 -35,0 -45,-21 -53,-106 l -7,-79 -90,178 c -69,136 -95,179 -113,183 -29,8 -52,-12 -52,-43 0,-14 44,-110 97,-215 53,-105 106,-218 118,-252 19,-56 23,-61 52,-64 45,-4 62,27 76,142 l 12,96 59,-75 c 33,-42 69,-78 82,-81 81,-21 126,104 126,351 0,77 -5,159 -10,182 -9,41 -9,42 11,32 42,-23 107,-93 132,-142 32,-65 34,-152 4,-231 -24,-65 -152,-269 -224,-356 -63,-77 -233,-223 -316,-273 -132,-77 -335,-140 -512,-156 -56,-6 -176,-13 -267,-17 l -165,-7 -135,36 c -130,35 -450,90 -518,89 -20,0 -43,-9 -55,-20 -35,-32 -139,-89 -176,-96 -68,-13 -224,28 -246,65 -4,6 9,27 29,48 20,20 36,46 36,57 0,11 5,25 11,31 6,6 9,21 7,34 -2,18 -21,31 -96,63 -118,52 -159,87 -205,174 -51,97 -70,186 -64,292 7,108 27,171 75,246 62,95 127,124 482,209 249,59 344,68 715,60 165,-3 361,-1 435,4 74,5 248,8 385,6 201,-2 272,-6 365,-23 z"
       id="path4"
       inkscape:connector-curvature="0" />
    <path
       d="m 11253,15346 c -58,-19 -104,-49 -151,-100 -59,-65 -68,-121 -21,-133 14,-4 18,-10 13,-22 -25,-58 -34,-139 -23,-220 19,-154 55,-196 164,-188 127,9 239,93 271,203 32,112 -5,333 -70,419 -40,51 -103,66 -183,41 z m 141,-169 c 31,-93 41,-179 27,-240 -16,-73 -41,-103 -115,-138 -61,-29 -91,-35 -112,-21 -19,12 -34,82 -34,156 0,110 38,171 145,233 33,20 51,37 53,52 5,31 16,17 36,-42 z"
       id="path6"
       inkscape:connector-curvature="0" />
    <path
       d="m 10663,15311 c -29,-30 -53,-64 -53,-74 0,-17 21,-47 34,-47 8,0 18,-38 30,-117 10,-65 20,-128 23,-140 4,-19 1,-23 -21,-23 -52,0 -59,-75 -8,-86 49,-10 52,-13 52,-45 0,-18 7,-40 16,-50 14,-16 14,-18 -5,-29 -28,-14 -29,-65 -2,-80 23,-12 356,-26 394,-16 21,5 27,12 27,34 0,42 -17,52 -89,52 -37,0 -117,3 -180,7 -110,6 -113,7 -90,24 19,14 22,25 20,67 l -2,50 71,12 c 82,14 103,34 75,76 -18,27 -21,28 -99,13 -32,-6 -60,-9 -62,-7 -5,6 -46,260 -42,263 2,2 52,9 111,16 114,13 133,22 123,64 -9,34 -40,40 -151,26 -90,-12 -95,-11 -114,8 -26,26 -36,26 -58,2 z"
       id="path8"
       inkscape:connector-curvature="0" />
    <path
       d="m 10239,15286 c -29,-17 -50,-58 -84,-174 -13,-45 -27,-87 -30,-92 -3,-5 -50,23 -105,63 -91,66 -99,75 -97,104 1,35 -17,63 -43,63 -17,0 -50,-29 -50,-46 0,-5 -15,-16 -33,-24 l -32,-15 -3,-170 c -3,-190 0,-211 28,-220 44,-14 55,7 79,149 16,92 27,134 35,129 6,-3 48,-35 93,-70 101,-78 124,-88 162,-68 34,17 49,48 90,183 18,56 35,102 40,102 9,0 53,-47 73,-80 27,-44 59,-142 84,-254 13,-61 30,-113 37,-118 22,-14 56,-8 67,12 13,24 -27,215 -66,320 -62,165 -165,251 -245,206 z"
       id="path10"
       inkscape:connector-curvature="0" />
    <path
       d="m 9229,14283 c -99,-132 -135,-201 -174,-328 -16,-49 -29,-92 -31,-93 -1,-2 -74,8 -161,23 -117,20 -206,28 -343,32 -168,4 -192,2 -255,-17 -38,-11 -75,-22 -80,-23 -6,-1 -45,39 -87,88 -42,50 -103,116 -136,149 -54,52 -60,62 -55,90 3,22 0,36 -12,46 -29,24 -64,1 -110,-75 -89,-148 -119,-282 -130,-590 -6,-202 6,-408 31,-497 10,-35 13,-63 8,-68 -5,-4 -55,-22 -111,-39 -89,-28 -104,-35 -109,-57 -8,-30 10,-54 40,-54 19,0 167,39 210,56 11,4 25,-14 52,-67 20,-40 32,-75 28,-77 -31,-11 -319,-200 -328,-214 -16,-25 4,-52 40,-56 22,-2 68,22 188,97 l 160,99 53,-54 c 60,-61 225,-174 328,-227 191,-96 477,-134 659,-87 92,23 94,22 166,-57 105,-118 157,-229 220,-478 67,-265 84,-565 41,-745 -45,-191 -50,-221 -40,-246 5,-14 16,-27 25,-31 9,-3 70,4 136,16 126,24 165,22 193,-9 25,-28 14,-55 -52,-133 -109,-128 -178,-164 -358,-188 -112,-14 -126,-8 -216,97 -39,45 -78,85 -86,88 -27,11 -59,6 -119,-16 -47,-17 -85,-22 -189,-24 -71,-1 -138,-3 -147,-3 -37,-2 -50,-30 -43,-95 l 7,-62 -41,-37 c -24,-22 -61,-42 -93,-51 -92,-26 -287,-48 -363,-42 -137,13 -245,57 -245,101 0,36 22,45 125,56 178,18 397,56 406,70 16,25 -1,62 -93,200 -50,75 -93,147 -95,160 -2,13 -8,26 -13,27 -20,7 -43,63 -31,75 6,6 11,24 11,40 0,23 -6,31 -29,40 -26,9 -32,22 -65,126 -19,64 -41,150 -47,191 -15,96 -6,307 15,385 49,178 265,483 354,501 66,13 61,93 -6,94 -115,1 -379,-341 -436,-565 -53,-206 -36,-449 48,-694 15,-41 26,-80 26,-87 0,-17 -68,-42 -150,-55 -58,-9 -79,-8 -127,6 -110,32 -185,92 -223,179 -18,39 -25,86 -35,240 -18,259 -39,317 -150,429 -79,79 -140,107 -233,107 -71,0 -75,-1 -108,-34 -31,-31 -34,-40 -34,-90 0,-32 7,-70 15,-86 8,-16 53,-61 100,-100 124,-103 130,-116 154,-295 34,-255 81,-344 236,-440 89,-56 167,-88 268,-110 103,-23 248,-17 331,13 33,12 60,21 60,19 1,-1 32,-48 70,-105 38,-56 67,-104 65,-105 -8,-6 -224,-38 -316,-47 -105,-10 -146,-27 -169,-71 -19,-38 -22,-106 -5,-137 19,-36 89,-80 160,-103 179,-55 546,-18 662,67 63,46 89,89 89,146 v 46 l 123,4 c 81,3 141,11 180,23 l 58,19 74,-81 c 94,-102 131,-119 243,-109 105,9 235,41 294,73 57,31 199,177 228,234 24,45 26,109 5,149 -35,68 -139,93 -272,67 -40,-8 -73,-11 -73,-7 0,4 12,59 27,121 24,100 27,134 27,279 0,259 -33,472 -110,706 -56,169 -103,251 -202,355 l -53,57 73,48 c 40,27 124,99 185,159 l 113,110 93,-92 c 96,-95 121,-108 151,-77 27,26 18,46 -42,104 -32,30 -77,76 -101,102 l -42,46 43,59 c 24,32 52,76 63,96 24,45 28,44 146,-10 96,-44 129,-41 129,11 0,31 -4,35 -67,64 -38,17 -88,38 -111,48 -39,15 -43,20 -38,43 23,99 29,206 19,298 -13,117 -120,502 -161,583 -36,70 -169,289 -190,313 -8,9 -29,17 -46,17 -26,0 -38,-8 -67,-47 z m 117,-155 c 26,-45 60,-100 75,-121 46,-63 161,-445 180,-597 13,-103 -6,-280 -30,-280 -3,0 -47,14 -98,31 -108,36 -136,31 -131,-24 3,-31 7,-33 93,-64 50,-17 94,-33 99,-35 10,-5 -16,-57 -57,-115 l -30,-43 -48,68 c -27,37 -56,77 -65,90 -18,27 -61,27 -77,1 -16,-26 -1,-59 67,-150 l 64,-86 -70,-77 c -115,-126 -301,-261 -344,-250 -14,4 -30,-3 -49,-20 -37,-34 -77,-41 -225,-40 -206,2 -354,50 -552,179 -92,61 -198,149 -198,165 0,4 23,19 51,34 57,32 66,47 51,82 -15,32 -43,31 -109,-6 l -53,-30 -30,59 c -16,33 -26,62 -22,65 5,3 42,14 83,25 65,19 99,39 99,62 0,4 -8,17 -19,30 l -18,23 -82,-23 c -45,-12 -88,-24 -95,-27 -10,-4 -19,16 -32,68 -17,64 -19,113 -19,383 0,338 7,400 63,528 l 25,58 64,-63 c 36,-35 100,-104 144,-154 47,-55 89,-94 105,-98 17,-5 48,2 92,20 121,49 314,45 660,-13 122,-21 167,-25 180,-17 11,7 26,48 42,110 30,116 63,192 121,274 23,33 43,60 45,60 1,0 24,-37 50,-82 z M 7037,11839 c 60,-29 148,-129 174,-198 16,-43 23,-95 30,-221 10,-184 20,-241 56,-317 40,-86 153,-168 274,-199 80,-21 170,-14 269,19 59,20 73,22 77,10 8,-21 -6,-30 -72,-47 -148,-39 -333,1 -493,107 -117,79 -160,168 -186,389 -22,186 -22,186 -219,366 -35,31 -47,50 -47,70 0,16 3,32 7,35 14,14 88,6 130,-14 z"
       id="path12"
       inkscape:connector-curvature="0" />
    <path
       d="m 8864,13541 c -63,-38 -85,-141 -39,-186 41,-42 98,-26 131,36 16,33 11,132 -8,157 -15,17 -48,15 -84,-7 z"
       id="path14"
       inkscape:connector-curvature="0" />
    <path
       d="m 8291,13494 c -27,-34 -28,-95 -3,-117 19,-18 49,-22 68,-9 32,21 47,115 22,140 -21,21 -65,14 -87,-14 z"
       id="path16"
       inkscape:connector-curvature="0" />
    <path
       d="m 8527,13242 c -19,-21 -22,-83 -6,-115 27,-52 61,-77 106,-77 24,0 57,7 72,15 31,15 61,77 61,123 0,26 0,26 -25,-10 -46,-69 -90,-76 -131,-22 -32,41 -26,49 44,60 61,9 60,20 -5,33 -77,15 -97,14 -116,-7 z"
       id="path18"
       inkscape:connector-curvature="0" />
    <path
       d="m 8420,12921 c -16,-32 -12,-45 28,-83 144,-138 237,-159 329,-76 60,57 68,73 48,104 -21,33 -49,30 -82,-7 -65,-72 -98,-68 -203,25 -66,59 -102,70 -120,37 z"
       id="path20"
       inkscape:connector-curvature="0" />
    <path
       d="m 6422,12097 c -33,-39 -41,-238 -11,-273 15,-18 53,-18 69,1 9,11 11,34 6,77 -3,36 -1,86 6,119 9,46 9,61 -1,73 -16,19 -55,21 -69,3 z"
       id="path22"
       inkscape:connector-curvature="0" />
    <path
       d="m 6825,12095 c -33,-7 -82,-22 -110,-32 -44,-16 -50,-22 -50,-47 0,-48 23,-54 122,-29 49,12 100,24 115,28 39,8 54,40 33,71 -17,27 -26,28 -110,9 z"
       id="path24"
       inkscape:connector-curvature="0" />
    <path
       d="m 6592,11798 c -24,-24 -13,-63 36,-123 49,-61 80,-77 108,-55 7,7 14,21 14,31 0,17 -81,134 -105,151 -15,11 -40,9 -53,-4 z"
       id="path26"
       inkscape:connector-curvature="0" />
  </g>
</svg>
