<?xml version="1.0" encoding="UTF-8" standalone="no"?>
<svg
   xmlns:dc="http://purl.org/dc/elements/1.1/"
   xmlns:cc="http://creativecommons.org/ns#"
   xmlns:rdf="http://www.w3.org/1999/02/22-rdf-syntax-ns#"
   xmlns:svg="http://www.w3.org/2000/svg"
   xmlns="http://www.w3.org/2000/svg"
   xmlns:sodipodi="http://sodipodi.sourceforge.net/DTD/sodipodi-0.dtd"
   xmlns:inkscape="http://www.inkscape.org/namespaces/inkscape"
   version="1.0"
   width="875.35626pt"
   height="706.71863pt"
   viewBox="0 0 875.35626 706.71863"
   preserveAspectRatio="xMidYMid meet"
   id="svg38"
   sodipodi:docname="start.svg"
   inkscape:version="0.92.4 (fd57863, 2020-04-02)">
  <defs
     id="defs42" />
  <sodipodi:namedview
     pagecolor="#ffffff"
     bordercolor="#666666"
     borderopacity="1"
     objecttolerance="10"
     gridtolerance="10"
     guidetolerance="10"
     inkscape:pageopacity="0"
     inkscape:pageshadow="2"
     inkscape:window-width="640"
     inkscape:window-height="480"
     id="namedview40"
     showgrid="false"
     inkscape:zoom="0.069140625"
     inkscape:cx="559.53613"
     inkscape:cy="601.0665"
     inkscape:window-x="0"
     inkscape:window-y="27"
     inkscape:window-maximized="0"
     inkscape:current-layer="svg38" />
  <metadata
     id="metadata2">
Created by potrace 1.15, written by Peter Selinger 2001-2017
<rdf:RDF>
  <cc:Work
     rdf:about="">
    <dc:format>image/svg+xml</dc:format>
    <dc:type
       rdf:resource="http://purl.org/dc/dcmitype/StillImage" />
  </cc:Work>
</rdf:RDF>
</metadata>
  <g
     transform="matrix(-0.0772858,0,0,-0.0772858,1192.5471,1283.1823)"
     id="g36"
     style="fill:#000000;stroke:none">
    <path
       d="m 7816,15344 c -21,-21 -20,-40 4,-79 28,-45 45,-138 85,-454 38,-301 89,-607 110,-658 20,-49 49,-51 199,-15 244,59 366,75 511,69 142,-6 358,-37 445,-63 81,-24 159,-67 215,-117 99,-88 120,-87 195,13 57,78 280,288 363,343 63,42 174,103 203,111 19,6 23,1 35,-46 20,-75 17,-362 -5,-507 -20,-134 -142,-568 -193,-691 -36,-84 -127,-253 -162,-299 l -19,-24 -37,56 c -30,46 -43,57 -64,57 -65,0 -66,-42 -2,-135 l 48,-70 -50,-75 c -95,-141 -190,-265 -260,-337 -39,-40 -74,-73 -78,-73 -10,0 -100,114 -208,263 -100,138 -123,153 -157,102 -15,-23 -15,-27 2,-52 35,-55 192,-269 233,-318 l 41,-50 -44,-22 c -65,-33 -168,-58 -366,-90 -148,-24 -205,-28 -370,-28 -357,0 -498,49 -869,304 -67,47 -143,103 -167,124 -48,42 -161,196 -212,287 -30,53 -106,240 -100,244 26,15 92,68 126,100 47,45 56,88 23,106 -31,16 -36,13 -102,-45 -34,-31 -66,-52 -70,-48 -6,7 -29,111 -29,133 0,4 64,10 141,13 81,4 147,12 155,18 18,15 18,53 0,68 -10,8 -58,11 -157,9 l -142,-3 6,90 c 7,101 34,211 107,427 138,408 286,668 494,866 77,74 89,98 60,126 -27,28 -52,18 -125,-51 -163,-154 -286,-335 -394,-578 -139,-316 -245,-680 -245,-846 v -39 h -87 c -49,0 -165,5 -260,11 -191,13 -203,11 -203,-42 0,-21 6,-32 23,-38 29,-11 475,-33 504,-25 18,5 23,1 27,-17 34,-170 35,-184 18,-197 -9,-8 -103,-56 -209,-108 -127,-63 -194,-102 -198,-114 -10,-30 12,-60 44,-60 15,0 113,42 217,94 104,52 189,94 189,93 1,-1 18,-45 38,-98 65,-166 214,-385 322,-472 104,-83 386,-269 470,-308 104,-49 177,-73 305,-100 88,-19 136,-23 295,-23 166,0 215,4 391,32 243,39 298,53 391,97 l 72,34 38,-43 c 21,-24 47,-46 59,-50 22,-7 52,11 54,34 4,29 0,40 -32,75 l -31,36 75,77 c 75,76 157,180 252,320 43,63 51,70 61,54 6,-9 38,-64 70,-122 32,-58 76,-131 97,-163 36,-53 43,-58 71,-55 41,4 60,47 34,76 -10,10 -64,100 -120,199 -94,163 -102,182 -89,199 37,50 143,239 181,322 44,99 155,463 189,622 34,157 45,287 39,483 -5,194 -14,245 -52,283 -80,80 -316,-44 -586,-307 -64,-63 -128,-129 -142,-147 l -26,-32 -63,48 c -115,87 -210,119 -447,152 -221,32 -318,35 -456,16 -112,-16 -360,-66 -397,-81 -11,-4 -18,0 -22,12 -17,56 -62,337 -96,604 -49,377 -64,452 -103,496 -32,36 -57,42 -81,17 z"
       id="path4"
       inkscape:connector-curvature="0" />
    <path
       d="m 6440,15083 c -36,-38 -108,-122 -161,-188 -336,-420 -419,-623 -405,-985 14,-358 98,-700 241,-978 86,-168 114,-206 154,-210 39,-4 71,20 71,54 0,13 -31,78 -70,145 -138,241 -217,499 -256,836 -21,175 -14,355 16,467 50,185 216,441 496,762 77,88 83,123 27,153 -36,18 -44,14 -113,-56 z"
       id="path6"
       inkscape:connector-curvature="0" />
    <path
       d="m 11357,14232 c -10,-10 -17,-32 -17,-49 0,-58 3,-59 376,-72 187,-6 396,-16 465,-22 68,-5 133,-8 145,-5 43,11 54,95 14,116 -21,11 -240,27 -560,40 -360,15 -404,14 -423,-8 z"
       id="path8"
       inkscape:connector-curvature="0" />
    <path
       d="m 7964,13696 c -91,-40 -84,-165 10,-196 67,-22 136,29 136,100 0,45 -23,78 -66,96 -40,17 -41,17 -80,0 z"
       id="path10"
       inkscape:connector-curvature="0" />
    <path
       d="m 8734,13530 c -34,-13 -54,-50 -54,-98 0,-93 101,-136 172,-73 28,25 33,36 33,76 0,40 -5,51 -33,76 -33,30 -75,37 -118,19 z"
       id="path12"
       inkscape:connector-curvature="0" />
    <path
       d="m 7951,13202 c -118,-59 -92,-213 54,-317 76,-55 173,-96 226,-97 79,-1 119,51 143,181 9,47 16,92 16,100 0,22 -23,-3 -76,-80 -55,-80 -65,-83 -143,-38 -56,32 -161,127 -161,146 0,31 100,72 180,73 31,1 28,3 -34,25 -82,29 -157,32 -205,7 z"
       id="path14"
       inkscape:connector-curvature="0" />
    <path
       d="m 10840,13028 c -20,-7 -40,-38 -40,-61 0,-8 8,-25 18,-37 17,-21 27,-22 277,-31 321,-11 647,-32 1000,-65 455,-42 430,-41 451,-10 22,34 10,76 -26,92 -84,39 -1605,140 -1680,112 z"
       id="path16"
       inkscape:connector-curvature="0" />
    <path
       d="m 7886,12760 c -22,-4 -45,-16 -53,-26 -32,-44 1,-104 57,-104 27,0 30,-3 25,-23 -12,-48 43,-134 120,-187 83,-57 203,-61 271,-7 37,28 64,93 64,152 0,103 -75,157 -267,190 -91,16 -154,17 -217,5 z m 301,-161 c 44,-17 53,-25 53,-44 0,-34 -40,-59 -80,-50 -37,8 -95,56 -116,96 -7,15 -14,30 -14,32 0,8 104,-15 157,-34 z"
       id="path18"
       inkscape:connector-curvature="0" />
    <path
       d="m 4978,12413 c -23,-28 -120,-187 -196,-323 -301,-540 -391,-847 -437,-1481 -10,-145 28,-431 80,-607 18,-59 45,-79 90,-68 48,12 50,40 17,182 -47,203 -56,269 -55,424 1,339 71,720 182,996 82,205 209,451 363,700 71,116 80,150 50,177 -24,22 -75,22 -94,0 z"
       id="path20"
       inkscape:connector-curvature="0" />
    <path
       d="m 7084,12281 c -194,-94 -260,-136 -428,-271 -177,-142 -306,-273 -414,-418 -149,-199 -177,-255 -312,-610 -54,-143 -95,-275 -133,-427 -97,-384 -92,-347 -92,-735 v -345 l 33,-128 c 32,-124 72,-308 72,-330 0,-18 -121,0 -238,37 -243,77 -444,51 -552,-71 -34,-39 -40,-53 -40,-90 0,-122 167,-283 414,-398 158,-74 243,-94 456,-106 258,-16 432,-7 539,25 99,30 125,46 152,89 26,41 22,126 -9,185 -12,23 -18,42 -14,42 35,0 216,-37 329,-66 108,-28 164,-37 258,-41 71,-4 123,-10 127,-17 4,-6 8,-23 8,-38 0,-47 60,-102 130,-122 87,-25 282,-39 470,-34 148,4 176,8 270,36 144,43 325,133 350,175 11,18 20,41 20,52 0,58 -79,104 -177,105 -60,0 -89,12 -57,24 9,3 31,6 50,6 22,0 48,9 67,24 130,97 207,115 477,114 225,-1 221,-1 590,91 291,72 370,120 554,341 62,74 162,187 222,250 60,64 150,162 199,219 112,129 298,300 390,360 39,25 117,65 175,89 267,110 853,427 979,530 56,45 81,87 81,135 0,68 -47,123 -120,140 -39,9 -488,41 -545,39 -225,-10 -607,-259 -1113,-727 -71,-66 -213,-185 -316,-264 -123,-95 -211,-171 -259,-225 -215,-241 -374,-356 -616,-446 -79,-29 -252,-70 -295,-70 h -24 l 28,88 c 39,120 73,289 110,542 17,118 49,296 71,395 50,225 72,430 73,695 1,167 -2,215 -16,260 -30,97 -127,289 -182,362 -30,39 -57,83 -61,97 -11,43 -34,71 -59,71 -75,0 -52,-118 47,-237 50,-62 153,-277 167,-353 14,-76 12,-280 -5,-496 -12,-143 -25,-228 -56,-361 -22,-96 -46,-222 -55,-281 -51,-369 -86,-546 -139,-701 -47,-142 -203,-423 -261,-472 -19,-15 -172,-110 -265,-162 -50,-29 -99,-79 -99,-103 0,-8 11,-26 25,-39 22,-23 31,-25 128,-25 111,0 167,-7 167,-21 0,-17 -160,-89 -275,-124 l -116,-35 h -208 c -254,0 -374,16 -408,56 -13,14 -23,34 -23,45 0,36 -31,80 -65,95 -22,9 -71,14 -136,14 -85,0 -127,6 -262,40 -173,43 -381,75 -435,66 -19,-3 -40,-10 -48,-17 -22,-19 -16,-62 14,-99 34,-41 51,-72 62,-111 13,-44 -13,-65 -109,-94 -78,-23 -100,-25 -287,-25 -336,0 -444,18 -629,104 -163,76 -289,174 -342,263 l -26,44 29,30 c 55,58 106,74 234,74 103,0 125,-3 212,-32 171,-57 298,-64 348,-18 24,22 26,71 6,158 -8,34 -34,143 -57,242 l -42,180 v 290 c -1,333 2,352 90,700 65,260 180,580 275,770 81,161 253,384 394,511 232,207 352,290 581,401 163,78 173,85 173,111 0,33 -16,52 -44,52 -12,-1 -93,-36 -182,-79 z m 4565,-1286 c 123,-9 230,-19 238,-23 23,-13 -29,-53 -224,-170 -180,-109 -582,-317 -721,-373 -111,-45 -201,-92 -272,-145 -85,-62 -286,-259 -413,-404 -56,-63 -142,-158 -192,-210 -50,-52 -135,-147 -188,-211 -176,-212 -210,-230 -607,-325 l -235,-57 -231,-1 -231,-1 45,85 c 68,127 79,143 86,131 11,-17 87,-13 196,9 318,65 635,250 821,480 69,85 139,149 283,258 156,117 250,196 386,323 69,64 159,145 200,180 118,99 427,326 494,364 118,66 273,118 321,109 11,-2 121,-10 244,-19 z"
       id="path22"
       inkscape:connector-curvature="0" />
    <path
       d="m 5674,12220 c -25,-10 -61,-83 -184,-370 -230,-538 -286,-739 -297,-1061 -9,-268 15,-440 99,-687 30,-90 48,-128 65,-139 29,-19 68,-10 89,22 15,22 13,31 -31,158 -64,187 -84,300 -92,498 -14,390 55,643 363,1331 72,160 83,190 74,212 -7,20 -49,50 -63,45 -1,0 -11,-4 -23,-9 z"
       id="path24"
       inkscape:connector-curvature="0" />
    <path
       d="m 9668,11796 c -33,-17 -45,-59 -25,-89 19,-29 10,-28 497,-47 606,-25 1140,-74 1402,-131 122,-26 158,-23 176,14 11,22 11,32 0,55 -11,23 -25,30 -103,49 -284,71 -874,121 -1832,157 -56,2 -101,-1 -115,-8 z"
       id="path26"
       inkscape:connector-curvature="0" />
    <path
       d="m 9266,10148 c -20,-28 -20,-48 -1,-75 17,-24 17,-24 217,-49 128,-15 140,-15 163,0 34,22 35,79 3,100 -25,15 -234,46 -315,46 -42,0 -55,-4 -67,-22 z"
       id="path28"
       inkscape:connector-curvature="0" />
    <path
       d="m 3832,9498 c -37,-18 -38,-52 -3,-172 60,-203 110,-290 367,-636 88,-118 187,-253 220,-300 68,-96 97,-114 138,-86 19,12 26,25 26,49 0,38 -42,100 -275,412 -244,327 -288,402 -349,597 -20,64 -42,120 -49,126 -21,17 -51,21 -75,10 z"
       id="path30"
       inkscape:connector-curvature="0" />
    <path
       d="m 10187,9432 c -20,-22 -22,-61 -4,-85 6,-9 50,-28 97,-41 209,-61 397,-72 679,-41 186,21 269,15 444,-30 99,-26 127,-24 149,9 14,20 8,63 -10,79 -25,22 -198,65 -320,79 -86,10 -128,9 -265,-6 -279,-31 -445,-22 -638,35 -82,24 -111,24 -132,1 z"
       id="path32"
       inkscape:connector-curvature="0" />
    <path
       d="m 9495,8699 c -196,-14 -214,-18 -232,-46 -12,-18 -14,-31 -7,-51 16,-46 43,-50 209,-36 83,7 198,13 258,13 120,1 147,14 147,69 0,53 -23,62 -151,61 -63,-1 -163,-5 -224,-10 z"
       id="path34"
       inkscape:connector-curvature="0" />
  </g>
</svg>
