<?xml version="1.0" encoding="UTF-8" standalone="no"?>
<svg
   xmlns:osb="http://www.openswatchbook.org/uri/2009/osb"
   xmlns:dc="http://purl.org/dc/elements/1.1/"
   xmlns:cc="http://creativecommons.org/ns#"
   xmlns:rdf="http://www.w3.org/1999/02/22-rdf-syntax-ns#"
   xmlns:svg="http://www.w3.org/2000/svg"
   xmlns="http://www.w3.org/2000/svg"
   xmlns:sodipodi="http://sodipodi.sourceforge.net/DTD/sodipodi-0.dtd"
   xmlns:inkscape="http://www.inkscape.org/namespaces/inkscape"
   version="1.0"
   width="661.14459pt"
   height="645.8056pt"
   viewBox="0 0 661.14458 645.8056"
   preserveAspectRatio="xMidYMid meet"
   id="svg16"
   sodipodi:docname="think.svg"
   inkscape:version="0.92.4 (fd57863, 2020-04-02)">
  <defs
     id="defs20">
    <linearGradient
       id="linearGradient6017"
       osb:paint="solid">
      <stop
         style="stop-color:#ffffff;stop-opacity:1;"
         offset="0"
         id="stop6015" />
    </linearGradient>
    <linearGradient
       id="linearGradient6011"
       osb:paint="solid">
      <stop
         style="stop-color:#800000;stop-opacity:1;"
         offset="0"
         id="stop6009" />
    </linearGradient>
    <linearGradient
       id="linearGradient5983"
       osb:paint="solid">
      <stop
         style="stop-color:#800000;stop-opacity:1;"
         offset="0"
         id="stop5981" />
    </linearGradient>
  </defs>
  <sodipodi:namedview
     pagecolor="#ffffff"
     bordercolor="#666666"
     borderopacity="1"
     objecttolerance="10"
     gridtolerance="10"
     guidetolerance="10"
     inkscape:pageopacity="0"
     inkscape:pageshadow="2"
     inkscape:window-width="731"
     inkscape:window-height="480"
     id="namedview18"
     showgrid="false"
     inkscape:zoom="0.2765625"
     inkscape:cx="424.6073"
     inkscape:cy="353.03015"
     inkscape:window-x="0"
     inkscape:window-y="27"
     inkscape:window-maximized="0"
     inkscape:current-layer="svg16" />
  <metadata
     id="metadata2">
Created by potrace 1.15, written by Peter Selinger 2001-2017
<rdf:RDF>
  <cc:Work
     rdf:about="">
    <dc:format>image/svg+xml</dc:format>
    <dc:type
       rdf:resource="http://purl.org/dc/dcmitype/StillImage" />
  </cc:Work>
</rdf:RDF>
</metadata>
  <g
     transform="matrix(0.05878348,0,0,-0.05878348,-303.91059,1175.4701)"
     id="g14"
     style="fill:#000000;stroke:none">
    <path
       d="m 6287,16290 c -33,-26 -43,-70 -23,-108 8,-16 22,-32 31,-36 12,-4 13,-10 6,-24 -5,-10 -20,-66 -31,-123 -30,-144 -24,-409 15,-649 69,-429 160,-839 225,-1020 23,-63 44,-122 46,-131 6,-18 -178,-101 -526,-234 -123,-47 -239,-93 -256,-101 -32,-15 -54,-50 -54,-85 0,-27 53,-79 79,-79 23,0 571,213 730,284 57,25 107,46 111,46 5,0 25,-30 46,-67 20,-38 64,-108 97,-156 33,-48 58,-89 56,-91 -2,-2 -51,-29 -109,-61 -58,-31 -239,-141 -404,-244 -236,-147 -302,-193 -313,-217 -22,-45 -7,-84 40,-107 37,-18 38,-18 75,0 20,11 123,73 227,139 265,168 432,267 525,314 l 79,40 118,-118 c 65,-65 156,-150 203,-189 77,-64 287,-219 328,-242 14,-8 10,-17 -27,-63 -146,-182 -217,-350 -275,-653 -51,-262 -78,-776 -58,-1102 7,-109 15,-215 18,-235 6,-34 4,-37 -32,-56 -133,-67 -446,-106 -584,-73 -219,53 -384,260 -464,583 -45,178 -49,240 -51,683 l -2,420 -27,90 c -73,240 -219,462 -391,592 -98,74 -212,108 -341,100 -162,-9 -204,-67 -204,-277 0,-115 14,-178 60,-270 53,-106 109,-170 262,-303 73,-63 145,-128 160,-143 61,-66 112,-229 128,-414 13,-153 3,-237 -55,-485 -35,-149 -44,-342 -21,-446 26,-119 83,-228 199,-382 96,-127 198,-190 427,-261 314,-97 463,-121 755,-121 203,0 225,2 279,23 33,12 61,22 63,22 2,0 15,-25 29,-56 13,-31 63,-123 111,-205 57,-100 83,-153 76,-160 -5,-5 -55,-19 -109,-31 -83,-17 -121,-19 -234,-14 -74,3 -180,15 -235,26 -55,12 -143,23 -195,27 -206,11 -397,-66 -475,-191 -26,-43 -30,-58 -29,-120 1,-87 25,-143 92,-213 113,-117 352,-235 577,-285 117,-26 477,-37 593,-18 81,13 387,101 434,126 35,18 67,80 75,145 3,27 11,53 17,58 19,15 166,41 291,51 66,5 220,10 341,10 206,0 229,-2 320,-26 55,-14 150,-30 212,-35 63,-5 118,-11 123,-15 5,-3 9,-14 9,-25 0,-28 61,-91 117,-121 65,-35 210,-83 312,-104 65,-13 109,-15 185,-10 191,13 566,69 714,106 164,42 329,152 392,264 24,40 30,63 30,109 0,189 -176,238 -585,161 -24,-4 -16,4 40,41 99,66 139,108 179,189 77,157 120,400 121,681 0,386 -73,687 -292,1213 -125,302 -263,551 -418,757 -82,110 -265,317 -302,343 -13,9 -15,14 -5,18 33,15 204,133 267,184 148,121 287,286 372,440 20,36 38,67 39,68 4,5 143,-90 269,-184 239,-177 409,-271 472,-259 38,7 63,38 63,78 0,47 -18,67 -93,102 -83,38 -203,115 -367,236 -89,66 -211,150 -268,185 -4,3 78,225 87,236 3,4 24,3 46,-2 22,-5 186,-36 365,-70 179,-34 362,-71 407,-82 69,-17 88,-18 112,-8 54,22 65,97 21,138 -24,22 -130,49 -365,92 -218,40 -529,101 -533,104 -1,2 9,50 22,107 75,318 93,674 61,1168 -8,124 -16,337 -19,472 -4,263 -9,289 -58,323 -57,40 -201,4 -340,-86 -178,-115 -427,-448 -494,-662 -10,-31 -21,-56 -25,-56 -4,0 -37,18 -72,40 -198,125 -467,167 -976,156 -163,-4 -514,-11 -781,-15 -267,-5 -519,-14 -560,-20 -230,-33 -438,-89 -594,-160 -38,-17 -73,-28 -77,-24 -4,5 -21,42 -39,83 -38,91 -167,339 -223,429 -22,36 -64,96 -94,133 -38,48 -53,76 -53,98 0,39 -39,80 -77,80 -15,1 -39,7 -53,15 -35,20 -63,18 -93,-5 z m 4447,-477 c 3,-170 11,-353 16,-408 12,-135 12,-523 0,-665 -17,-190 -77,-490 -98,-490 -4,0 -87,16 -186,35 -220,43 -248,44 -275,9 -28,-36 -27,-85 2,-112 18,-17 64,-30 208,-57 101,-20 189,-38 196,-40 12,-4 8,-19 -46,-158 l -11,-29 -38,23 c -20,12 -85,53 -143,91 -117,75 -155,84 -196,46 -26,-24 -32,-83 -10,-110 14,-18 128,-95 235,-158 40,-23 74,-46 77,-50 6,-10 -88,-165 -151,-247 -124,-162 -351,-338 -569,-443 -77,-37 -350,-140 -370,-140 -2,0 2,15 10,33 23,56 48,197 43,248 -12,118 -129,184 -259,146 -84,-25 -147,-106 -181,-230 -6,-26 -17,-47 -23,-47 -5,1 -39,7 -75,15 -98,21 -168,19 -220,-7 -64,-33 -84,-66 -88,-148 -4,-68 -5,-69 -31,-65 -14,2 -57,9 -96,15 -224,35 -560,159 -526,193 14,14 14,72 1,97 -5,10 -23,23 -40,29 -34,11 -64,3 -110,-29 l -27,-19 -119,81 c -65,44 -153,108 -194,142 -83,67 -300,275 -300,287 0,4 16,13 35,19 88,29 87,144 -1,166 -17,4 -49,-3 -95,-21 -39,-15 -71,-26 -73,-24 -80,102 -208,308 -200,321 3,5 37,24 75,44 89,44 109,65 109,109 0,45 -37,85 -78,85 -16,0 -63,-18 -105,-40 -41,-22 -80,-40 -85,-40 -14,0 -68,153 -108,305 -77,298 -178,854 -193,1065 -9,122 0,295 16,325 17,29 192,-276 294,-512 86,-200 117,-221 244,-167 176,75 239,98 350,129 219,60 292,67 815,76 261,5 612,11 780,15 346,8 515,-3 668,-41 124,-32 240,-89 321,-159 56,-49 70,-56 107,-56 25,0 50,7 63,18 12,10 40,74 70,161 56,159 102,247 200,378 93,124 185,213 277,267 43,25 84,46 90,46 8,0 13,-91 18,-307 z M 9260,13158 c -1,-84 -48,-190 -118,-265 -38,-42 -40,-43 -103,-43 -35,0 -115,-3 -176,-7 l -113,-6 v 41 c 0,39 2,42 28,42 15,0 45,-5 67,-10 22,-6 72,-10 112,-11 112,0 158,33 188,139 20,68 50,128 67,135 31,12 48,7 48,-15 z m -3757,-22 c 53,-16 154,-85 208,-143 85,-89 183,-263 226,-398 l 28,-90 1,-405 c 1,-317 4,-430 17,-520 71,-494 297,-820 623,-896 162,-37 503,-2 675,70 13,6 18,-4 28,-56 7,-35 23,-107 37,-160 13,-53 24,-101 24,-107 0,-13 -91,-42 -164,-51 -70,-8 -328,4 -431,20 -191,31 -518,131 -615,188 -45,27 -79,58 -120,111 -78,99 -146,222 -166,300 -25,100 -16,250 29,446 47,208 57,310 47,460 -14,189 -56,357 -116,461 -24,41 -112,129 -269,268 -113,100 -150,145 -189,226 -27,56 -31,78 -34,163 -2,54 -1,104 2,112 7,20 96,20 159,1 z m 2368,-255 c 178,-93 372,-152 611,-186 56,-8 106,-15 109,-15 4,0 14,-20 23,-43 16,-43 16,-45 -9,-99 -48,-105 -43,-287 11,-446 37,-108 96,-243 136,-310 40,-67 227,-260 318,-327 114,-83 421,-226 538,-250 37,-7 137,-18 222,-24 183,-13 270,-2 390,48 170,71 202,103 178,172 -19,56 -78,64 -160,23 -133,-68 -174,-78 -308,-76 -252,2 -310,16 -558,133 -152,72 -228,125 -347,245 -105,104 -157,184 -211,324 -61,159 -68,188 -68,295 -1,85 2,106 22,142 27,52 38,121 25,160 l -10,28 88,3 c 49,2 89,1 89,-2 0,-3 -18,-34 -41,-68 -74,-115 -103,-186 -107,-264 -4,-67 -1,-80 43,-190 67,-168 126,-264 220,-359 90,-91 162,-132 292,-166 213,-55 607,-22 802,67 31,14 107,64 169,111 90,69 115,84 123,72 18,-29 168,-417 203,-524 95,-295 134,-552 123,-805 -10,-223 -49,-415 -107,-531 -27,-53 -41,-66 -113,-113 -96,-63 -193,-112 -297,-151 -121,-46 -159,-105 -110,-168 29,-37 75,-48 230,-54 115,-4 158,-1 293,21 212,35 347,35 347,-1 0,-44 -122,-147 -217,-183 -108,-40 -523,-111 -739,-126 -122,-8 -220,11 -387,75 l -28,11 20,26 c 23,30 27,61 10,97 -20,44 -44,50 -238,59 -150,7 -201,13 -285,36 -100,27 -103,27 -421,27 -331,-1 -422,-8 -588,-47 -131,-30 -165,-66 -183,-190 l -6,-48 -102,-31 c -255,-79 -269,-81 -511,-76 -223,6 -287,14 -406,55 -164,57 -301,134 -368,207 -72,78 -66,126 24,176 64,36 153,59 227,59 32,0 120,-12 196,-27 116,-22 164,-26 317,-26 162,0 190,2 275,25 113,30 185,63 205,91 38,54 14,133 -100,327 -121,207 -136,242 -129,303 6,52 5,54 -29,83 -32,27 -37,39 -65,159 -17,72 -34,153 -38,181 -6,49 -5,51 24,63 78,32 102,112 47,158 -23,20 -36,24 -66,20 l -37,-5 -9,77 c -12,111 -8,693 6,851 32,361 103,629 214,802 26,41 116,154 133,167 1,1 43,-21 95,-48 z m 1902,-38 c 66,-34 257,-237 365,-390 80,-112 242,-385 242,-407 0,-3 -5,-6 -11,-6 -6,0 -56,-36 -112,-80 -56,-45 -124,-92 -152,-105 -104,-50 -300,-85 -475,-85 -245,1 -397,68 -500,220 -72,107 -150,283 -150,341 0,36 34,106 104,214 67,102 113,155 137,155 40,0 290,71 399,114 63,24 116,45 118,45 2,1 17,-6 35,-16 z"
       id="path4"
       inkscape:connector-curvature="0" />
    <path
       d="m 9003,15182 c -62,-22 -148,-85 -197,-145 -60,-74 -43,-151 36,-163 34,-6 41,-3 110,63 99,93 120,101 211,79 40,-9 104,-34 144,-56 39,-21 80,-40 90,-41 68,-11 116,51 89,114 -17,41 -96,89 -209,128 -111,38 -206,45 -274,21 z"
       id="path6"
       inkscape:connector-curvature="0" />
    <path
       d="m 7566,15069 c -58,-12 -166,-59 -184,-82 -22,-26 -17,-85 9,-113 29,-30 62,-31 130,0 91,40 108,40 173,6 32,-16 71,-30 86,-30 64,0 101,80 62,131 -28,35 -128,86 -182,92 -25,3 -67,1 -94,-4 z"
       id="path8"
       inkscape:connector-curvature="0" />
    <path
       d="m 8272,14560 c -18,-11 -36,-28 -39,-38 -4,-9 -13,-23 -20,-30 -7,-8 -11,-17 -8,-22 3,-5 1,-11 -4,-15 -17,-10 -24,-91 -11,-129 27,-82 94,-125 195,-126 113,0 176,31 237,119 47,67 50,91 9,62 -56,-40 -114,-61 -174,-61 -101,0 -145,43 -99,99 22,28 122,49 271,57 l 113,7 -63,24 c -95,36 -257,73 -319,73 -37,0 -66,-6 -88,-20 z"
       id="path10"
       inkscape:connector-curvature="0" />
    <path
       d="m 8962,13960 c -104,-117 -138,-148 -177,-160 -28,-9 -156,-15 -415,-20 -213,-4 -388,-11 -406,-17 -71,-24 -122,-65 -167,-133 -40,-58 -2,-130 69,-130 31,0 44,7 79,46 31,33 54,48 86,56 27,7 163,10 349,9 483,-2 532,14 698,228 65,84 52,154 -31,168 -37,6 -41,3 -85,-47 z"
       id="path12"
       inkscape:connector-curvature="0" />
  </g>
  <path
     style="fill:#ffffff;fill-opacity:1;fill-rule:evenodd;stroke-width:0.75"
     id="path6021"
     ry="51.774597"
     rx="53.692177"
     cy="217.83678"
     cx="437.2077"
     d=""
     inkscape:connector-curvature="0" />
  <ellipse
     style="fill:#875e71;fill-opacity:0;fill-rule:evenodd;stroke:#000000;stroke-width:7.5;stroke-miterlimit:4;stroke-dasharray:none;stroke-opacity:1"
     id="path6031"
     cx="393.54535"
     cy="216.01912"
     rx="34.516403"
     ry="29.722446" />
  <circle
     style="fill:#875e71;fill-opacity:0;fill-rule:evenodd;stroke:#000000;stroke-width:7.5;stroke-miterlimit:4;stroke-dasharray:none;stroke-opacity:1"
     id="path6033"
     cx="506.88602"
     cy="154.26031"
     r="52.881355" />
  <ellipse
     style="fill:#000000;fill-opacity:0;fill-rule:evenodd;stroke:#000000;stroke-width:7.5;stroke-linejoin:bevel;stroke-miterlimit:4;stroke-dasharray:180.00000035, 7.50000001;stroke-dashoffset:0;stroke-opacity:1"
     id="path6035"
     cx="576.03857"
     cy="44.429806"
     rx="81.355934"
     ry="40.677967" />
</svg>
