<?xml version="1.0" encoding="UTF-8" standalone="no"?>
<svg
   xmlns:dc="http://purl.org/dc/elements/1.1/"
   xmlns:cc="http://creativecommons.org/ns#"
   xmlns:rdf="http://www.w3.org/1999/02/22-rdf-syntax-ns#"
   xmlns:svg="http://www.w3.org/2000/svg"
   xmlns="http://www.w3.org/2000/svg"
   xmlns:sodipodi="http://sodipodi.sourceforge.net/DTD/sodipodi-0.dtd"
   xmlns:inkscape="http://www.inkscape.org/namespaces/inkscape"
   version="1.0"
   width="1542.0088pt"
   height="1117.9023pt"
   viewBox="0 0 1542.0088 1117.9023"
   preserveAspectRatio="xMidYMid meet"
   id="svg20"
   sodipodi:docname="st3.svg"
   inkscape:version="0.92.4 (fd57863, 2020-04-02)">
  <defs
     id="defs24" />
  <sodipodi:namedview
     pagecolor="#ffffff"
     bordercolor="#666666"
     borderopacity="1"
     objecttolerance="10"
     gridtolerance="10"
     guidetolerance="10"
     inkscape:pageopacity="0"
     inkscape:pageshadow="2"
     inkscape:window-width="640"
     inkscape:window-height="480"
     id="namedview22"
     showgrid="false"
     inkscape:zoom="0.069140625"
     inkscape:cx="1037.7756"
     inkscape:cy="1030.2237"
     inkscape:window-x="0"
     inkscape:window-y="27"
     inkscape:window-maximized="0"
     inkscape:current-layer="svg20" />
  <metadata
     id="metadata2">
Created by potrace 1.15, written by Peter Selinger 2001-2017
<rdf:RDF>
  <cc:Work
     rdf:about="">
    <dc:format>image/svg+xml</dc:format>
    <dc:type
       rdf:resource="http://purl.org/dc/dcmitype/StillImage" />
  </cc:Work>
</rdf:RDF>
</metadata>
  <g
     transform="matrix(0.26776362,0,0,-0.26776362,-332.06211,3998.2832)"
     id="g18"
     style="fill:#000000;stroke:none">
    <path
       d="m 5297,14360 c -111,-13 -218,-44 -322,-95 -107,-52 -175,-101 -271,-196 -82,-80 -103,-114 -86,-131 8,-8 35,13 104,84 104,106 202,175 316,223 141,59 200,70 377,69 144,0 169,-3 248,-27 49,-15 107,-37 129,-48 42,-21 68,-20 68,5 0,17 -51,42 -150,74 -123,40 -283,56 -413,42 z"
       id="path4"
       inkscape:connector-curvature="0" />
    <path
       d="m 6066,14239 c -33,-5 -93,-18 -135,-29 -186,-51 -437,-213 -366,-237 6,-2 42,20 80,48 85,62 205,121 305,149 91,27 314,38 404,21 41,-7 63,-8 70,-1 43,43 -186,74 -358,49 z"
       id="path6"
       inkscape:connector-curvature="0" />
    <path
       d="m 5836,13840 c -455,-72 -790,-414 -846,-864 -62,-491 261,-958 746,-1077 128,-32 342,-32 468,-1 280,70 522,263 649,517 264,529 13,1163 -541,1372 -134,50 -345,73 -476,53 z m 384,-69 c 183,-53 369,-177 485,-324 260,-327 277,-773 44,-1119 -54,-80 -166,-192 -244,-245 -172,-116 -333,-164 -540,-164 -424,0 -786,278 -907,697 -20,68 -23,102 -23,244 0,142 3,176 23,245 97,341 374,602 718,679 102,23 344,16 444,-13 z"
       id="path8"
       inkscape:connector-curvature="0" />
    <path
       d="m 3180,13404 c -110,-15 -127,-22 -116,-49 4,-12 13,-15 29,-11 12,3 81,13 152,22 142,18 240,16 530,-10 100,-9 306,-17 500,-18 324,-3 330,-3 330,17 0,20 -9,20 -370,27 -218,3 -434,13 -525,22 -186,19 -387,19 -530,0 z"
       id="path10"
       inkscape:connector-curvature="0" />
    <path
       d="m 3025,12595 c -110,-7 -201,-13 -202,-14 -6,-3 -2,-30 5,-34 4,-3 126,1 272,9 400,20 710,16 948,-12 48,-6 52,-5 52,15 0,13 -8,22 -22,25 -124,27 -692,33 -1053,11 z"
       id="path12"
       inkscape:connector-curvature="0" />
    <path
       d="m 4207,11823 c -18,-17 -2,-35 56,-64 191,-97 419,-131 629,-94 116,20 212,55 216,79 5,23 -18,20 -158,-20 -210,-59 -487,-26 -678,81 -48,27 -55,29 -65,18 z"
       id="path14"
       inkscape:connector-curvature="0" />
    <path
       d="m 5855,11564 c -164,-108 -323,-156 -515,-157 -80,0 -152,6 -200,17 -95,20 -100,20 -100,-3 0,-54 371,-77 532,-33 42,11 110,35 151,52 97,40 229,127 225,148 -5,27 -21,23 -93,-24 z"
       id="path16"
       inkscape:connector-curvature="0" />
  </g>
</svg>
