<?xml version="1.0" encoding="UTF-8" standalone="no"?>
<svg
   xmlns:dc="http://purl.org/dc/elements/1.1/"
   xmlns:cc="http://creativecommons.org/ns#"
   xmlns:rdf="http://www.w3.org/1999/02/22-rdf-syntax-ns#"
   xmlns:svg="http://www.w3.org/2000/svg"
   xmlns="http://www.w3.org/2000/svg"
   xmlns:sodipodi="http://sodipodi.sourceforge.net/DTD/sodipodi-0.dtd"
   xmlns:inkscape="http://www.inkscape.org/namespaces/inkscape"
   version="1.0"
   width="1600.000000pt"
   height="2560.000000pt"
   viewBox="0 0 1600.000000 2560.000000"
   preserveAspectRatio="xMidYMid meet"
   id="svg22"
   sodipodi:docname="st2.svg"
   inkscape:version="0.92.4 (fd57863, 2020-04-02)">
  <defs
     id="defs26" />
  <sodipodi:namedview
     pagecolor="#ffffff"
     bordercolor="#666666"
     borderopacity="1"
     objecttolerance="10"
     gridtolerance="10"
     guidetolerance="10"
     inkscape:pageopacity="0"
     inkscape:pageshadow="2"
     inkscape:window-width="640"
     inkscape:window-height="480"
     id="namedview24"
     showgrid="false"
     inkscape:zoom="0.069140625"
     inkscape:cx="1066.6667"
     inkscape:cy="1706.6667"
     inkscape:window-x="0"
     inkscape:window-y="27"
     inkscape:window-maximized="0"
     inkscape:current-layer="svg22" />
  <metadata
     id="metadata2">
Created by potrace 1.15, written by Peter Selinger 2001-2017
<rdf:RDF>
  <cc:Work
     rdf:about="">
    <dc:format>image/svg+xml</dc:format>
    <dc:type
       rdf:resource="http://purl.org/dc/dcmitype/StillImage" />
  </cc:Work>
</rdf:RDF>
</metadata>
  <g
     transform="matrix(0.62911404,0,0,-0.62911404,-1683.921,9726.3225)"
     id="g20"
     style="fill:#000000;stroke:none">
    <path
       d="m 4228,13987 c -76,-26 -163,-82 -209,-135 -28,-31 -29,-36 -15,-50 13,-14 21,-9 75,40 153,142 361,168 540,67 54,-31 81,-29 68,5 -8,19 -97,65 -162,82 -81,22 -218,17 -297,-9 z"
       id="path4"
       inkscape:connector-curvature="0" />
    <path
       d="m 4964,13675 c -9,-22 2,-32 45,-39 92,-14 231,-118 288,-214 41,-68 63,-155 63,-243 0,-71 2,-79 19,-79 49,0 34,188 -24,306 -63,130 -171,223 -303,264 -77,24 -81,24 -88,5 z"
       id="path6"
       inkscape:connector-curvature="0" />
    <path
       d="m 2860,13613 c -140,-3 -165,-9 -154,-37 3,-8 105,-10 345,-8 372,4 503,-6 699,-54 124,-29 160,-31 160,-6 0,15 -22,23 -130,46 -72,15 -174,34 -228,42 -103,15 -450,24 -692,17 z"
       id="path8"
       inkscape:connector-curvature="0" />
    <path
       d="m 4326,13524 c -326,-79 -487,-467 -313,-755 l 34,-56 -321,-6 c -342,-7 -370,-9 -798,-78 -230,-37 -258,-44 -258,-60 0,-26 10,-25 293,21 375,61 465,69 802,76 l 312,7 54,-40 c 103,-77 203,-113 316,-113 143,0 261,49 364,150 102,101 148,212 149,360 0,143 -48,258 -150,360 -129,129 -305,177 -484,134 z m 217,-39 c 176,-37 315,-173 362,-352 38,-147 -4,-298 -118,-419 -287,-307 -797,-105 -797,315 0,233 158,419 390,461 67,12 89,11 163,-5 z"
       id="path10"
       inkscape:connector-curvature="0" />
    <path
       d="m 3841,13422 c -59,-60 -113,-156 -130,-232 -12,-50 -13,-201 -2,-240 9,-31 47,-36 43,-5 -1,11 -5,52 -8,90 -11,126 37,255 132,355 54,57 68,90 38,90 -9,0 -41,-26 -73,-58 z"
       id="path12"
       inkscape:connector-curvature="0" />
    <path
       d="m 5776,13412 c -3,-6 1,-28 9,-51 36,-104 25,-243 -30,-352 -39,-77 -136,-169 -217,-208 -38,-18 -68,-38 -68,-47 0,-45 147,23 230,106 65,65 122,170 140,257 14,67 8,201 -11,258 -13,38 -41,57 -53,37 z"
       id="path14"
       inkscape:connector-curvature="0" />
    <path
       d="m 2777,13043 c -4,-3 -7,-12 -7,-20 0,-11 74,-13 405,-13 398,0 405,0 405,20 0,20 -7,20 -398,20 -219,0 -402,-3 -405,-7 z"
       id="path16"
       inkscape:connector-curvature="0" />
    <path
       d="m 5575,12648 c -2,-7 -9,-36 -15,-65 -25,-110 -120,-230 -227,-285 -65,-34 -86,-68 -42,-68 66,0 213,126 267,228 34,63 67,176 57,192 -9,14 -35,12 -40,-2 z"
       id="path18"
       inkscape:connector-curvature="0" />
  </g>
</svg>
