<?xml version="1.0" encoding="UTF-8" standalone="no"?>
<svg
   xmlns:dc="http://purl.org/dc/elements/1.1/"
   xmlns:cc="http://creativecommons.org/ns#"
   xmlns:rdf="http://www.w3.org/1999/02/22-rdf-syntax-ns#"
   xmlns:svg="http://www.w3.org/2000/svg"
   xmlns="http://www.w3.org/2000/svg"
   xmlns:sodipodi="http://sodipodi.sourceforge.net/DTD/sodipodi-0.dtd"
   xmlns:inkscape="http://www.inkscape.org/namespaces/inkscape"
   version="1.0"
   width="948.40826pt"
   height="1156.2751pt"
   viewBox="0 0 948.40823 1156.2752"
   preserveAspectRatio="xMidYMid meet"
   id="svg10"
   sodipodi:docname="quizmob.svg"
   inkscape:version="0.92.4 (fd57863, 2020-04-02)">
  <defs
     id="defs14" />
  <sodipodi:namedview
     pagecolor="#ffffff"
     bordercolor="#666666"
     borderopacity="1"
     objecttolerance="10"
     gridtolerance="10"
     guidetolerance="10"
     inkscape:pageopacity="0"
     inkscape:pageshadow="2"
     inkscape:window-width="1366"
     inkscape:window-height="713"
     id="namedview12"
     showgrid="false"
     inkscape:zoom="0.13828125"
     inkscape:cx="-1302.2287"
     inkscape:cy="980.77217"
     inkscape:window-x="0"
     inkscape:window-y="27"
     inkscape:window-maximized="1"
     inkscape:current-layer="svg10" />
  <metadata
     id="metadata2">
Created by potrace 1.15, written by Peter Selinger 2001-2017
<rdf:RDF>
  <cc:Work
     rdf:about="">
    <dc:format>image/svg+xml</dc:format>
    <dc:type
       rdf:resource="http://purl.org/dc/dcmitype/StillImage" />
    <dc:title />
  </cc:Work>
</rdf:RDF>
</metadata>
  <g
     transform="matrix(0.06620567,0,0,-0.07818973,-130.11068,1264.4076)"
     id="g8"
     style="fill:#000000;stroke:none">
    <path
       d="m 6407,14425 c -388,-74 -755,-352 -934,-710 -179,-355 -175,-747 11,-1141 135,-286 335,-444 562,-444 161,0 421,85 557,182 16,11 32,17 37,12 4,-5 24,-61 45,-124 63,-192 108,-261 204,-313 127,-69 356,-91 516,-48 154,41 315,161 415,310 85,126 170,332 234,562 l 23,84 6,-65 c 3,-36 13,-171 22,-300 29,-433 81,-566 239,-612 235,-68 575,128 795,459 l 51,77 v -39 c 0,-46 32,-188 55,-242 9,-21 27,-50 41,-65 l 26,-26 -24,-7 c -12,-4 -51,-21 -85,-37 -45,-21 -63,-35 -63,-49 0,-28 25,-24 125,21 82,36 97,40 176,40 93,0 185,22 271,66 41,21 62,24 150,24 133,0 215,-14 285,-48 85,-41 88,-50 53,-155 -36,-106 -37,-127 -9,-127 23,0 39,32 72,148 l 21,77 167,-67 c 91,-37 276,-101 410,-142 314,-95 436,-115 427,-68 -2,11 -25,19 -83,29 -140,23 -511,139 -745,233 -85,34 -157,63 -158,65 -2,2 4,45 13,97 22,126 31,454 16,648 -26,339 -116,876 -180,1068 -27,80 -27,82 -7,82 11,0 180,11 376,25 195,14 405,26 465,27 102,3 110,4 110,23 0,19 -8,20 -305,23 -313,3 -492,-7 -615,-34 -38,-9 -127,-21 -197,-28 -70,-6 -130,-14 -134,-18 -3,-4 -4,-14 -1,-23 5,-12 25,-15 102,-15 80,0 98,-3 114,-19 81,-81 132,-539 100,-906 -27,-314 -109,-539 -257,-705 l -50,-55 -36,18 c -51,24 -66,22 -66,-8 0,-18 7,-26 25,-31 14,-3 25,-10 25,-14 0,-18 -79,-57 -130,-64 -30,-4 -110,-21 -177,-38 -116,-29 -124,-30 -148,-14 -14,9 -34,34 -45,56 -25,49 -56,182 -64,275 -6,66 -4,76 33,166 22,52 53,140 68,194 27,97 28,108 27,345 0,269 -10,349 -77,630 -28,117 -35,135 -53,138 -28,4 -31,-16 -33,-203 -1,-82 -6,-283 -11,-445 -5,-162 -10,-394 -10,-516 v -220 l -42,-70 c -124,-207 -287,-369 -453,-451 -131,-65 -232,-82 -329,-54 -127,37 -173,163 -201,544 -29,398 -35,592 -22,654 7,36 11,143 11,278 0,180 -4,236 -20,310 -17,76 -23,90 -41,93 -13,2 -22,-3 -25,-15 -2,-10 0,-169 4,-353 5,-184 6,-359 3,-388 -7,-71 -75,-333 -119,-458 -120,-343 -286,-549 -511,-633 -161,-60 -396,-42 -535,41 -74,45 -105,95 -166,272 l -51,149 71,57 c 111,89 276,267 349,376 147,221 229,458 214,620 -14,146 -73,291 -156,385 -37,42 -54,73 -76,139 -63,194 -159,344 -269,419 -103,70 -255,95 -409,66 z m 246,-50 c 32,-8 77,-25 100,-36 62,-32 157,-134 199,-214 41,-79 81,-175 75,-182 -3,-2 -38,20 -79,50 -147,105 -371,201 -528,226 -202,33 -391,-12 -538,-129 -110,-86 -221,-256 -277,-424 -31,-92 -80,-337 -95,-473 -13,-118 0,-284 26,-336 74,-146 215,-162 637,-73 92,20 183,36 203,36 77,0 122,-66 198,-289 25,-73 46,-137 46,-140 0,-10 -146,-96 -214,-126 -164,-72 -350,-101 -466,-71 -85,22 -140,55 -222,134 -110,106 -183,228 -250,422 -95,271 -101,509 -21,764 62,200 146,332 317,501 198,196 389,304 631,355 111,23 184,24 258,5 z m -154,-225 c 177,-50 341,-135 485,-250 l 81,-65 16,-90 c 9,-50 20,-120 24,-157 6,-58 9,-68 26,-68 29,0 31,14 16,129 -13,103 -13,103 6,80 67,-81 124,-277 114,-394 -23,-272 -239,-619 -539,-869 -57,-48 -58,-48 -67,-25 -5,13 -28,78 -51,144 -63,178 -99,238 -161,270 -43,23 -94,18 -308,-25 -227,-46 -349,-62 -401,-54 -54,9 -132,55 -152,90 -24,42 -41,188 -33,284 9,95 49,321 77,425 87,327 290,549 548,599 58,11 247,-3 319,-24 z m 2810,-853 c 16,-141 14,-391 -4,-483 -14,-76 -61,-234 -72,-244 -6,-6 3,598 14,870 l 7,175 22,-111 c 12,-61 27,-154 33,-207 z m 972,-561 c 19,-247 -1,-690 -33,-721 -3,-3 -29,5 -59,18 -30,13 -107,46 -171,72 l -117,48 46,51 c 171,191 250,443 269,861 l 8,160 22,-165 c 12,-91 28,-236 35,-324 z"
       id="path4"
       inkscape:connector-curvature="0" />
    <path
       d="m 13012,13980 c -35,-5 -148,-25 -250,-44 -301,-57 -413,-73 -672,-100 -428,-45 -879,-68 -917,-48 -26,14 -219,27 -267,18 -31,-6 -37,-11 -34,-29 5,-35 155,-49 453,-42 510,11 976,61 1470,156 159,31 237,41 323,42 l 113,2 31,-34 c 27,-30 30,-39 26,-82 -11,-106 -123,-262 -294,-405 -152,-128 -579,-447 -759,-567 -263,-176 -710,-430 -931,-527 -61,-28 -176,-75 -254,-105 -151,-59 -215,-89 -224,-104 -23,-36 45,-55 235,-65 52,-3 222,-21 377,-41 579,-73 881,-95 1407,-102 241,-3 424,-2 445,4 77,21 21,61 -120,87 -192,35 -286,40 -780,41 -362,1 -510,4 -550,14 -30,7 -120,16 -200,21 -80,5 -205,14 -279,20 -77,7 -137,8 -142,3 -5,-5 -41,-6 -81,-2 -40,4 -104,8 -142,8 -44,1 -66,5 -60,10 5,6 72,34 149,64 288,113 453,195 801,397 319,187 592,374 974,670 277,215 379,322 449,471 52,107 34,216 -42,256 -38,20 -161,26 -255,13 z m -177,-2000 c 319,-19 290,-30 -70,-25 -373,5 -559,15 -510,26 47,10 392,10 580,-1 z"
       id="path6"
       inkscape:connector-curvature="0" />
  </g>
  <path
     style="fill:#000000;fill-opacity:1;fill-rule:evenodd;stroke:#000000;stroke-width:1.59059536;stroke-linejoin:bevel;stroke-miterlimit:4;stroke-dasharray:none;stroke-dashoffset:0;stroke-opacity:1"
     id="path847"
     d="m 710.23499,514.07579 c 3.36059,-10.12933 8.53613,-19.13299 14.25457,-27.65613 9.171,-13.58611 22.10793,-22.71292 36.60151,-28.28258 5.31933,4.80259 5.79892,12.63105 5.48329,19.86436 -0.52554,5.95684 -1.59854,11.82193 -2.24295,17.7606 -0.56103,2.73769 -0.0623,5.10418 0.60505,7.72319 0.9008,3.56161 0.91621,7.09579 0.44075,10.73182 -1.0846,7.24726 -5.58302,12.31788 -10.26245,16.83103 -11.93896,8.59504 -21.89907,18.24793 -35.10943,21.58262 -1.70075,0.42933 -3.0433,1.05917 -4.71089,-0.048 -0.9908,-0.65784 -1.72284,-1.73458 -2.58422,-2.60189 -6.77464,-8.15038 -7.5701,-19.14429 -7.84132,-29.86596 0.4403,-8.69049 0.81546,-17.51109 2.39177,-26.04989 1.46938,-4.7517 3.23428,-9.25072 4.09745,-14.22286 0.79551,-6.1692 2.66353,-11.96423 4.5753,-17.75745 1.89406,-5.84017 5.29535,-10.72403 8.60729,-15.55872 5.13128,-8.11824 11.39585,-15.0986 17.68285,-21.99649 6.26398,-7.18151 12.84344,-13.8573 20.29255,-19.34139 10.94897,-6.49293 25.46753,-21.51447 40.22291,-22.81046 1.53222,-0.13458 6.76426,0.13613 8.28057,0.20007 7.09054,0.0518 14.03167,1.16039 20.99983,2.51169 5.85941,0.52477 10.6554,3.57691 15.26548,7.55566 6.89973,6.78557 13.55508,13.73647 18.94668,22.1728 2.95309,5.20343 6.61563,10.03626 8.20521,16.06843 1.05353,4.70136 2.57629,9.22311 3.60826,13.93063 1.3703,8.43026 0.66674,16.96817 0.18582,25.44829 -1.24104,9.86975 -3.9865,19.5156 -6.67164,28.99171 -2.3266,7.79113 -6.00628,14.85913 -9.58956,21.93468 -7.4523,13.33173 -21.36922,27.13041 -35.46614,24.13201 -3.50985,-2.30463 -7.50245,-5.45162 -9.87286,-9.3514 -0.7727,-1.27118 -1.3067,-2.71491 -1.96003,-4.0724 -4.23443,-9.32739 -4.89015,-19.44286 -4.20903,-29.73916 1.00427,-6.91511 2.34908,-13.78723 4.15723,-20.48388 0.95408,-3.49511 1.72241,-7.29114 3.68351,-10.25616 25.31595,-16.97679 21.22955,-24.38911 37.24562,-14.36908 0.58259,0.37551 1.10187,0.93337 1.74781,1.12657 1.44059,0.43087 3.44817,-1.06023 4.91099,-1.00206 2.41261,0.096 4.12251,1.0624 6.3728,1.99692 6.30823,3.04648 11.18261,8.72363 13.50356,16.10792 1.25029,5.22948 1.27616,10.80761 0.22188,16.08356 -0.68013,3.23241 -2.57844,5.2008 -4.59163,7.35125 -1.7259,1.98493 -3.41059,4.01758 -5.07487,6.07136 -0.18287,0.30048 -0.27464,0.71489 -0.54863,0.90147 -9.26658,6.30991 -18.27381,13.22268 -27.99775,18.53661 -9.29933,5.08191 17.8132,-11.89212 26.71982,-17.83822 0,0 -29.60395,13.78419 -29.60395,13.78419 v 0 c 9.2823,-6.30548 19.53239,-11.01345 27.84692,-18.91651 7.73445,-7.35169 -37.80186,20.07193 -25.85993,17.68346 1.76604,-2.05217 3.50178,-4.13808 5.23293,-6.22937 0.66741,-0.82385 1.2159,-1.80241 2.00307,-2.4707 1.21182,-1.02877 2.47757,-1.60224 3.11633,-3.41089 2.0197,-4.09494 1.87763,-9.55733 1.07854,-14.01367 -1.91628,-6.48231 -6.07226,-11.20925 -11.79706,-13.26669 -1.03712,-0.23754 -2.05785,-0.60897 -3.11136,-0.71259 -3.74098,-0.36788 -7.27463,1.32304 -10.53227,-1.83385 -1.74998,-1.01343 -3.61872,-2.27235 -5.65037,-2.26977 -1.12594,0.002 -3.0332,1.5058 -2.05475,0.84482 8.79909,-5.94424 17.62236,-11.84067 26.43354,-17.76102 -3.12576,1.30664 -3.95875,4.91449 -4.81754,8.38011 -1.89189,6.58285 -3.53658,13.23704 -4.8417,20.01766 -1.06465,9.88032 -0.7996,18.66455 3.36305,27.67706 2.38179,4.29163 5.95792,9.38362 10.65181,10.03818 1.6739,-0.2519 0.86456,0.0414 2.41559,-0.92409 -8.55877,5.82329 -17.11753,11.64657 -25.67633,17.46989 -0.32453,0.22098 4.49947,-3.58164 4.27868,-4.61597 3.73806,-6.93026 7.58241,-13.82865 10.2305,-21.43635 2.87162,-9.13975 5.20061,-18.63634 6.92722,-28.12862 0.6485,-8.05208 1.21654,-16.17451 -0.15058,-24.17942 -0.93911,-4.69787 -2.50983,-9.14071 -3.65558,-13.76944 -1.18235,-5.68886 -4.39758,-10.45679 -7.07718,-15.30674 -5.11025,-8.17742 -11.60804,-15.00282 -18.60129,-21.01593 -4.52894,-3.3571 -9.24177,-5.50404 -14.64286,-6.14839 -6.75174,-1.42107 -13.54919,-2.24463 -20.42374,-2.28838 -3.46856,0.0228 -4.58727,-0.12864 -8.01149,0.52074 -11.41906,2.16558 -31.28624,18.69599 13.58452,-11.83342 -7.66329,5.12105 -14.50769,11.37227 -20.6844,18.7227 -6.21549,6.65675 -12.50191,13.28949 -17.48511,21.27 -3.06676,4.75064 -6.55379,9.16318 -8.84868,14.52371 -1.83724,5.61437 -4.09725,11.0527 -4.75395,17.08289 -0.65117,5.1315 -1.74575,9.99501 -4.03586,14.50567 -2.14919,8.27816 -2.91433,17.01137 -3.5018,25.59044 0.15548,9.46947 0.51767,19.67315 7.02063,26.51228 0.61784,0.30781 1.19137,0.785 1.85352,0.92341 7.08487,1.48105 46.43621,-29.72683 -14.99558,13.01623 4.53969,-3.58849 9.32734,-7.82415 10.96988,-14.15649 0.45464,-3.13444 0.799,-6.08302 -0.007,-9.2133 -0.70474,-3.0371 -1.83686,-5.98467 -1.07097,-9.16202 0.82862,-5.95003 1.91194,-11.84348 2.78671,-17.78474 0.10741,-1.29538 0.29587,-2.58517 0.3223,-3.88612 0.0145,-0.72239 -0.96955,-11.7986 -2.82646,-9.31392 -8.15127,5.4719 16.2358,-11.07551 24.38841,-16.54474 0.56053,-0.37604 -1.08546,0.8201 -1.60814,1.26293 -2.26545,1.91953 -4.09375,4.29889 -5.93311,6.74029 -5.8156,7.87778 -11.2403,16.1791 -14.26016,26.05424 0,0 -28.56146,15.66121 -28.56146,15.66121 z"
     inkscape:connector-curvature="0" />
  <text
     xml:space="preserve"
     style="font-style:normal;font-weight:normal;font-size:75.00969696px;line-height:1.25;font-family:sans-serif;letter-spacing:0px;word-spacing:0px;fill:#000000;fill-opacity:1;stroke:none;stroke-width:1.87524259"
     x="276.39923"
     y="462.30774"
     id="text819"><tspan
       sodipodi:role="line"
       id="tspan817"
       x="276.39923"
       y="462.30774"
       style="stroke-width:1.87524259">TRY WITH</tspan><tspan
       sodipodi:role="line"
       x="276.39923"
       y="556.06989"
       style="stroke-width:1.87524259"
       id="tspan823">SOUND ON</tspan></text>
</svg>
