<?xml version="1.0" encoding="UTF-8" standalone="no"?>
<!-- Created with Inkscape (http://www.inkscape.org/) -->

<svg
   xmlns:dc="http://purl.org/dc/elements/1.1/"
   xmlns:cc="http://creativecommons.org/ns#"
   xmlns:rdf="http://www.w3.org/1999/02/22-rdf-syntax-ns#"
   xmlns:svg="http://www.w3.org/2000/svg"
   xmlns="http://www.w3.org/2000/svg"
   xmlns:sodipodi="http://sodipodi.sourceforge.net/DTD/sodipodi-0.dtd"
   xmlns:inkscape="http://www.inkscape.org/namespaces/inkscape"
   width="435.59903mm"
   height="273.82565mm"
   viewBox="0 0 435.59903 273.82566"
   version="1.1"
   id="svg8"
   inkscape:version="0.92.4 (fd57863, 2020-04-02)"
   sodipodi:docname="streamit.svg">
  <defs
     id="defs2" />
  <sodipodi:namedview
     id="base"
     pagecolor="#ffffff"
     bordercolor="#666666"
     borderopacity="1.0"
     inkscape:pageopacity="0.0"
     inkscape:pageshadow="2"
     inkscape:zoom="0.35"
     inkscape:cx="708.31195"
     inkscape:cy="490.14337"
     inkscape:document-units="mm"
     inkscape:current-layer="layer1"
     showgrid="false"
     inkscape:window-width="1366"
     inkscape:window-height="713"
     inkscape:window-x="0"
     inkscape:window-y="27"
     inkscape:window-maximized="1" />
  <metadata
     id="metadata5">
    <rdf:RDF>
      <cc:Work
         rdf:about="">
        <dc:format>image/svg+xml</dc:format>
        <dc:type
           rdf:resource="http://purl.org/dc/dcmitype/StillImage" />
        <dc:title></dc:title>
      </cc:Work>
    </rdf:RDF>
  </metadata>
  <g
     inkscape:label="Layer 1"
     inkscape:groupmode="layer"
     id="layer1"
     transform="translate(200.25872,-4.6914486)">
    <path
       style="fill:none;stroke:#000000;stroke-width:0.26458332px;stroke-linecap:butt;stroke-linejoin:miter;stroke-opacity:1"
       d="m -181.42857,30.904762 c 1.4639,4.216775 2.62978,8.53876 3.77976,12.85119 0.5354,2.007754 1.26912,3.983937 1.51191,6.047619 0.26498,2.252323 0.16157,4.541477 0,6.803572 -0.81876,11.462575 -0.73738,11.836577 -3.02381,20.410712 -0.57968,3.405931 -2.12201,6.520794 -3.02381,9.827382 -0.33807,1.239599 -0.50397,2.519841 -0.75595,3.779763 -0.25199,1.25992 -0.59659,2.504811 -0.75596,3.779761 -0.0938,0.750115 0.14826,1.526585 0,2.267857 -0.1105,0.552511 -0.75595,0.948452 -0.75595,1.511904 0,1.038957 0.62709,1.992878 0.75595,3.023808 0.12502,1.00015 -0.0773,2.01884 0,3.02381 0.17501,2.27509 0.58095,4.52848 0.75596,6.80357 0.0773,1.00497 -0.12502,2.02366 0,3.02381 0.12886,1.03094 0.50396,2.01588 0.75595,3.02381 0.25198,1.00794 0.50397,2.01587 0.75595,3.02381 0.25199,1.00794 0.17964,2.15935 0.75595,3.02381 0.19768,0.29651 0.45945,-0.55828 0.75596,-0.75595 0.46882,-0.31255 1.00793,-0.50397 1.5119,-0.75595 0.50397,-0.25199 0.98875,-0.54669 1.5119,-0.75596 3.09403,-1.23761 3.34638,-0.92447 7.55953,-0.75595 4.53908,0.18156 9.06733,0.59382 13.60714,0.75595 11.38298,0.40654 3.75471,-0.15783 15.11905,-0.75595 2.26472,-0.1192 4.53716,0.0809 6.80357,0 4.79127,-0.17111 9.57182,-0.58484 14.3631,-0.75595 2.26641,-0.0809 4.53962,0.13317 6.80357,0 2.02805,-0.1193 4.03174,-0.50397 6.04762,-0.75595 2.01587,-0.25199 4.03647,-0.46865 6.04761,-0.75596 1.517358,-0.21676 3.005605,-0.66594 4.53572,-0.75595 7.916785,-0.46569 6.649413,-0.19816 12.85119,0.75595 1.761078,0.27094 3.555498,0.3553 5.291667,0.75596 1.552874,0.35835 2.982838,1.15355 4.535712,1.5119 1.736167,0.40066 3.515119,0.6193 5.291667,0.75595 4.780203,0.36771 9.572312,0.57169 14.363096,0.75596 3.273372,0.12589 6.551586,0 9.827379,0 1.511906,0 3.023812,0 4.535715,0 0.251984,0 0.643263,0.22538 0.755952,0 0.590619,-1.18124 -0.434949,-2.0608 -0.755952,-3.02381 -0.07968,-0.23906 0.04143,-0.5074 0,-0.75596 -0.21123,-1.26739 -0.532659,-2.51444 -0.755951,-3.77976 -0.532744,-3.01887 -1.033799,-6.04342 -1.511906,-9.07143 -0.262194,-1.66056 -1.425498,-9.956777 -1.511903,-11.339281 -0.125749,-2.011947 0,-4.031747 0,-6.047621 0,-6.803569 0,-13.607142 0,-20.410712 0,-6.047621 0,-12.095239 0,-18.142857 0,-1.76389 0.09271,-3.530216 0,-5.291667 -0.159481,-3.030098 -0.577774,-6.042374 -0.755955,-9.07143 -0.118374,-2.012394 0,-4.031744 0,-6.047618 0,-0.503968 0.159369,-1.033798 0,-1.511903 -0.112688,-0.338074 -0.596582,-0.437216 -0.755951,-0.755954 -0.112692,-0.225381 0.112691,-0.530571 0,-0.755952 -0.343797,-0.687596 -2.872132,-2.154098 -3.023809,-2.267857 -0.285089,-0.213816 -0.417881,-0.643262 -0.755952,-0.755953 -0.478107,-0.159368 -1.007938,0 -1.511906,0 -1.511903,0 -3.027651,-0.107718 -4.535715,0 -2.77618,0.198299 -5.536504,0.601566 -8.315476,0.755953 -1.761172,0.09784 -3.541397,-0.218784 -5.291666,0 -2.305238,0.288155 -4.493157,1.268703 -6.80357,1.511904 -2.505996,0.263789 -5.040839,-0.07632 -7.559524,0 -5.79845,0.175711 -11.588303,0.585406 -17.386906,0.755953 -2.770626,0.08149 -5.554066,0.240122 -8.315476,0 -21.98196,-1.911475 3.21067,-1.28702 -17.3869,-2.267857 -7.18249,-0.342024 -13.08546,0.291028 -20.41072,1.511904 -3.2309,0.538485 -6.07791,1.826404 -9.07143,3.023811 -1.25992,0.503967 -2.56604,0.905047 -3.77976,1.511903 -0.81262,0.406312 -1.43762,1.142912 -2.26786,1.511906 -2.27888,1.012835 -4.35271,1.862026 -6.80357,1.511906 -1.02851,-0.146931 -2.12174,-0.240488 -3.02381,-0.755955 -0.92822,-0.53041 -1.5119,-1.511903 -2.26785,-2.267857 -0.75596,-0.755952 -1.58345,-1.446567 -2.26786,-2.267855 -0.58164,-0.697962 -0.98383,-1.528548 -1.51191,-2.267859 -0.73231,-1.025239 -1.61963,-1.943436 -2.26785,-3.023809 -0.12965,-0.216075 -0.25199,-0.755952 0,-0.755952 0.35636,0 0.50396,0.503968 0.75595,0.755952"
       id="path821"
       inkscape:connector-curvature="0" />
    <path
       style="fill:none;stroke:#000000;stroke-width:0.26458332px;stroke-linecap:butt;stroke-linejoin:miter;stroke-opacity:1"
       d="m -158.75,116.32738 c 0.25199,-1.25992 0.38675,-2.54908 0.75595,-3.77976 0.38993,-1.29975 1.04817,-2.50449 1.51191,-3.77977 0.54463,-1.49773 1.00793,-3.0238 1.5119,-4.53571 1.25992,-3.27579 2.56643,-6.534047 3.77977,-9.827379 4.52904,-12.293116 -1.2836,2.453045 3.02381,-8.315476 0.50396,-1.259922 0.7395,-2.664068 1.5119,-3.779763 0.19278,-0.278461 5.7136,-6.777207 7.55952,-8.315476 0.69797,-0.581633 1.55841,-0.944343 2.26786,-1.511903 0.55654,-0.445233 0.94173,-1.084276 1.51191,-1.511906 0.80771,-0.605785 2.98118,-1.294109 3.77976,-1.511903 3.00704,-0.820105 6.07448,-1.411589 9.07143,-2.267858 0.76618,-0.218911 1.50167,-0.537043 2.26785,-0.755954 2.99695,-0.856268 6.04762,-1.511903 9.07143,-2.267855 1.00794,-0.251986 1.99288,-0.627086 3.02381,-0.755954 1.00015,-0.125018 2.02204,0.111307 3.02381,0 1.27701,-0.141891 2.49489,-0.755952 3.77976,-0.755952 5.530482,0 4.585335,0.775801 8.315479,2.267858 3.013445,1.205378 6.329923,1.95209 9.071427,3.779761 0.593019,0.395345 0.918887,1.11656 1.511906,1.511905 0.937644,0.625094 2.04538,0.952802 3.023809,1.511904 0.788834,0.450762 1.497415,1.03038 2.267857,1.511905 1.245971,0.778733 2.584138,1.413841 3.779761,2.267858 0.579964,0.414258 0.955366,1.066673 1.511906,1.511903 1.188503,0.950804 2.937335,1.619769 3.779761,3.023812 0.409974,0.683286 0.360608,1.576001 0.755954,2.267855 0.625094,1.093917 1.642761,1.929892 2.267855,3.023812 0.582414,1.01922 1.217332,4.407945 1.511906,5.291666 1.206714,3.620146 0.755951,-1.210188 0.755951,4.535713 0,1.259922 0,2.519841 0,3.779763 -0.251983,0.251984 -0.64326,0.41788 -0.755951,0.755951 -0.0011,0.0034 7.94e-4,2.267133 0,2.267853 -0.178181,0.17818 -0.503968,0 -0.755952,0"
       id="path825"
       inkscape:connector-curvature="0" />
    <path
       style="fill:none;stroke:#000000;stroke-width:0.26458332px;stroke-linecap:butt;stroke-linejoin:miter;stroke-opacity:1"
       d="m -119.44047,67.190476 c -1.39556,-0.830704 -3.08199,0.415351 -4.53572,0 -1.30476,-0.37279 -2.50918,-1.035439 -3.77976,-1.511906 -0.74611,-0.279791 -1.52801,-0.460012 -2.26786,-0.755951 -1.45283,-0.581134 -2.44865,-1.380453 -3.77976,-2.267858 -2.5776,-1.7184 -3.00026,-1.78603 -5.29167,-4.535715 -1.38535,-1.662416 -0.39459,-1.217001 -0.75595,-3.023809 -0.15627,-0.78137 -0.75595,-1.471012 -0.75595,-2.267857 0,-0.796843 0.50397,-1.511904 0.75595,-2.267858 0.93413,-2.802395 0.39959,-1.555136 1.51191,-3.779761 0.25198,-0.503967 0.41788,-1.061143 0.75595,-1.511905 0.97107,-1.294763 2.42726,-2.212311 3.77976,-3.023809 0.48316,-0.289894 1.02875,-0.466059 1.51191,-0.755952 0.77906,-0.467442 1.43277,-1.154012 2.26785,-1.511906 0.95496,-0.409265 2.03817,-0.427405 3.02381,-0.755952 1.28734,-0.429114 2.45291,-1.227579 3.77976,-1.511903 4.17708,-0.895088 6.66342,-0.755954 10.58334,-0.755954 1.25992,0 2.51984,0 3.77976,0 1.5119,0 3.02903,-0.125555 4.53571,0 1.52747,0.127288 3.01836,0.539189 4.535716,0.755954 2.011143,0.287306 4.024403,0.572021 6.047621,0.755952 0.752845,0.06844 1.526585,-0.148254 2.267855,0 0.552513,0.1105 0.956119,0.663321 1.511906,0.755951 0.994222,0.165704 2.035447,-0.197672 3.023809,0 0.34944,0.06989 0.477684,0.533337 0.755952,0.755952 0.983834,0.787067 2.055913,1.461278 3.023811,2.267858 0.547524,0.456271 1.007936,1.007938 1.511904,1.511905 0.251983,0.251984 0.596585,0.437214 0.755951,0.755952 0.112691,0.225383 -0.07968,0.516901 0,0.755952 0.178181,0.53454 0.67627,0.954114 0.755954,1.511905 0.397627,2.783383 -0.0223,4.235842 -0.755954,6.803573 -0.218908,0.766183 -0.624951,1.481854 -0.755951,2.267855 -0.124278,0.745667 0.265432,1.560039 0,2.267857 -1.291887,3.445031 -4.293148,5.805054 -6.80357,8.315476 -0.201875,0.201874 -3.965562,4.155612 -4.535715,4.535715 -0.209664,0.139777 -0.503968,0 -0.755952,0 -0.50397,0 -1.007938,0 -1.511906,0 -2.063239,0 -0.789572,0.09359 -4.535715,-1.511903 -2.026836,-0.868646 -0.818956,-0.755954 -2.267856,-0.755954"
       id="path827"
       inkscape:connector-curvature="0" />
    <path
       style="fill:none;stroke:#000000;stroke-width:0.26458332px;stroke-linecap:butt;stroke-linejoin:miter;stroke-opacity:1"
       d="m 15.119047,38.464286 c 2.644119,8.15863 -0.113992,1.583904 0.755953,6.80357 0.131,0.786003 0.643261,1.479023 0.755952,2.267857 0.142544,0.997807 -0.125019,2.023658 0,3.023809 0.71904,5.752314 1.171281,0.158316 0.755953,6.803573 -0.892834,14.285341 -0.755953,3.107219 -0.755953,12.85119 0,1.25992 0.156274,2.52957 0,3.779761 -0.09884,0.790692 -0.562689,1.494806 -0.755952,2.267858 -0.06111,0.244461 -0.225382,0.643263 0,0.755951 0.450763,0.225383 1.007936,0 1.511905,0 2.12488,0 1.901166,0.122232 4.535714,-0.755951 0.534539,-0.178179 0.988751,-0.54669 1.511905,-0.755952 2.532832,-1.013135 3.024703,-0.840147 6.047618,-1.511906 1.014217,-0.22538 1.991969,-0.634558 3.023809,-0.755952 3.262969,-0.383878 6.556711,-0.44446 9.827382,-0.755951 2.022409,-0.192611 4.020015,-0.629227 6.047618,-0.755954 2.011947,-0.125746 4.031747,0 6.047621,0 1.511903,0 3.029032,-0.125556 4.535712,0 1.527466,0.127288 3.026278,0.489582 4.535715,0.755954 2.7744,0.489598 5.519963,1.162465 8.315476,1.511903 1.250191,0.156274 2.526093,-0.125367 3.779763,0 2.556989,0.255699 5.002533,1.256207 7.559522,1.511906 1.25367,0.125368 2.519841,0 3.779763,0 3.023809,0.251984 6.055696,0.42087 9.071427,0.755952 3.991637,0.443515 4.47174,1.183034 8.31548,0.755951 1.0326,-0.114734 2.01587,-0.503968 3.02381,-0.755951 6.11601,-1.529004 2.03817,-0.427406 12.09523,-3.779761 1.51191,-0.503971 2.98284,-1.153549 4.53572,-1.511906 1.73617,-0.400653 3.53411,-0.463026 5.29167,-0.755952 1.26738,-0.211232 2.49773,-0.670483 3.77976,-0.755951 2.51426,-0.167619 5.04608,0.17953 7.55952,0 2.88024,-0.205732 2.62293,-1.289701 5.29167,-0.755954 1.14644,0.229287 1.67851,1.428604 3.02381,0.755954 0.22538,-0.112692 -0.17818,-0.577773 0,-0.755954 0.17818,-0.178179 0.64326,0.225382 0.75595,0 0.22538,-0.450763 -0.0829,-1.014794 0,-1.511904 0.1708,-1.024821 0.67627,-1.987912 0.75595,-3.023809 0.17394,-2.261179 0,-4.535715 0,-6.803572 0,-1.511906 0.12556,-3.029032 0,-4.535715 -0.12729,-1.527464 -0.61718,-3.009249 -0.75595,-4.535713 -0.30978,-3.407597 0.57026,-9.49557 0.75595,-12.095239 0.0539,-0.75403 0,-1.511906 0,-2.267857 0,-0.503968 0.35636,-1.155544 0,-1.511903 -1.06191,-1.061916 -1.72572,0.394525 -2.26786,0.755951 -0.46882,0.312547 -0.95611,0.663321 -1.5119,0.755952 -0.99422,0.165703 -2.01587,0 -3.02381,0 -1.25992,0 -2.51984,0 -3.77976,0 -8.56746,0 -17.13492,0 -25.70238,0 -4.7877,0 -9.57824,0.164994 -14.363096,0 -4.791477,-0.165225 -9.580131,-0.426093 -14.363097,-0.755952 -21.399513,-2.139952 5.346197,0.281379 -14.363094,-0.755951 -2.528908,-0.133102 -5.031015,-0.615482 -7.559524,-0.755955 -2.01277,-0.111821 -4.033649,0.08756 -6.047618,0 -19.700025,-0.856522 -4.816332,-0.755951 -15.875,-0.755951 -1.259922,0 -2.519841,0 -3.779763,0 -1.25992,0 -2.532505,-0.178181 -3.779761,0 -3.804785,0.543541 -10.739121,2.270731 -14.363095,4.535715 -1.540884,0.963051 -3.02381,2.015871 -4.535715,3.023809 z"
       id="path835"
       inkscape:connector-curvature="0" />
    <path
       style="fill:none;stroke:#000000;stroke-width:0.26458332px;stroke-linecap:butt;stroke-linejoin:miter;stroke-opacity:1"
       d="m 101.29762,101.96428 c 0.25198,2.01588 0.75595,4.01606 0.75595,6.04762 0,1.28488 -0.63963,2.50017 -0.75595,3.77977 -0.49618,5.45791 0.37093,4.05205 0.75595,9.82738 0.13409,2.0114 -0.24018,4.0461 0,6.04762 0.73048,6.08736 2.55358,12.02987 3.02381,18.14285 0,10.47573 -0.36669,-0.29898 0.75595,7.55953 0.10691,0.74835 -0.20767,1.54099 0,2.26785 0.30959,1.08355 1.09338,1.97751 1.51191,3.02381 0.39102,0.97756 -0.73117,0.76835 0.75595,1.51191 1.43991,0.71995 0.32398,-0.46797 0.75595,-0.75595 0.66302,-0.44201 1.49481,-0.56269 2.26786,-0.75596 1.24651,-0.31162 2.52549,-0.47722 3.77976,-0.75595 3.28183,-0.72929 6.53078,-1.60854 9.82738,-2.26786 2.69663,-0.53932 9.73682,-1.24985 12.09524,-1.5119 4.53571,-0.50397 9.05433,-1.19792 13.60714,-1.51191 12.78592,-0.88178 12.49496,-0.75595 22.67857,-0.75595 2.77183,0 5.54366,0 8.31548,0 2.51984,0 5.04356,0.13978 7.55952,0 2.02844,-0.11269 4.03648,-0.46865 6.04762,-0.75595 3.28102,-0.46872 6.55814,-0.96703 9.82738,-1.51191 1.26739,-0.21123 2.50481,-0.59658 3.77976,-0.75595 0.75012,-0.0938 1.53448,0.18335 2.26786,0 0.34572,-0.0864 0.43722,-0.59658 0.75595,-0.75595 0.45077,-0.22538 1.15555,0.35636 1.51191,0 0.17818,-0.17818 -0.17818,-0.57777 0,-0.75595 0.35636,-0.35636 1.86826,0.35636 1.5119,0 -0.64243,-0.64244 -1.48879,-1.04447 -2.26785,-1.51191 -0.48316,-0.28989 -1.17384,-0.30519 -1.51191,-0.75595 -0.98175,-1.30901 -0.75595,-3.03429 -0.75595,-4.53572 0,-0.25198 0,-0.50396 0,-0.75595 0,-0.25198 0.11269,-0.53057 0,-0.75595 -0.15937,-0.31874 -0.59658,-0.43721 -0.75595,-0.75595 -0.22538,-0.45077 0.15937,-1.0338 0,-1.51191 -0.17818,-0.53454 -0.48232,-1.01935 -0.75596,-1.5119 -0.98661,-1.7759 -1.8969,-3.60131 -3.0238,-5.29167 -1.73535,-2.60301 -1.65069,-0.34694 -3.02381,-3.77976 -0.18717,-0.46792 0,-1.00793 0,-1.51191 0,-0.50396 -0.27956,-1.09257 0,-1.5119 2.87295,-4.30943 2.07083,-2.16934 5.29166,-3.77976 0.81263,-0.40631 1.4243,-1.17448 2.26786,-1.51191 0.46792,-0.18716 1.0338,0.15937 1.5119,0 0.33808,-0.11269 0.50397,-0.50396 0.75596,-0.75595 0.25198,-0.25198 0.59658,-0.43721 0.75595,-0.75595 0.11269,-0.22538 0.11269,-0.53057 0,-0.75595 -0.0649,-0.12969 -2.17395,-2.23656 -2.26786,-2.26786 -0.4781,-0.15937 -1.02298,0.12223 -1.5119,0 -1.01944,-0.25486 -3.14748,-1.90655 -3.77976,-2.26786 -0.97843,-0.5591 -1.97202,-1.10737 -3.02381,-1.5119 -4.97234,-1.91244 -6.09889,-2.20846 -10.58334,-3.02381 -1.50803,-0.27419 -3.00747,-0.6384 -4.53571,-0.75595 -1.75869,-0.13529 -3.53297,0.13528 -5.29167,0 -1.52824,-0.11756 -3.01233,-0.58669 -4.53571,-0.75596 -3.01573,-0.33508 -6.05792,-0.40142 -9.07143,-0.75595 -1.27607,-0.15012 -2.49489,-0.75595 -3.77976,-0.75595 -1.53276,0 -3.02078,0.52288 -4.53572,0.75595 -1.76108,0.27094 -3.5117,0.67505 -5.29166,0.75595 -3.77587,0.17163 -7.55953,0 -11.33929,0 -1.76389,0 -3.52778,0 -5.29167,0 -1.76388,0 -3.53387,0.14649 -5.29166,0 -1.28044,-0.1067 -2.52549,-0.47722 -3.77976,-0.75595 -1.01422,-0.22538 -1.98486,-0.75595 -3.02381,-0.75595 -1.28488,0 -2.50781,0.57424 -3.77977,0.75595 -4.04031,0.57719 1.70404,-1.07198 -3.77976,0.75595 -0.75595,0.25199 -1.5119,0.50397 -2.26785,0.75596 -0.75596,0.25198 -1.47589,0.66795 -2.26786,0.75595 -1.50266,0.16696 -3.02381,0 -4.53572,0 -0.25198,0 -0.50397,0 -0.75595,0 -0.25198,0 -0.53057,0.11269 -0.75595,0 -1.86827,-0.93413 0.26094,-0.75595 -1.51191,-0.75595"
       id="path837"
       inkscape:connector-curvature="0" />
    <path
       style="fill:none;stroke:#000000;stroke-width:0.26458332px;stroke-linecap:butt;stroke-linejoin:miter;stroke-opacity:1"
       d="m 13.607143,201.75 c 3.495609,0.24242 6.473243,-1.84859 9.827381,-2.26786 1.000153,-0.12502 2.020875,0.10029 3.023809,0 1.525154,-0.15252 3.009249,-0.61718 4.535715,-0.75595 4.023021,-0.36573 8.065889,-0.46814 12.095236,-0.75595 13.512993,-0.96522 4.434007,-0.75596 16.630954,-0.75596 2.771826,0 5.545548,-0.10259 8.315476,0 4.036843,0.14952 8.055623,0.75596 12.095237,0.75596 1.781796,0 3.514399,-0.62901 5.291666,-0.75596 1.759408,-0.12567 3.532262,0.12568 5.291667,0 1.77727,-0.12694 3.525501,-0.52046 5.291666,-0.75595 2.013741,-0.2685 4.02614,-0.5538 6.04762,-0.75595 3.01923,-0.30192 6.06375,-0.35493 9.07143,-0.75595 0.78985,-0.10532 1.48649,-0.59968 2.26786,-0.75596 0.49418,-0.0988 1.03379,0.15937 1.5119,0 0.33807,-0.11269 0.43722,-0.59658 0.75595,-0.75595 0.22538,-0.11269 0.54629,0.13978 0.75596,0 0.63471,-0.42315 3.23411,-3.5615 3.77976,-3.77976 0.70188,-0.28075 1.5119,0 2.26785,0 0.50397,0 1.0338,-0.15937 1.51191,0 5.82565,1.94188 1.87807,0.93904 7.55952,3.77976 1.71646,0.85823 3.57521,1.40963 5.29167,2.26786 0.31874,0.15937 0.75595,0.39959 0.75595,0.75595 0,0.35636 -0.50397,0.50397 -0.75595,0.75595 -0.25198,0.25199 -0.50397,0.50397 -0.75595,0.75596 -1.39268,1.39267 -2.04979,1.59902 -2.26786,3.77976 -0.17551,1.75513 0,3.52778 0,5.29167 0,1.25991 0,2.51983 0,3.77976 0,1.00793 -0.14254,2.026 0,3.02381 0.11269,0.78883 0.67666,1.47496 0.75595,2.26785 0.27581,2.75807 0,5.54365 0,8.31548 0,1.00793 -0.1657,2.02959 0,3.02381 0.21123,1.26739 0.54472,2.51237 0.75595,3.77976 0.18257,1.09541 0,2.60869 0,3.77976 0,0.25199 0,0.50397 0,0.75595 0,0.25199 0.17819,0.57778 0,0.75596 -0.17817,0.17818 -0.57777,-0.17818 -0.75595,0 -0.17818,0.17818 0.17818,0.57777 0,0.75595 -0.17818,0.17818 -0.50886,-0.0494 -0.75595,0 -1.01878,0.20375 -2.01587,0.50397 -3.02381,0.75595 -1.00794,0.25198 -1.99001,0.65257 -3.02381,0.75595 -1.5044,0.15044 -3.02381,0 -4.53571,0 -1.76389,0 -3.52891,0.063 -5.29167,0 -25.529449,-0.91176 -6.63082,-0.75595 -25.70238,-0.75595 -3.275793,0 -6.554428,-0.13637 -9.827382,0 -2.780842,0.11587 -5.542685,0.51484 -8.315476,0.75595 -3.022883,0.26286 -6.045427,0.53181 -9.071427,0.75596 -11.687087,0.86571 -8.261845,0.22434 -16.630954,1.5119 -3.029871,0.46613 -6.047618,1.00794 -9.071427,1.51191 -1.511906,0.25198 -3.013454,0.57686 -4.535715,0.75595 -2.764192,0.3252 -5.538386,0.57081 -8.315476,0.75595 -1.508556,0.10057 -3.023809,0 -4.535714,0 -0.503968,0 -1.033799,0.15937 -1.511905,0 -0.338072,-0.11269 -0.437215,-0.59658 -0.755952,-0.75595 -0.225382,-0.11269 -0.530571,0.11269 -0.755953,0 -3.146092,-1.57305 0.80814,0.0522 -0.755952,-1.51191 -0.17818,-0.17818 -0.530571,0.11269 -0.755952,0 -0.318738,-0.15937 -0.503969,-0.50397 -0.755953,-0.75595 -0.251984,-0.25198 -0.596583,-0.43721 -0.755952,-0.75595 -0.112691,-0.22538 0.178179,-0.57778 0,-0.75595 -0.17818,-0.17818 -0.643262,0.22538 -0.755953,0 -0.225381,-0.45077 0,-1.00794 0,-1.51191 0,-1.5119 0.150441,-3.03131 0,-4.53571 -0.152515,-1.52516 -0.586687,-3.01233 -0.755952,-4.53572 -1.766482,-15.89834 0.189048,-3.40143 -1.511905,-13.60714 -0.251984,-1.5119 -0.455353,-3.03272 -0.755952,-4.53571 -0.223983,-1.11992 -1.27642,-3.90376 -0.755952,-5.29167 0.515908,-1.37576 2.121655,-2.31775 2.267857,-3.77976 0.135024,-1.35024 -1.082792,-2.49242 -1.511905,-3.77976 -0.07968,-0.23906 0,-0.50397 0,-0.75596"
       id="path839"
       inkscape:connector-curvature="0" />
    <path
       style="fill:none;stroke:#000000;stroke-width:0.26458332px;stroke-linecap:butt;stroke-linejoin:miter;stroke-opacity:1"
       d="m 32.505951,61.142855 c 1.257271,-5.794599 4.346538,-10.960679 6.047621,-16.630951 0.511995,-1.706652 0.463026,-3.534114 0.755952,-5.291667 0.21123,-1.267388 0.444325,-2.533253 0.755951,-3.77976 0.193263,-0.773052 0.599678,-1.486488 0.755952,-2.267858 0.09884,-0.494181 -0.503968,-1.511906 0,-1.511906 0.563454,0 0.577773,0.977366 0.755954,1.511906 0.328547,0.985642 0.400894,2.047404 0.755952,3.023809 0.655823,1.803514 1.555139,3.50987 2.267857,5.291667 2.064854,5.162134 -0.776631,-0.279556 2.267858,3.779761 1.394256,1.85901 -0.04669,1.480777 2.267857,3.023811 0.209661,0.139774 0.577771,-0.178181 0.755952,0 0.642435,0.642435 0.93027,1.569895 1.511903,2.267855 0.684408,0.821291 1.511906,1.511906 2.267858,2.267858 0.251983,0.251984 0.437216,0.596585 0.755954,0.755954 0.712719,0.356359 1.528006,0.46001 2.267855,0.755952 0.523155,0.209261 0.977365,0.577773 1.511906,0.755951 0.591478,0.19716 1.511905,-0.316415 1.511905,0 0,0.251984 -0.577773,-0.178178 -0.755954,0 -0.178178,0.178181 0.139777,0.546288 0,0.755952 -0.395345,0.593018 -1.193167,0.874429 -1.511903,1.511906 -0.971651,1.943301 2.025952,3.280833 3.023809,3.77976 2.038697,1.01935 4.76486,1.019358 6.80357,0 0.956215,-0.478104 1.511906,-1.511903 2.267857,-2.267854 1.71621,-1.71621 3.211187,-2.733083 3.779764,-5.291667 0.273314,-1.229918 -0.247092,-2.54431 0,-3.779763 0.04942,-0.247092 0.57777,-0.178179 0.755951,0 0.398423,0.398422 0.577774,0.977365 0.755952,1.511905 0.07968,0.239052 -0.22538,0.643261 0,0.755952 0.450763,0.22538 1.007938,0 1.511906,0 1.259919,0 2.519841,0 3.779761,0 0.503967,0 1.007938,0 1.511905,0 0.251984,0 0.511493,0.06112 0.755952,0 0.173845,-0.04346 2.438239,-1.048739 3.023809,-0.755952 0.318738,0.15937 0.437216,0.596583 0.755954,0.755952 0.22538,0.112691 0.530569,-0.112691 0.755952,0 0.743879,0.371938 2.279931,2.651871 3.023809,3.023809 0.225383,0.112692 0.503968,0 0.755952,0 1.624822,0 2.344499,0.20089 3.779763,-0.755951 0.296508,-0.197673 0.596583,-0.437216 0.755952,-0.755952 0.112691,-0.225383 -0.251984,-0.755954 0,-0.755954 0.356359,0 0.459443,0.558281 0.755951,0.755954 0.598189,0.398791 3.868325,2.045393 4.53572,2.267855 0.23905,0.07968 0.52199,0.09359 0.75595,0 1.04631,-0.418523 2.05749,-0.932114 3.02381,-1.511903 0.61115,-0.366692 0.87443,-1.193168 1.5119,-1.511906 0.47951,-0.239755 3.28868,0.245544 3.77976,0 0.31874,-0.159369 0.50397,-0.503968 0.75596,-0.755952 0.80703,-0.807035 0.9864,-1.145775 2.26785,-1.511906 3.83373,-1.095348 7.42382,-0.755951 11.33929,-0.755951"
       id="path841"
       inkscape:connector-curvature="0" />
    <path
       style="fill:none;stroke:#000000;stroke-width:0.26458332px;stroke-linecap:butt;stroke-linejoin:miter;stroke-opacity:1"
       d="m 122.46428,129.93452 c 4.11327,-20.56632 -0.67561,0.99214 3.02381,-11.33928 0.36921,-1.23069 0.38675,-2.54908 0.75596,-3.77976 1.53079,-5.10266 1.23692,-2.33636 3.02381,-6.80358 0.18716,-0.46792 -0.35636,-1.15554 0,-1.5119 0.52136,-0.52137 1.4135,0.55914 1.5119,0.75595 0.11269,0.22538 0,0.50397 0,0.75595 0,0.75595 -0.12428,1.52219 0,2.26786 0.17693,1.0616 2.1768,5.77444 2.26786,6.04762 0.32855,0.98564 0.29131,2.09454 0.75595,3.02381 0.31874,0.63747 1.08427,0.94173 1.5119,1.5119 0.33808,0.45077 0.40397,1.07193 0.75596,1.51191 0.66784,0.83481 1.60001,1.43305 2.26785,2.26785 0.35199,0.43999 0.50397,1.00794 0.75596,1.51191 0.25198,0.50397 0.54669,0.98875 0.75595,1.51191 0.29594,0.73985 0.56269,1.4948 0.75595,2.26785 0.15478,0.61911 -0.25492,1.51191 0,1.51191 0.35636,0 0.47087,-0.54214 0.75595,-0.75595 0.72684,-0.54513 1.48879,-1.04447 2.26786,-1.51191 2.6962,-1.61772 0.26669,-0.0533 3.77976,-0.75595 0.55251,-0.11051 0.94845,-0.75595 1.51191,-0.75595 6.03059,0 1.37642,0.31023 3.77976,1.5119 0.22538,0.11269 0.53057,-0.11269 0.75595,0 0.31874,0.15937 0.43722,0.59658 0.75595,0.75595 0.22539,0.11269 0.53057,-0.11269 0.75596,0 0.31873,0.15937 0.43721,0.59659 0.75595,0.75596 0.22538,0.11268 0.50397,0 0.75595,0 0.25198,0 0.53057,0.11268 0.75595,0 0.31874,-0.15937 0.43722,-0.59659 0.75596,-0.75596 0.45076,-0.22538 1.02298,0.12223 1.5119,0 0.77305,-0.19326 1.47101,-0.75595 2.26786,-0.75595 0.79684,0 1.48185,0.62495 2.26785,0.75595 0.74567,0.12428 1.51191,0 2.26786,0 2.51984,0 5.03968,0 7.55953,0 0.50396,0 1.00793,0 1.5119,0 0.25198,0 0.57777,0.17818 0.75595,0 0.17818,-0.17818 -0.17818,-0.57777 0,-0.75595 0.17818,-0.17818 0.57777,0.17818 0.75596,0 0.17817,-0.17818 -0.17819,-0.57777 0,-0.75595 0.17817,-0.17818 0.57777,0.17818 0.75595,0 0.17818,-0.17818 -0.22538,-0.64326 0,-0.75595 2.85582,-1.42791 0.96594,0.20998 1.5119,0.75595 0.10661,0.10661 2.11279,0.0775 2.26786,0 0.31874,-0.15937 0.41023,-0.66952 0.75595,-0.75595 0.73338,-0.18335 1.51191,0 2.26786,0 0.75595,0 1.52658,-0.14826 2.26786,0 0.55251,0.1105 1.00793,0.50396 1.5119,0.75595 0.50397,0.25198 1.04308,0.4434 1.51191,0.75595 0.2965,0.19767 0.43721,0.59658 0.75595,0.75595 0.22538,0.11269 0.50397,0 0.75595,0 0.25198,0 0.50397,0 0.75595,0"
       id="path843"
       inkscape:connector-curvature="0" />
    <path
       style="fill:none;stroke:#000000;stroke-width:0.26458332px;stroke-linecap:butt;stroke-linejoin:miter;stroke-opacity:1"
       d="m 34.017857,227.45238 c 0.251984,-1.00794 0.530572,-2.00959 0.755952,-3.02381 0.278728,-1.25428 0.402971,-2.54433 0.755951,-3.77976 0.656731,-2.29856 1.511906,-4.53572 2.267858,-6.80357 0.251984,-0.75596 0.599678,-1.48649 0.755954,-2.26786 0.224256,-1.12129 -0.567502,-2.36208 0.755952,-3.02381 1.456605,-0.7283 4.278778,2.76687 5.291666,3.77976 0.251984,0.25199 0.503968,0.50397 0.755952,0.75595 0,0.25199 -0.151191,0.55437 0,0.75596 5.007742,5.00773 0.555694,0.0776 3.023809,3.77976 1.157801,1.7367 0.4318,-0.32416 2.267858,1.5119 0.178181,0.17818 -0.178179,0.57778 0,0.75595 0.361135,0.36114 1.945444,1.07837 2.267857,0.75596 0.603515,-0.60352 -1.574879,-2.46943 1.511906,0 0.834808,0.66785 1.511903,1.5119 2.267855,2.26786 1.981901,1.98189 3.586514,3.75347 6.047621,5.29166 0.675722,0.42233 1.494803,0.56269 2.267857,0.75595 0.244459,0.0611 0.530569,0.11269 0.755952,0 0.686408,-0.3432 2.26102,-3.00672 2.267857,-3.02381 0.187169,-0.46792 -0.159369,-1.03379 0,-1.5119 0.112689,-0.33807 0.596583,-0.43721 0.755952,-0.75595 0.112691,-0.22539 -0.178181,-0.57778 0,-0.75595 0.398423,-0.39843 0.961869,-0.63373 1.511906,-0.75596 1.739365,-0.38652 3.50987,-0.75595 5.291666,-0.75595 0.796843,0 1.481855,0.62495 2.267855,0.75595 0.745667,0.12428 1.511906,0 2.267858,0 0.755954,0 1.52219,0.12428 2.267857,0 0.786003,-0.131 1.511906,-0.50397 2.267858,-0.75595 0.755951,-0.25198 1.555138,-0.39959 2.267857,-0.75595 0.812623,-0.40632 1.455232,-1.1056 2.267858,-1.51191 0.712718,-0.35636 1.528005,-0.46001 2.267857,-0.75595 0.523153,-0.20926 0.965274,-0.61929 1.511903,-0.75595 0.733383,-0.18335 1.511906,0 2.267858,0 0.251984,0 0.577773,-0.17818 0.755951,0 0.178181,0.17818 -0.112688,0.53057 0,0.75595 0.15937,0.31874 0.503968,0.50397 0.755955,0.75595 0.251984,0.25199 0.459441,0.55828 0.755951,0.75595 0.468821,0.31255 1.043083,0.44341 1.511904,0.75596 3.40961,2.27307 -5.434542,-1.68113 3.77976,2.26786 0.18997,0.0814 3.00492,1.14337 3.77976,0.75595 0.31874,-0.15937 0.50397,-0.50397 0.75596,-0.75595 0.48414,-0.48415 2.31637,-2.55219 3.02381,-3.02382 1.30472,-0.86981 3.06078,-1.26608 4.53571,-1.5119 0.99422,-0.1657 2.0676,0.31874 3.02381,0 0.33807,-0.11269 0.43721,-0.59658 0.75595,-0.75595 0.45077,-0.22538 1.02299,0.12223 1.51191,0 3.66128,-0.91532 0.89211,-0.75596 3.77976,-0.75596 0.50397,0 1.0338,0.15937 1.5119,0 0.33808,-0.11269 0.45038,-0.93929 0.75596,-0.75595 1.2223,0.73339 2.01587,2.01588 3.02381,3.02381 1.25992,1.25992 2.51984,2.51984 3.77976,3.77977"
       id="path845"
       inkscape:connector-curvature="0" />
    <path
       style="fill:#000000;fill-opacity:1;fill-rule:evenodd;stroke:#000000;stroke-width:2.64583325;stroke-linejoin:bevel;stroke-miterlimit:4;stroke-dasharray:none;stroke-dashoffset:0;stroke-opacity:1"
       id="path851"
       d="m -178.9171,19.585745 c 3.97702,-0.09152 7.96714,-0.288119 11.94852,-0.429646 9.25848,-0.230678 18.49966,-0.830764 27.73114,-1.553884 8.37892,-0.640446 16.73302,-1.559647 25.09575,-2.377027 5.93299,-0.661912 11.90716,-0.666547 17.868425,-0.712169 8.504023,0.08899 16.996754,0.531782 25.502298,0.575521 7.904562,-0.112786 15.794019,-0.44708 23.698544,-0.258292 6.39791,0.213982 12.797475,0.32195 19.198454,0.374899 7.369903,0.182647 14.731238,0.07305 22.0921476,-0.318829 9.3547564,-0.347007 18.7015114,-0.848195 28.0494204,-1.339204 9.135928,-0.672198 18.285484,-1.196364 27.384576,-2.279508 5.850318,-0.862247 11.743589,-1.214056 17.645541,-0.888461 6.050267,0.590966 12.110114,1.180793 18.193097,1.279315 2.966772,0.04805 7.226061,-0.06098 10.191247,-0.11849 7.28218,-0.177691 14.55748,-0.757601 21.78698,-1.6431112 6.57156,-1.1379311 13.18427,-1.8613771 19.82989,-2.3813185 6.80807,-0.4803224 13.62096,-0.8599455 20.42816,-1.3549503 4.20838,-0.044211 8.45635,-0.388933 12.64764,0.184816 2.08185,0.2849861 3.38103,0.7014826 5.43306,1.2449701 5.88176,1.6911124 11.63547,3.7741399 17.43395,5.7197689 0.43754,0.134709 3.08922,0.976432 3.68501,1.071525 3.33542,0.53235 7.33512,-0.479223 10.58312,-1.056846 8.12498,-1.54732 16.1186,-3.6694189 24.08272,-5.8798819 0.49115,-0.076387 0.97827,-0.2722788 1.47344,-0.2291591 0.79814,0.069502 1.03555,0.976262 0.91673,1.6171074 -0.19381,1.0453243 -3.06973,2.7350026 -3.66348,3.1419596 -3.96824,2.890542 -8.79673,4.668212 -12.34998,8.127865 -0.68075,0.662807 -1.24748,1.433428 -1.87121,2.150142 -1.1344,2.138814 -1.74033,2.852349 -2.09802,5.340415 -0.72207,5.022582 0.61056,10.787494 1.61552,15.689781 2.54527,9.572714 2.54955,19.451843 2.19274,29.266885 -0.55613,12.032302 -0.99396,24.060985 -1.8002,36.080292 -1.09879,12.10735 -1.02023,24.25196 -0.88802,36.39214 -0.0666,10.86322 -0.47189,21.71299 -0.36335,32.57734 -0.0257,8.58212 0.47892,17.14365 1.00274,25.70462 0.25424,6.55889 -0.90612,13.07305 -2.09952,19.49636 -1.50201,7.43109 -2.26568,14.97834 -3.10587,22.50403 -0.57599,3.88982 -0.90474,7.82434 -1.60752,11.69457 -0.98068,3.90341 -1.84778,7.83553 -2.95336,11.70638 -1.54128,5.27601 -4.21759,4.79557 -11.12422,8.44718 -0.30092,0.15909 -2.55442,-0.52338 -2.97167,-0.6414 -4.59243,-1.36407 -9.19552,-2.71476 -13.814,-3.99639 -9.28177,-2.14466 -18.32356,-5.13817 -27.43663,-7.87737 -5.79742,-1.85588 -11.79841,-2.92723 -17.62943,-4.65736 -4.57922,-1.3587 -4.6046,-1.456 -9.16048,-3.14399 -6.95889,-2.79654 -13.9301,-5.58222 -21.13942,-7.67992 -4.175254,-1.21488 -6.635111,-1.72616 -10.841934,-2.70229 -11.818117,-2.27237 -23.830991,-3.20984 -35.796923,-4.32956 -14.066168,-1.48324 -28.208911,-1.64102 -42.33378,-1.34805 -9.4149965,0.35425 -18.8547106,0.40032 -28.247554,1.21568 -5.706028,0.49533 -7.074934,0.78776 -12.655354,1.62627 -10.728005,1.69988 -21.21423,4.59088 -31.741705,7.21077 -7.560249,1.73761 -15.080847,3.91414 -22.80068,4.86306 -1.570434,0.19304 -3.152341,0.27721 -4.728511,0.41581 -9.292828,0.44247 -18.573599,0.89824 -27.830709,1.83996 -10.71709,1.19336 -21.49671,1.63566 -32.2659,2.05879 -8.0767,0.36356 -16.17578,0.60189 -24.24722,0.0467 -5.25656,-0.47237 -10.51786,-0.87007 -15.79318,-1.04426 -3.25827,-0.0827 -6.51487,-0.0158 -9.76137,-0.3296 -0.45896,-0.38902 -1.26961,0.11576 -1.75141,-0.22214 -1.63533,-1.14691 -0.46977,-5.12525 -0.20517,-6.57902 0.69232,-3.38251 0.95417,-6.85065 1.74696,-10.21429 0.0613,-0.26013 1.45668,-5.27601 1.52093,-5.50744 1.77295,-6.35786 2.43182,-12.93569 2.93589,-19.49355 0.90357,-11.34153 0.71447,-22.702 0.27707,-34.05646 -0.47437,-13.60045 -2.21937,-27.10976 -3.58875,-40.6383 -0.19621,-2.12186 -0.4091,-4.24223 -0.58864,-6.36556 -0.3483,-4.11898 -0.61685,-7.72791 -0.73521,-11.85147 -0.157,-5.46999 0.0584,-10.9432 0.18605,-16.4112 0.11673,-9.738234 0.6056,-19.464081 1.15226,-29.185947 0.82091,-9.400992 0.85969,-18.810287 0.54221,-28.232049 -0.42453,-7.489327 -0.81643,-14.980114 -1.21475,-22.470716 -0.23723,-2.79753 -0.28648,-5.587037 0.0226,-8.37688 0.2268,-1.673351 0.987,-3.23733 1.73912,-4.733197 0.11524,-0.178682 0.23048,-0.357365 0.34572,-0.536047 0,0 10.27408,-4.390641 10.27408,-4.390641 v 0 c -0.14454,0.1466741 -0.28907,0.2933483 -0.4336,0.4400227 -0.95827,1.2135373 -1.54063,2.8270423 -1.91221,4.3139683 -0.57163,2.786459 -0.72346,5.600939 -0.6106,8.445018 0.0522,7.568671 0.39327,15.1316 0.76442,22.690397 0.21317,4.622461 0.33493,9.230622 0.22624,13.859084 -0.11057,4.708006 -0.2343,4.926814 -0.4832,9.635027 -0.0849,1.6052 -0.14387,3.21166 -0.21581,4.817493 -0.65028,9.742461 -1.09163,19.491706 -1.36076,29.252737 -0.36092,11.56978 -0.5291,23.1518 0.76884,34.67992 1.31512,13.53264 2.94947,27.03743 3.75997,40.61591 0.41814,11.29978 0.72376,22.61345 0.22764,33.91684 -0.37033,6.56311 -0.66697,13.17929 -2.53131,19.52906 -1.39178,5.12453 -2.62061,10.26698 -3.20631,15.55874 -0.0354,0.27374 -0.7281,4.73165 -0.30125,4.87577 0.51939,0.17537 1.10783,0.0736 1.62472,0.25483 3.17134,0.35549 6.36049,0.17243 9.54091,0.40934 5.18403,0.30325 10.35462,0.75674 15.52205,1.27004 7.95466,0.55935 15.93569,0.41459 23.89898,0.0777 10.73315,-0.2494 21.46161,-0.77118 32.12835,-2.04807 3.26541,-0.35045 6.783968,-0.75821 10.065791,-0.99522 5.944505,-0.42931 11.916934,-0.4041 17.858026,-0.90448 1.578591,-0.16736 3.162509,-0.29044 4.735777,-0.50209 7.66854,-1.03161 15.139558,-3.14321 22.66724,-4.86342 10.458973,-2.53974 20.867623,-5.41065 31.538965,-6.9357 5.896335,-0.8069 6.515044,-0.97254 12.5557861,-1.46042 9.3486789,-0.75503 18.7304709,-0.75798 28.0991549,-1.0561 3.863326,-0.0921 11.257279,-0.30145 15.152131,-0.26478 9.168892,0.0863 18.329452,0.81802 27.464493,1.53309 12.094493,0.92085 24.192399,2.07928 36.132306,4.27236 4.68635,1.15206 6.0955,1.4388 10.77201,2.8356 5.56522,1.66224 10.99947,3.62387 16.42348,5.69014 1.65012,0.62861 3.30261,1.251 4.95392,1.87651 4.41428,1.55162 4.77745,1.76122 9.21422,3.0055 5.82613,1.63392 11.76491,2.86889 17.51788,4.7679 9.15427,2.72814 18.26919,5.62435 27.59739,7.71675 4.85561,1.13459 9.70169,2.31081 14.5478,3.48414 0.55102,0.1177 1.15467,0.29255 1.7291,0.22316 0.26347,-0.0318 0.98126,-0.38835 0.75724,-0.24603 -2.84557,1.80773 -5.76098,3.50314 -8.64145,5.25471 0.25757,-0.23983 0.5883,-0.41975 0.77277,-0.71949 0.25672,-0.41716 0.34441,-0.91712 0.5166,-1.37568 1.2587,-3.76855 2.10256,-7.64353 2.90597,-11.53012 0.67119,-3.96844 1.60851,-7.89036 2.13598,-11.88439 0.90011,-7.53493 1.88111,-15.06096 3.05049,-22.55925 1.2107,-6.35994 2.32494,-12.76579 2.18591,-19.27042 -0.23765,-8.65899 -0.55502,-17.3162 -0.54793,-25.97974 -0.0579,-10.90237 0.24257,-21.79418 0.58145,-32.69077 -0.004,-6.27779 -0.26379,-12.56881 -0.18124,-18.84475 0.0491,-3.73106 0.37034,-7.77969 0.63473,-11.4947 0.14568,-2.04658 0.29906,-4.0926 0.44858,-6.13891 0.80899,-11.95196 1.17343,-23.925256 1.50529,-35.898938 0.1923,-5.0415 0.4344,-10.073523 0.0673,-15.115185 -0.30599,-4.202184 -0.59203,-5.633918 -1.43827,-9.720416 -0.28443,-1.37347 -0.61458,-2.73708 -0.92184,-4.105619 -0.83894,-4.065001 -1.68291,-8.100972 -1.96802,-12.252653 -0.0848,-1.235403 -0.21262,-2.478679 -0.1152,-3.713153 0.20413,-2.586065 0.83203,-3.471524 1.86084,-5.755873 1.62909,-2.079456 1.88354,-2.66658 3.99161,-4.305329 3.08454,-2.397838 6.80085,-3.898131 9.96053,-6.188204 0.59058,-0.399511 1.18531,-0.792972 1.77173,-1.198535 0.0649,-0.04487 1.50643,-1.123718 1.72209,-1.150761 0.2086,-0.02616 0.39521,0.147761 0.57957,0.248846 0.0361,0.01978 -0.0823,8.46e-4 -0.1234,0.0013 -0.39507,0.05178 -0.79015,0.103556 -1.18523,0.155334 -7.94818,1.830157 -15.83404,3.932794 -23.82186,5.591669 -3.61357,0.68389 -7.62876,1.797656 -11.32671,0.973942 -0.47519,-0.105849 -3.24376,-1.115639 -3.5515,-1.22583 -5.68248,-2.113994 -11.37505,-4.22915 -17.26523,-5.705727 -1.79086,-0.399775 -3.56579,-0.844613 -5.38919,-1.078382 -4.11448,-0.52749 -8.28754,-0.319358 -12.41562,-0.148448 -6.78882,0.469231 -13.58115,0.87945 -20.3716,1.323461 -6.68279,0.531476 -13.30457,1.469449 -19.92646,2.505561 -7.10348,0.830735 -14.25355,1.136354 -21.403227,1.231461 -3.843866,0.06415 -6.369261,0.139869 -10.213736,0.06984 -6.229385,-0.113477 -12.435065,-0.669605 -18.656335,-0.957928 -5.84324,-0.197667 -11.652837,0.237973 -17.455064,0.943517 -9.018096,0.829428 -18.066137,1.2616 -27.091471,2.004082 -9.4072178,0.616456 -18.8284904,0.911785 -28.238748,1.470375 -7.449233,0.388766 -14.907689,0.541713 -22.367076,0.437523 -6.378858,-0.08834 -12.757277,-0.223279 -19.13315,-0.439538 -7.784881,-0.195121 -15.568446,-0.0092 -23.354543,0.03871 -8.624554,0.02649 -17.241666,-0.449685 -25.8662,-0.296684 -5.92504,0.07533 -11.8501,0.231636 -17.75698,0.734071 -8.25479,0.683861 -16.49212,1.57437 -24.75919,2.111844 -9.36039,0.716479 -18.72439,1.346525 -28.10155,1.796857 -4.20481,0.298521 -8.41152,0.585904 -12.6181,0.846846 0,0 9.07624,-6.594276 9.07624,-6.594276 z"
       inkscape:connector-curvature="0" />
    <path
       style="fill:none;stroke:#000000;stroke-width:0.26458332px;stroke-linecap:butt;stroke-linejoin:miter;stroke-opacity:1"
       d="m -174.55634,138.66592 c 0.25198,1.25992 0.44433,2.53325 0.75595,3.77976 0.19327,0.77305 0.59968,1.48649 0.75595,2.26786 0.0988,0.49418 0,1.00794 0,1.5119 0,1.25993 -0.12536,2.5261 0,3.77976 0.1773,1.77296 0.57866,3.51872 0.75596,5.29167 0.12536,1.25367 0,2.51984 0,3.77976 0,1.00794 0,2.01588 0,3.02381 0,0.50397 0.0625,1.01183 0,1.51191 -0.19012,1.52092 -0.56584,3.01479 -0.75596,4.53571 -0.12501,1.00016 0,2.01587 0,3.02381 0,1.51191 0,3.02381 0,4.53572 0,0.91537 -0.17031,2.17224 0,3.0238 0.40752,2.03757 1.06115,4.01919 1.51191,6.04763 0.17889,0.80501 0.0268,3.79318 1.5119,4.53571 0.22539,0.11269 0.50397,0 0.75596,0 0.25198,0 0.50739,0.0414 0.75595,0 1.26739,-0.21123 2.53325,-0.44433 3.77976,-0.75595 0.77305,-0.19327 1.48186,-0.62496 2.26786,-0.75596 0.74567,-0.12427 1.5119,0 2.26786,0 15.88384,0 -8.48917,-0.24709 7.55952,0.75596 4.27539,0.26721 8.56746,0 12.85119,0 1.5119,0 3.02381,0 4.53572,0 1.5119,0 3.03001,0.13688 4.53571,0 1.27959,-0.11633 2.49489,-0.75596 3.77976,-0.75596 4.25986,0 8.04924,0.6128 12.09524,1.51191 1.01421,0.22538 2.02482,0.47053 3.02381,0.75595 0.76618,0.21891 1.48999,0.58309 2.26785,0.75595 1.49626,0.33251 3.04872,0.38421 4.53572,0.75596 0.54663,0.13665 0.96527,0.61929 1.5119,0.75595 0.71149,0.17787 1.55638,-0.17787 2.26786,0 3.661285,0.91532 0.89211,0.75595 3.779763,0.75595 0.251984,0 0.530571,0.11269 0.755952,0 1.47471,-0.73736 0.386979,-1.91689 0.755951,-3.02381 2.141495,-4.28299 -0.281726,1.12691 0.755954,-3.02381 0.386525,-1.5461 1.053963,-3.00924 1.511904,-4.53571 0.640548,-2.13516 1.080304,-4.64557 1.511905,-6.80357 0.251984,-1.25992 0.628103,-2.50127 0.755952,-3.77977 0.330594,-3.30594 -0.616238,-9.72012 -0.755952,-12.09523 -0.177564,-3.0186 0.273762,-6.06004 0,-9.07143 -0.116326,-1.2796 -0.628102,-2.50127 -0.755951,-3.77977 -0.977106,-9.77105 1.731809,3.85531 -0.755954,-9.82737 -0.142545,-0.784 -0.624952,-1.48186 -0.755952,-2.26786 -0.124277,-0.74567 0.148254,-1.52659 0,-2.26786 -0.110503,-0.55251 -0.645451,-0.95939 -0.755952,-1.5119 -0.148254,-0.74128 0,-1.51191 0,-2.26786 0,-0.50397 0.22538,-1.06114 0,-1.51191 -0.112691,-0.22538 -0.503967,0 -0.755954,0 -3.83082,0 0.901528,-0.22538 -3.023809,0.75596 -0.488921,0.12223 -1.022982,-0.12223 -1.511907,0 -0.54663,0.13665 -1.00793,0.50396 -1.5119,0.75595 -2.01588,0.25198 -4.02122,0.61121 -6.04762,0.75595 -1.50806,0.10772 -3.02381,0 -4.53572,0 -1.25991,0 -2.52609,0.12537 -3.77976,0 -2.55699,-0.2557 -4.99421,-1.361 -7.55952,-1.5119 -3.01859,-0.17757 -6.04762,0 -9.07143,0 -3.02381,0 -6.04762,0 -9.07143,0 -1.00793,0 -2.02087,-0.1003 -3.02381,0 -1.52515,0.15251 -3.00635,0.85791 -4.53571,0.75595 -2.31803,-0.15454 -4.50374,-1.18336 -6.80357,-1.51191 -1.24726,-0.17818 -2.52755,0.13914 -3.77976,0 -1.03261,-0.11473 -1.9953,-0.60902 -3.02381,-0.75595 -0.74836,-0.1069 -1.51191,0 -2.26786,0 -4.66887,0 0.23827,-0.12428 -6.80357,0.75595 -0.50008,0.0625 -1.02299,-0.12223 -1.51191,0 -0.54663,0.13666 -0.97736,0.57778 -1.5119,0.75596 -0.23905,0.0797 -0.53057,-0.1127 -0.75595,0 -0.31874,0.15937 -0.50397,0.50396 -0.75596,0.75595"
       id="path877"
       inkscape:connector-curvature="0" />
    <path
       style="fill:none;stroke:#000000;stroke-width:0.26458332px;stroke-linecap:butt;stroke-linejoin:miter;stroke-opacity:1"
       d="m -160.9492,186.29092 c 0.25199,-1.00794 0.58515,-1.99899 0.75596,-3.02381 0.0829,-0.49711 -0.0988,-1.01772 0,-1.51191 1.79746,-8.98734 -0.36691,5.98122 1.5119,-5.29166 0.1657,-0.99423 -0.24446,-2.04597 0,-3.02381 0.13666,-0.54663 0.6193,-0.96528 0.75595,-1.51191 0.50397,-2.01587 -0.95621,-1.49687 0.75595,-3.77976 0.33808,-0.45076 1.04309,-0.4434 1.51191,-0.75595 0.59302,-0.39535 0.87443,-1.19317 1.5119,-1.51191 1.21372,-0.60685 2.53251,-0.97736 3.77977,-1.5119 0.51789,-0.22196 1.06114,-0.41788 1.5119,-0.75595 1.96901,-1.47676 0.82803,-1.53593 3.02381,-2.26786 1.74033,-0.58011 3.48678,-1.18374 5.29167,-1.5119 2.15586,-0.39198 3.23379,0.29398 5.29167,0 1.02851,-0.14694 1.99898,-0.58515 3.0238,-0.75596 0.49711,-0.0829 1.00794,0 1.51191,0 0.75595,0 1.5119,0 2.26785,0 1.25993,0 2.51985,0 3.77977,0 0.75595,0 1.52219,-0.12427 2.26785,0 0.78601,0.131 1.48999,0.5831 2.26786,0.75596 1.49626,0.3325 3.06193,0.33487 4.53572,0.75595 0.22116,0.0632 2.6725,2.6725 3.0238,3.02381 1.65544,1.65543 3.46513,3.15048 4.53572,5.29167 0.35636,0.71271 0.50397,1.5119 0.75595,2.26785 0.25199,0.75595 0.53704,1.50167 0.75595,2.26786 0.28543,0.99898 0.75596,1.98485 0.75596,3.02381 0,0.56345 -0.57778,0.97737 -0.75596,1.5119 -0.0797,0.23906 0,0.50397 0,0.75595 0,0.60322 0.15118,3.32624 0,3.77977 -0.17818,0.53454 -0.57777,0.97736 -0.75595,1.5119 -0.0797,0.23905 0.11269,0.53057 0,0.75596 -0.27062,0.54124 -1.69419,1.16006 -0.75595,1.5119 3.95508,1.48315 8.063489,2.51984 12.095233,3.77976"
       id="path879"
       inkscape:connector-curvature="0" />
    <path
       style="fill:none;stroke:#000000;stroke-width:0.26458332px;stroke-linecap:butt;stroke-linejoin:miter;stroke-opacity:1"
       d="m -128.44325,138.66592 c -5.03282,-0.8388 -3.00295,-0.75595 -6.04761,-0.75595 -0.50397,0 -1.02299,-0.12223 -1.51191,0 -0.54663,0.13665 -0.97736,0.57777 -1.5119,0.75595 -0.23906,0.0797 -0.54629,-0.13977 -0.75596,0 -0.88952,0.59302 -1.5119,1.51191 -2.26785,2.26786 -0.25199,0.25198 -0.50397,0.50396 -0.75596,0.75595 -0.25198,0.25198 -0.64326,0.41788 -0.75595,0.75595 -0.15937,0.47811 0.12223,1.02298 0,1.51191 -0.13665,0.54663 -0.57777,0.97736 -0.75595,1.5119 -0.13638,0.40913 0,2.76628 0,3.02381 0,0.60322 -0.15118,3.32623 0,3.77976 0.17818,0.53454 0.6193,0.96528 0.75595,1.51191 0.18335,0.73338 -0.23905,1.55069 0,2.26785 0.17818,0.53454 0.57778,0.97737 0.75595,1.51191 0.75012,2.25034 -1.78999,-1.55107 0.75596,2.26786 0.19767,0.29651 0.50397,0.50396 0.75595,0.75595 0.25198,0.25198 0.45944,0.55828 0.75595,0.75595 0.46882,0.31255 1.11348,0.35753 1.51191,0.75595 0.39842,0.39843 0.35753,1.11349 0.75595,1.51191 0.64243,0.64243 1.54102,0.96678 2.26786,1.5119 0.28508,0.21382 0.43721,0.59659 0.75595,0.75595 0.60476,0.30239 1.6631,-0.30238 2.26786,0 0.31873,0.15937 0.43721,0.59659 0.75595,0.75596 0.0395,0.0198 2.22831,0.0198 2.26785,0 0.31874,-0.15937 0.43722,-0.59659 0.75596,-0.75596 0.22538,-0.11268 0.53057,0.1127 0.75595,0 0.31874,-0.15936 0.43721,-0.59658 0.75595,-0.75595 0.22539,-0.11269 0.54629,0.13978 0.75595,0 0.59302,-0.39534 0.91889,-1.11656 1.51191,-1.5119 0.19189,-0.12793 5.70588,-2.68208 6.04762,-3.02381 0.17818,-0.17818 -0.17818,-0.57777 0,-0.75595 0.17818,-0.17818 0.57777,0.17818 0.75595,0 1.90946,-1.90947 0.29049,-0.87145 0.75595,-2.26786 2.16215,-6.48643 -0.67708,4.81843 0.75596,-3.77976 0.131,-0.78601 0.56268,-1.49481 0.75595,-2.26786 0.0611,-0.24446 -0.0797,-0.5169 0,-0.75595 0.17818,-0.53454 0.64545,-0.95939 0.75595,-1.51191 0.14826,-0.74127 0,-1.5119 0,-2.26786 0,-0.25198 0,-0.50396 0,-0.75595 0,-0.25198 0.11269,-0.53057 0,-0.75595 -0.31874,-0.63747 -1.19317,-0.87443 -1.5119,-1.5119 -0.1127,-0.22538 0.17818,-0.57778 0,-0.75596 -0.17819,-0.17818 -0.53058,0.1127 -0.75596,0 -0.31873,-0.15936 -0.50396,-0.50396 -0.75595,-0.75595 -0.25198,-0.25198 -0.55828,-0.45944 -0.75595,-0.75595 -0.31255,-0.46882 -0.44341,-1.04308 -0.75595,-1.5119 -0.22946,-0.34419 -2.77949,-2.90166 -3.02381,-3.02381 -0.71272,-0.35636 -1.55514,-0.3996 -2.26786,-0.75596 -0.31874,-0.15937 -0.41788,-0.64326 -0.75595,-0.75595 -0.47811,-0.15937 -1.00794,0 -1.51191,0 -0.75595,0 -1.5119,0 -2.26786,0 -0.75595,0 -1.53447,-0.18335 -2.26785,0 -3.65045,0.91261 0.0375,0.35924 -2.26786,1.51191 -3.47457,1.73728 -1.31593,-0.19598 -3.02381,1.5119"
       id="path881"
       inkscape:connector-curvature="0" />
    <path
       style="fill:none;stroke:#000000;stroke-width:0.26458332px;stroke-linecap:butt;stroke-linejoin:miter;stroke-opacity:1"
       d="m -83.842055,135.64211 c 0.251984,1.25992 0.503968,2.51984 0.755952,3.77976 0,0.75596 -0.106908,1.51951 0,2.26786 0.146931,1.02851 0.64122,1.9912 0.755954,3.02381 0.139134,1.25221 0,2.51984 0,3.77976 0,2.77183 0,5.54365 0,8.31548 0,7.05555 0,14.11111 0,21.16666 0,1.25992 0,2.51984 0,3.77976 0,1.02807 -0.407109,2.44228 0.755952,3.02382 2.015873,0 -0.251984,-0.25199 0.755951,0.75595 0.05139,0.0514 1.212837,-0.0427 1.511906,0 1.517354,0.21676 3.012329,0.58668 4.535713,0.75595 0.751329,0.0835 1.52219,-0.12428 2.267857,0 0.786003,0.131 1.479023,0.64326 2.267858,0.75595 0.997807,0.14254 2.023657,-0.12502 3.023809,0 1.030935,0.12887 1.996934,0.59797 3.023809,0.75595 2.255282,0.34697 4.548293,0.40899 6.803572,0.75596 2.053752,0.31596 3.98575,1.25417 6.047618,1.5119 1.000155,0.12502 2.015874,0 3.02381,0 1.007938,0 2.015873,0 3.023811,0 3.779761,0 7.559522,0 11.339285,0 1.76389,0 3.527777,0 5.291667,0 1.992156,0 1.031652,0 3.023809,0 0.251984,0 0.503968,0 0.755951,0 0.251984,0 0.546291,0.13978 0.755955,0 0.593016,-0.39534 1.116557,-0.91889 1.511903,-1.5119 0.139777,-0.20967 -0.07969,-0.5169 0,-0.75596 0.178181,-0.53454 0.577773,-0.97736 0.755952,-1.5119 0.142171,-0.42651 0,-1.77112 0,-2.26786 0,-1.00793 0,-2.01587 0,-3.02381 0,-0.25198 0.06112,-0.51149 0,-0.75595 -0.627608,-2.51044 -1.158399,-2.46364 -1.511904,-5.29167 -0.125018,-1.00015 0.111308,-2.02203 0,-3.02381 -0.14189,-1.27701 -0.684681,-2.49686 -0.755951,-3.77976 -0.265576,-4.78032 0,-9.57539 0,-14.36309 0,-1.00794 0.111307,-2.02204 0,-3.02381 -0.141891,-1.27702 -0.560581,-2.50983 -0.755955,-3.77977 -0.251983,-2.01587 -0.503967,-4.03174 -0.755951,-6.04761 -0.251984,-0.75595 -0.599678,-1.48649 -0.755952,-2.26786 -0.09884,-0.49418 0.159369,-1.0338 0,-1.5119 -0.669102,-2.00731 -1.382747,0.86611 -0.755954,-2.26786 0.156276,-0.78137 0.599681,-1.48649 0.755954,-2.26786 0.148254,-0.74127 0,-1.5119 0,-2.26786 0,-0.50396 0.450763,-1.28652 0,-1.5119 -0.503968,-0.25199 -1.113483,0.35753 -1.511906,0.75595 -0.178178,0.17818 0.112692,0.53057 0,0.75595 -0.433318,0.86664 -1.577303,1.05154 -2.267857,1.51191 -0.296508,0.19767 -0.437214,0.59658 -0.755952,0.75595 -0.225382,0.11269 -0.516898,-0.0797 -0.755951,0 -0.534541,0.17818 -0.977366,0.57777 -1.511906,0.75595 -0.239054,0.0797 -0.5065,-0.0356 -0.755952,0 -2.297628,0.32824 -5.971267,0.99097 -8.315476,1.51191 -9.025405,2.00564 4.66134,-0.71007 -7.559524,1.5119 -1.264147,0.22985 -2.509832,0.56058 -3.779763,0.75596 -2.007936,0.30891 -4.043699,0.42196 -6.047618,0.75595 -1.024821,0.1708 -1.995295,0.60902 -3.023809,0.75595 -0.748356,0.10691 -1.511906,0 -2.267858,0 -0.755952,0 -1.511903,0 -2.267857,0 -0.755952,0 -1.534475,0.18334 -2.267858,0 -2.097394,-0.52435 0.0666,-0.68935 -0.755951,-1.5119 -0.178179,-0.17819 -0.530572,0.11268 -0.755952,0 -0.637477,-0.31874 -0.874429,-1.19317 -1.511906,-1.51191 -0.22538,-0.11269 -0.530569,0.11269 -0.755952,0 -0.318738,-0.15937 -0.437216,-0.59658 -0.755951,-0.75595 -0.446027,-0.22302 -1.747891,0.17332 -2.267858,0 -0.53454,-0.17818 -0.977365,-0.57777 -1.511906,-0.75596 -0.224493,-0.0748 -3.624603,-0.0776 -3.77976,0 -0.812626,0.40632 -1.511906,1.00794 -2.267858,1.51191 z"
       id="path883"
       inkscape:connector-curvature="0" />
    <path
       style="fill:none;stroke:#000000;stroke-width:0.26458332px;stroke-linecap:butt;stroke-linejoin:miter;stroke-opacity:1"
       d="m -57.383722,150.76116 c 0,4.28373 0,8.56746 0,12.85119 0,0.75595 0,1.5119 0,2.26785 0,0.50397 -0.09884,1.01773 0,1.51191 0.156274,0.78137 0.56269,1.49481 0.755952,2.26786 0.06112,0.24446 0,1.00793 0,0.75595 0,-0.75595 0,-1.5119 0,-2.26786"
       id="path885"
       inkscape:connector-curvature="0" />
    <path
       style="fill:none;stroke:#000000;stroke-width:0.26458332px;stroke-linecap:butt;stroke-linejoin:miter;stroke-opacity:1"
       d="m -72.50277,159.07663 c 1.007938,0 2.019356,0.0837 3.023809,0 10.196602,-0.84971 2.751325,-0.75595 8.315478,-0.75595 1.007936,0 2.023655,-0.12502 3.02381,0 1.030933,0.12887 1.990008,0.65257 3.023809,0.75595 2.005867,0.20059 4.031744,0 6.047618,0 1.007938,0 2.045967,0.24446 3.023809,0 0.34572,-0.0864 0.41788,-0.64326 0.755954,-0.75595 0.626094,-0.2087 3.299018,0.24037 3.779761,0 0.318738,-0.15937 0.437216,-0.59658 0.755952,-0.75595 0.229838,-0.11492 2.501807,0 3.023809,0"
       id="path889"
       inkscape:connector-curvature="0" />
  </g>
</svg>
