<?xml version="1.0" encoding="UTF-8" standalone="no"?>
<!-- Created with Inkscape (http://www.inkscape.org/) -->

<svg
   xmlns:dc="http://purl.org/dc/elements/1.1/"
   xmlns:cc="http://creativecommons.org/ns#"
   xmlns:rdf="http://www.w3.org/1999/02/22-rdf-syntax-ns#"
   xmlns:svg="http://www.w3.org/2000/svg"
   xmlns="http://www.w3.org/2000/svg"
   xmlns:sodipodi="http://sodipodi.sourceforge.net/DTD/sodipodi-0.dtd"
   xmlns:inkscape="http://www.inkscape.org/namespaces/inkscape"
   width="133.17581mm"
   height="127.06764mm"
   viewBox="0 0 133.17581 127.06764"
   version="1.1"
   id="svg8"
   inkscape:version="0.92.4 (fd57863, 2020-04-02)"
   sodipodi:docname="drawing.svg">
  <defs
     id="defs2" />
  <sodipodi:namedview
     id="base"
     pagecolor="#ffffff"
     bordercolor="#666666"
     borderopacity="1.0"
     inkscape:pageopacity="0.0"
     inkscape:pageshadow="2"
     inkscape:zoom="0.35"
     inkscape:cx="262.98471"
     inkscape:cy="-139.98637"
     inkscape:document-units="mm"
     inkscape:current-layer="layer1"
     showgrid="false"
     inkscape:window-width="1366"
     inkscape:window-height="713"
     inkscape:window-x="0"
     inkscape:window-y="27"
     inkscape:window-maximized="1" />
  <metadata
     id="metadata5">
    <rdf:RDF>
      <cc:Work
         rdf:about="">
        <dc:format>image/svg+xml</dc:format>
        <dc:type
           rdf:resource="http://purl.org/dc/dcmitype/StillImage" />
        <dc:title></dc:title>
      </cc:Work>
    </rdf:RDF>
  </metadata>
  <g
     inkscape:label="Layer 1"
     inkscape:groupmode="layer"
     id="layer1"
     transform="translate(82.432561,15.272371)">
    <path
       sodipodi:type="spiral"
       style="fill:none;fill-rule:evenodd;stroke:#000000;stroke-width:0.26458332"
       id="path815"
       sodipodi:cx="-18.898809"
       sodipodi:cy="51.315475"
       sodipodi:expansion="1"
       sodipodi:revolution="5.8067298"
       sodipodi:radius="71.111778"
       sodipodi:argument="-35.721912"
       sodipodi:t0="0"
       d="m -18.898809,51.315475 c -0.728178,1.692014 -2.640058,-0.146789 -2.812239,-1.210279 -0.466597,-2.881992 2.755463,-4.658341 5.232797,-4.414197 4.431369,0.436717 6.8269049,5.199521 6.016156,9.255314 -1.189807,5.952038 -7.670132,9.041468 -13.277831,7.618115 C -31.214106,60.667322 -35.01446,52.415125 -32.96,45.26408 -30.374671,36.26522 -20.327657,31.747131 -11.637135,34.442047 -1.1117478,37.705951 4.1276009,49.559566 0.78685715,59.787429 -3.1500938,71.840612 -16.817163,77.803318 -28.581042,73.81338 -42.162906,69.206839 -48.85033,53.721974 -44.208952,40.422964 -38.935124,25.311783 -21.629536,17.898704 -6.7960186,23.193095 9.8449461,29.1326 17.984356,48.260977 12.035809,64.628545 5.4317956,82.799649 -15.520884,91.665892 -33.422158,85.062332 -53.123674,77.794686 -62.717136,55.016561 -55.457905,35.581847 -47.527299,14.349704 -22.922844,4.0287216 -1.9549023,11.944142 20.808041,20.537178 31.856785,46.968662 23.284762,69.469662 14.029717,93.763546 -14.229356,105.54025 -38.263275,96.311285 -64.088216,86.394575 -76.593034,56.307454 -66.706857,30.740731 -56.128763,3.3846374 -24.213217,-9.8484328 2.8862141,0.69518997 31.773542,11.934433 45.734976,45.67872 34.533714,74.310778 22.63352,104.72941 -12.939775,119.4193 -43.104391,107.56024 -75.054383,94.99926 -90.472819,57.596729 -77.955809,25.899615 -64.734193,-7.5817905 -25.50223,-23.728839 7.7273304,-10.553762 42.740193,3.3283693 59.615915,44.389933 45.782666,79.151894 42.671359,86.970386 38.15115,94.213015 32.505887,100.45245" />
    <path
       style="fill:none;stroke:#000000;stroke-width:0.26458332px;stroke-linecap:butt;stroke-linejoin:miter;stroke-opacity:1"
       d="m 15.841247,24.860745 c 0,1.772843 -0.178178,-0.356359 0.755952,1.511903 0.112691,0.225383 0,0.503968 0,0.755955 0,0.503967 -0.12223,1.022982 0,1.511903 0.136659,0.546632 0.50397,1.007938 0.755954,1.511906 0.251984,0.503967 0.443404,1.043082 0.755951,1.511903 0.197673,0.29651 0.596583,0.437216 0.755952,0.755954 0.112691,0.22538 -0.06111,0.51149 0,0.755952 0.193265,0.773051 0.399595,1.555139 0.755954,2.267857 0.159367,0.318736 0.596583,0.437214 0.755952,0.755952 0.22538,0.450763 -0.159369,1.033798 0,1.511906 0.178178,0.534537 0.577773,0.977365 0.755952,1.511903 0.07968,0.239054 0.251983,0.755952 0,0.755952 -0.35636,0 -0.459444,-0.558279 -0.755952,-0.755952 -0.938456,-0.625636 -2.796283,-1.266034 -3.779763,-1.511903 -0.24446,-0.06112 -0.503968,0 -0.755952,0 -0.786133,0 -3.941069,0.148659 -4.535715,0 C 10.758903,37.575276 10.297596,37.207965 9.7936287,36.955981 8.7856906,36.452014 7.7777551,35.948046 6.7698196,35.444078 6.2658518,35.192094 5.6563365,35.086547 5.2579137,34.688124 4.8594909,34.289704 4.9003849,33.574644 4.5019621,33.176221 4.1035393,32.777798 3.5245966,32.598447 2.9900562,32.420269 c -0.2390537,-0.07968 -0.5777706,0.178178 -0.7559516,0 -0.178181,-0.178181 0.2519839,-0.755954 0,-0.755954 -0.2519839,0 -0.178181,0.577773 0,0.755954 0.178181,0.178178 0.5305716,-0.112691 0.7559516,0 0.3187383,0.159367 0.4594437,0.558279 0.7559543,0.755952 0.4688205,0.312547 1.0430827,0.443404 1.5119032,0.755951 0.2965106,0.197673 0.4178803,0.643263 0.7559516,0.755952 0.7171611,0.239054 1.5119059,0 2.2678575,0 0.6488562,0 4.0934242,-0.147429 4.5357152,0 0.338071,0.112691 0.459443,0.558281 0.755951,0.755954 0.468824,0.312547 1.113483,0.357529 1.511906,0.755952 0.178179,0.178181 -0.520012,0.08848 -0.755951,0 C 12.532476,35.526205 10.79133,34.711574 9.0376771,33.932172 8.5227847,33.703332 7.924194,33.574644 7.5257712,33.176221 7.1273484,32.777798 7.0218035,32.168283 6.7698196,31.664315 6.0138653,30.152412 5.2579137,28.640506 4.5019621,27.128603 4.2499782,26.624632 4.1444306,26.015119 3.7460105,25.616697 3.3475877,25.218274 2.4860885,25.364713 2.2341046,24.860745 c -0.3380713,-0.676145 0,-1.511906 0,-2.267857 0,-0.503968 0,1.007935 0,1.511903 0,0.251986 0.2519839,-0.755952 0,-0.755952 -0.2519839,0 0.178181,0.577773 0,0.755952 -0.178181,0.178181 -0.5777733,-0.178179 -0.7559516,0 -0.178181,0.178181 0.1126887,0.530571 0,0.755954 -0.1966013,0.393197 -2.9589841,2.971949 -3.0238091,3.023809 -1.9676666,1.574133 -4.1118234,2.922551 -6.0476209,4.535715 -3.732017,3.110013 -8.850643,10.661502 -10.583333,14.363094 -0.648532,1.385488 -0.481468,3.021407 -0.722202,4.532111 -2.649254,-0.638733 -5.28836,-5.071283 -7.593273,-6.799967 -2.460686,-1.845515 -5.098837,-3.446152 -7.559524,-5.291667 -1.574447,-1.180835 -2.89819,-2.688079 -4.535714,-3.779762 -1.406465,-0.937643 -3.086242,-1.398173 -4.535714,-2.267857 -1.080373,-0.648224 -1.87248,-1.756155 -3.02381,-2.267857 -1.174131,-0.521836 -2.512372,-0.544721 -3.779762,-0.755953 -0.248555,-0.04143 -0.530571,0.112691 -0.755952,0 -0.318738,-0.159368 -0.437215,-0.596583 -0.755952,-0.755952 -0.225382,-0.112691 -0.5169,0.07968 -0.755953,0 -0.534539,-0.17818 -0.977365,-0.577773 -1.511905,-0.755952 -0.239053,-0.07968 -0.516899,0.07968 -0.755952,0 -0.534539,-0.17818 -0.977366,-0.577773 -1.511905,-0.755953 -0.239053,-0.07968 -0.577772,0.17818 -0.755952,0 -0.07292,-0.07292 0.06117,-1.206033 0,-1.511904 -0.203756,-1.018782 -0.585149,-1.998989 -0.755952,-3.02381 -0.419974,-2.519841 0.62996,-0.62996 0,-3.779762 -0.110503,-0.552512 -0.577773,-0.977366 -0.755953,-1.511905 -0.142169,-0.426507 0,-1.771115 0,-2.267857 0,-0.251984 0.06112,-0.511492 0,-0.755952 -0.193263,-0.773052 -0.562689,-1.494805 -0.755952,-2.267857 -0.06112,-0.244461 -0.251984,-0.755953 0,-0.755953 0.251984,0 0.112691,0.530571 0,0.755953 -0.159369,0.318737 -0.596584,0.437215 -0.755953,0.755952 -0.356359,0.712719 -0.503968,1.511905 -0.755952,2.267857 -0.251984,0.755953 -0.562689,1.494805 -0.755952,2.267857 -2.383532,11.917659 0.483942,-0.695874 -1.511905,5.291667 -0.07968,0.239053 0.17818,0.577773 0,0.755952 -0.17818,0.17818 -0.643262,0.225382 -0.755952,0 -0.225382,-0.450762 0,-1.007936 0,-1.511904 0,-1.007937 0,-2.015873 0,-3.02381 0,-0.251984 -0.112691,-0.530571 0,-0.755952 0.159368,-0.318738 0.596583,-0.437215 0.755952,-0.755953 0.112691,-0.225381 -0.112691,-0.530571 0,-0.755952 0.159369,-0.318738 0.596584,-0.437215 0.755952,-0.755952 0.225382,-0.450763 -0.225381,-1.061142 0,-1.511905 0.159369,-0.318738 0.596584,-0.437215 0.755953,-0.755953 0.225381,-0.450762 -0.225382,-1.061141 0,-1.511904 0.159368,-0.318738 0.503968,-0.503969 0.755952,-0.755953 1.484821,-1.484821 1.881717,-1.511904 3.779762,-1.511904 0.251984,0 0.516899,-0.07968 0.755952,0 1.942704,0.647567 3.409907,2.217341 5.291667,3.023809 1.247258,0.534539 2.566046,0.905047 3.779762,1.511905 0.318737,0.159369 0.41788,0.643261 0.755952,0.755952 1.818314,0.606105 1.675117,-0.822531 3.779762,0.755953 0.570175,0.427631 1.007937,1.007936 1.511905,1.511904 0.755952,0.251984 1.604843,0.313943 2.267857,0.755953 1.637524,1.091682 2.961267,2.598926 4.535714,3.779762 0.503969,0.251984 1.007937,0.503968 1.511905,0.755952 0.251984,0 0.530571,-0.112691 0.755953,0 3.459697,1.729849 -3.207821,-0.313321 2.267857,1.511905 0.239053,0.07968 0.503968,0 0.755952,0 0.503968,0.251984 1.007937,0.503968 1.511905,0.755952"
       id="path819"
       inkscape:connector-curvature="0" />
  </g>
</svg>
