<?xml version="1.0" encoding="UTF-8" standalone="no"?>
<svg
   xmlns:dc="http://purl.org/dc/elements/1.1/"
   xmlns:cc="http://creativecommons.org/ns#"
   xmlns:rdf="http://www.w3.org/1999/02/22-rdf-syntax-ns#"
   xmlns:svg="http://www.w3.org/2000/svg"
   xmlns="http://www.w3.org/2000/svg"
   xmlns:sodipodi="http://sodipodi.sourceforge.net/DTD/sodipodi-0.dtd"
   xmlns:inkscape="http://www.inkscape.org/namespaces/inkscape"
   version="1.0"
   width="480.38007pt"
   height="504.75623pt"
   viewBox="0 0 480.38007 504.75623"
   preserveAspectRatio="xMidYMid meet"
   id="svg24"
   sodipodi:docname="gotit.svg"
   inkscape:version="0.92.4 (fd57863, 2020-04-02)">
  <defs
     id="defs28" />
  <sodipodi:namedview
     pagecolor="#ffffff"
     bordercolor="#666666"
     borderopacity="1"
     objecttolerance="10"
     gridtolerance="10"
     guidetolerance="10"
     inkscape:pageopacity="0"
     inkscape:pageshadow="2"
     inkscape:window-width="640"
     inkscape:window-height="480"
     id="namedview26"
     showgrid="false"
     inkscape:zoom="0.069140625"
     inkscape:cx="120.70071"
     inkscape:cy="457.00827"
     inkscape:window-x="0"
     inkscape:window-y="27"
     inkscape:window-maximized="0"
     inkscape:current-layer="svg24" />
  <metadata
     id="metadata2">
Created by potrace 1.15, written by Peter Selinger 2001-2017
<rdf:RDF>
  <cc:Work
     rdf:about="">
    <dc:format>image/svg+xml</dc:format>
    <dc:type
       rdf:resource="http://purl.org/dc/dcmitype/StillImage" />
  </cc:Work>
</rdf:RDF>
</metadata>
  <g
     transform="matrix(0.1,0,0,-0.1,-709.47449,1442)"
     id="g22"
     style="fill:#000000;stroke:none">
    <path
       d="m 8324,14397 c -3,-16 6,-47 26,-91 l 32,-67 -36,-88 c -87,-214 -90,-325 -18,-656 28,-126 53,-241 57,-255 6,-24 2,-27 -47,-43 -29,-9 -116,-45 -193,-79 -135,-61 -140,-64 -140,-93 0,-46 35,-43 161,13 157,71 254,105 254,89 0,-8 20,-54 44,-104 l 44,-91 -89,-63 c -90,-62 -191,-161 -211,-205 -8,-17 -8,-27 2,-39 24,-29 56,-18 96,36 34,45 103,102 213,179 27,19 35,21 41,9 23,-40 140,-189 177,-224 42,-41 178,-127 221,-140 l 23,-7 -34,-41 c -48,-60 -130,-184 -159,-242 -92,-181 -134,-479 -93,-654 9,-35 14,-65 13,-66 -19,-13 -217,-69 -260,-72 -49,-5 -63,-2 -102,21 -61,36 -129,133 -181,259 -73,176 -126,264 -207,346 -52,53 -104,79 -229,119 -202,65 -326,68 -444,12 -96,-46 -168,-119 -184,-187 -14,-57 -4,-110 25,-134 29,-24 104,-14 184,25 92,45 150,47 276,10 108,-31 189,-73 238,-123 31,-31 43,-58 77,-171 51,-169 94,-253 167,-323 186,-176 370,-181 728,-21 7,3 27,-35 51,-94 l 39,-99 -130,1 c -86,1 -144,-4 -169,-12 -47,-17 -84,-65 -93,-120 -13,-85 76,-205 197,-264 122,-59 137,-61 389,-66 155,-3 247,0 272,7 82,25 99,99 47,202 -17,34 -28,63 -26,65 3,3 49,-4 103,-15 193,-39 287,-38 398,5 11,4 8,-8 -10,-46 -53,-110 -40,-190 46,-277 56,-56 126,-77 234,-70 90,6 136,17 346,83 123,39 150,52 181,83 87,86 78,250 -19,349 -76,78 -176,92 -303,42 -28,-12 -53,-19 -55,-17 -9,9 60,224 108,339 47,113 52,131 56,220 5,122 -12,206 -83,393 -110,290 -164,398 -248,491 l -45,50 51,27 c 29,15 94,61 145,102 51,41 96,75 100,75 4,0 21,-35 38,-77 35,-85 54,-105 82,-87 25,17 20,59 -20,151 -32,73 -34,81 -18,91 21,13 117,140 154,205 l 28,48 56,-53 c 110,-105 194,-135 200,-73 2,26 -3,33 -45,58 -26,15 -77,54 -112,86 l -63,59 22,58 c 60,160 74,345 41,534 -31,180 -120,481 -181,616 -46,101 -112,109 -185,20 -83,-102 -164,-267 -214,-435 -17,-58 -32,-106 -34,-107 -1,-2 -95,33 -207,77 -113,44 -236,89 -273,99 -101,28 -298,44 -466,37 -225,-9 -331,-44 -368,-122 -9,-19 -20,-32 -24,-29 -5,2 -48,62 -98,132 -49,70 -116,159 -149,199 -57,67 -60,73 -50,101 17,43 4,65 -33,60 -28,-4 -33,-1 -52,39 -17,35 -26,43 -49,43 -21,0 -29,-6 -34,-23 z m 2184,-174 c 38,-101 62,-178 106,-338 80,-295 86,-461 24,-655 -11,-36 -23,-68 -25,-72 -2,-4 -38,18 -79,48 -109,81 -233,156 -251,152 -21,-4 -38,-32 -30,-50 3,-8 70,-58 150,-111 79,-53 150,-103 156,-111 15,-18 -9,-70 -74,-161 -80,-113 -70,-115 -167,37 -77,121 -87,133 -114,133 -53,0 -44,-36 51,-185 l 85,-135 -37,-34 c -63,-56 -194,-151 -245,-177 -26,-13 -61,-24 -78,-24 -17,0 -41,-6 -53,-14 -12,-8 -96,-27 -187,-42 -243,-40 -469,-38 -584,6 -23,9 -25,12 -14,30 10,15 10,25 2,38 -17,26 -43,26 -77,1 l -31,-22 -95,48 c -70,35 -112,65 -156,110 -54,55 -172,213 -164,219 59,37 80,60 77,84 -4,37 -43,40 -88,7 l -34,-25 -30,57 c -16,32 -35,72 -42,90 l -13,31 87,12 c 48,6 95,14 104,16 25,7 33,43 14,62 -14,15 -26,15 -121,1 l -105,-15 -11,41 c -6,22 -20,81 -30,130 -10,50 -30,144 -45,210 -43,196 -34,345 33,495 l 25,55 42,-46 c 23,-26 82,-104 132,-175 109,-157 137,-190 169,-198 36,-9 56,5 85,60 35,66 60,81 170,100 119,20 424,14 540,-11 62,-14 235,-77 504,-185 65,-26 94,-26 106,3 5,12 26,76 45,142 20,66 53,157 74,202 58,122 139,243 162,243 4,0 21,-35 37,-77 z m -453,-1835 c 73,-76 145,-210 229,-431 73,-191 96,-280 96,-380 0,-72 -5,-91 -54,-216 -89,-223 -134,-409 -108,-447 16,-24 45,-21 139,11 54,19 114,35 133,35 44,0 89,-27 126,-76 25,-33 29,-46 29,-106 0,-95 -20,-113 -188,-167 -335,-108 -446,-107 -517,5 -16,27 -30,57 -30,68 0,12 20,64 45,116 25,52 45,103 45,112 0,10 -11,25 -25,34 -24,15 -30,14 -130,-21 -100,-36 -109,-37 -187,-31 -46,4 -145,21 -221,37 -164,35 -183,35 -197,9 -9,-17 -6,-29 18,-66 17,-24 45,-74 64,-109 52,-101 54,-99 -201,-103 -231,-3 -287,5 -385,55 -73,37 -104,62 -137,112 -35,54 -36,72 -5,108 l 24,28 164,1 c 89,0 170,4 180,8 25,12 29,45 9,85 -33,65 -101,237 -101,256 0,10 -6,23 -14,29 -17,14 -63,131 -81,209 -25,107 -20,267 14,398 16,63 40,140 54,172 33,74 125,214 176,270 l 40,44 70,-24 c 89,-29 250,-46 366,-38 90,7 379,48 445,64 19,5 39,9 45,10 5,1 37,-27 70,-61 z m -2390,-303 c 132,-39 207,-78 255,-133 58,-65 112,-159 160,-277 56,-136 109,-223 175,-283 59,-54 102,-72 175,-72 53,0 214,41 268,69 l 38,19 17,-44 16,-45 -32,-19 c -45,-28 -181,-76 -255,-90 -187,-37 -366,56 -447,233 -18,40 -45,117 -61,172 -15,55 -35,116 -45,136 -55,111 -309,229 -493,229 -62,0 -81,-5 -159,-42 -106,-50 -122,-45 -91,29 20,49 85,102 169,137 57,23 193,15 310,-19 z"
       id="path4"
       inkscape:connector-curvature="0" />
    <path
       d="m 9860,13509 c -77,-15 -194,-61 -224,-88 -38,-35 -86,-120 -86,-152 0,-43 62,-51 75,-10 3,11 19,38 36,61 38,52 127,95 231,112 81,13 103,26 94,56 -10,31 -44,37 -126,21 z"
       id="path6"
       inkscape:connector-curvature="0" />
    <path
       d="m 8853,13489 c -7,-7 -13,-21 -13,-30 0,-26 20,-36 85,-42 33,-2 85,-12 116,-21 55,-16 57,-18 83,-76 21,-50 30,-60 49,-60 45,0 53,24 29,83 -12,29 -22,60 -22,69 0,22 -29,38 -110,60 -92,25 -202,34 -217,17 z"
       id="path8"
       inkscape:connector-curvature="0" />
    <path
       d="m 9324,13180 c -70,-28 -6,-178 67,-155 20,7 77,105 60,105 -5,0 -23,-11 -39,-25 -23,-19 -32,-22 -40,-12 -26,31 -18,42 38,47 l 55,5 -30,16 c -40,22 -85,30 -111,19 z"
       id="path10"
       inkscape:connector-curvature="0" />
    <path
       d="m 9664,13012 c -5,-4 -20,-23 -32,-44 -40,-66 -94,-105 -183,-133 -133,-42 -167,-29 -259,95 -45,60 -57,71 -79,68 -48,-6 -40,-45 29,-136 75,-100 122,-127 220,-125 148,3 290,85 350,203 24,47 24,45 4,64 -17,17 -33,20 -50,8 z"
       id="path12"
       inkscape:connector-curvature="0" />
    <path
       d="m 9967,12073 c -3,-4 -21,-56 -40,-114 -57,-171 -89,-233 -159,-305 -36,-38 -86,-78 -118,-94 -51,-26 -58,-27 -82,-14 -34,18 -48,65 -48,159 0,67 1,71 30,87 49,28 72,75 66,133 -10,94 -71,140 -174,131 -77,-7 -128,-30 -147,-67 -22,-42 -18,-63 20,-114 l 36,-46 -22,-57 c -31,-83 -38,-223 -13,-294 22,-61 97,-143 159,-173 78,-37 269,-29 357,16 47,24 82,71 148,199 53,104 152,375 154,424 1,18 -6,33 -17,40 -31,19 -61,-30 -107,-174 -47,-150 -137,-336 -189,-390 -41,-43 -100,-60 -207,-60 -74,0 -121,20 -171,72 -69,72 -82,178 -38,308 33,96 32,115 -10,166 -35,42 -35,43 -15,54 11,6 42,14 69,17 43,5 50,3 69,-22 32,-40 27,-58 -25,-102 l -46,-40 -5,-79 c -7,-118 11,-190 58,-235 56,-54 89,-56 179,-14 91,43 196,145 240,233 44,88 112,292 109,327 -2,24 -8,31 -30,33 -14,2 -28,0 -31,-5 z"
       id="path14"
       inkscape:connector-curvature="0" />
    <path
       d="m 7845,10510 c -255,-20 -387,-34 -402,-45 -11,-8 -14,-20 -9,-38 8,-33 10,-33 226,-12 85,9 265,18 401,22 261,6 354,1 699,-42 107,-14 276,-32 375,-40 169,-15 227,-25 529,-89 294,-62 436,-60 866,14 162,27 333,53 380,56 47,3 147,17 224,31 130,23 155,24 405,21 224,-3 271,-6 295,-20 39,-22 69,-8 64,30 -2,20 -13,32 -43,47 -37,19 -60,20 -345,20 -274,0 -316,-2 -410,-22 -58,-12 -145,-24 -195,-28 -49,-3 -223,-29 -385,-56 -457,-78 -558,-77 -940,7 -153,34 -258,50 -415,65 -115,10 -300,30 -410,44 -110,14 -254,29 -320,35 -135,11 -439,11 -590,0 z"
       id="path16"
       inkscape:connector-curvature="0" />
    <path
       d="m 8207,10073 c -16,-15 -6,-54 16,-63 12,-5 263,-20 558,-35 579,-28 654,-35 859,-90 447,-117 633,-158 792,-171 81,-6 87,-5 97,15 8,14 9,27 2,40 -8,15 -27,20 -98,25 -126,10 -297,46 -623,131 -157,41 -332,81 -390,89 -58,8 -249,22 -425,31 -176,8 -401,20 -499,25 -211,12 -280,12 -289,3 z"
       id="path18"
       inkscape:connector-curvature="0" />
    <path
       d="m 8622,9728 c -16,-16 -15,-43 1,-55 22,-17 438,-164 567,-200 119,-33 136,-35 360,-44 280,-10 442,-24 567,-46 75,-13 95,-14 108,-3 18,15 20,44 3,58 -34,27 -318,58 -628,67 -107,3 -224,11 -260,17 -89,15 -257,66 -486,149 -106,38 -198,69 -206,69 -8,0 -19,-5 -26,-12 z"
       id="path20"
       inkscape:connector-curvature="0" />
  </g>
</svg>
