<?xml version="1.0" encoding="UTF-8" standalone="no"?>
<svg
   xmlns:dc="http://purl.org/dc/elements/1.1/"
   xmlns:cc="http://creativecommons.org/ns#"
   xmlns:rdf="http://www.w3.org/1999/02/22-rdf-syntax-ns#"
   xmlns:svg="http://www.w3.org/2000/svg"
   xmlns="http://www.w3.org/2000/svg"
   xmlns:sodipodi="http://sodipodi.sourceforge.net/DTD/sodipodi-0.dtd"
   xmlns:inkscape="http://www.inkscape.org/namespaces/inkscape"
   version="1.0"
   width="213.73541pt"
   height="160.9407pt"
   viewBox="0 0 213.73541 160.9407"
   preserveAspectRatio="xMidYMid meet"
   id="svg14"
   sodipodi:docname="jump.svg"
   inkscape:version="0.92.4 (fd57863, 2020-04-02)">
  <defs
     id="defs18" />
  <sodipodi:namedview
     pagecolor="#ffffff"
     bordercolor="#666666"
     borderopacity="1"
     objecttolerance="10"
     gridtolerance="10"
     guidetolerance="10"
     inkscape:pageopacity="0"
     inkscape:pageshadow="2"
     inkscape:window-width="1366"
     inkscape:window-height="713"
     id="namedview16"
     showgrid="false"
     inkscape:zoom="5.12"
     inkscape:cx="56.248467"
     inkscape:cy="128.51944"
     inkscape:window-x="0"
     inkscape:window-y="27"
     inkscape:window-maximized="1"
     inkscape:current-layer="svg14" />
  <metadata
     id="metadata2">
Created by potrace 1.15, written by Peter Selinger 2001-2017
<rdf:RDF>
  <cc:Work
     rdf:about="">
    <dc:format>image/svg+xml</dc:format>
    <dc:type
       rdf:resource="http://purl.org/dc/dcmitype/StillImage" />
  </cc:Work>
</rdf:RDF>
</metadata>
  <g
     transform="matrix(0.05048643,0,0,-0.05048643,-318.08995,756.81116)"
     id="g12"
     style="fill:#000000;stroke:none">
    <path
       d="m 7935,14458 c -16,-23 -85,-230 -85,-255 0,-16 0,-16 -43,2 -94,39 -334,0 -499,-80 l -46,-23 -19,20 c -37,42 -155,117 -203,129 -42,11 -50,17 -50,36 0,18 -6,23 -25,23 -17,0 -25,-5 -25,-18 0,-10 -4,-22 -10,-28 -33,-33 88,-457 140,-489 16,-10 12,-23 -9,-30 -23,-7 -35,-35 -21,-49 7,-7 21,-6 46,3 36,13 37,12 72,-23 l 37,-36 -58,-58 c -59,-60 -69,-85 -39,-97 13,-5 32,10 77,59 l 60,66 60,-25 c 33,-13 67,-25 76,-25 13,0 17,-15 22,-67 9,-98 47,-166 124,-224 34,-26 66,-48 72,-50 7,-3 1,-23 -14,-53 -31,-62 -31,-81 0,-102 35,-23 76,-10 143,44 l 56,45 45,-17 c 120,-47 153,-55 244,-62 53,-3 97,-9 97,-12 0,-3 -10,-36 -22,-74 l -22,-68 22,-22 c 15,-16 37,-23 80,-26 53,-4 61,-2 76,19 18,26 21,96 7,147 l -10,32 h 62 c 79,0 177,24 238,56 51,29 48,29 124,-27 71,-52 112,-63 213,-56 113,8 137,32 92,89 -18,23 -213,118 -273,133 -22,6 -24,10 -19,51 3,31 -1,57 -13,85 -18,39 -18,40 3,62 11,12 34,51 51,87 25,53 31,78 31,134 0,61 -5,79 -46,164 -53,111 -63,158 -51,227 11,63 1,131 -24,156 -27,27 -122,26 -166,-1 -39,-24 -46,-48 -41,-143 3,-60 13,-94 59,-202 64,-150 83,-215 73,-259 -8,-37 -42,-96 -56,-96 -5,0 -37,26 -71,59 -34,32 -87,72 -118,88 -49,26 -70,31 -169,37 -63,3 -124,9 -137,12 l -22,6 29,37 c 16,20 42,63 57,96 25,54 28,73 31,190 6,204 -18,292 -104,380 -49,51 -84,58 -109,23 z m 81,-70 c 15,-18 39,-58 53,-88 24,-52 26,-64 26,-205 0,-150 0,-151 -33,-215 -18,-36 -45,-79 -60,-97 l -27,-32 -70,15 c -39,8 -92,14 -120,12 -42,-3 -50,-6 -50,-23 0,-13 7,-21 20,-22 11,-1 47,-5 80,-9 55,-7 57,-8 25,-13 -26,-5 -35,-11 -35,-26 0,-14 -13,-25 -45,-39 -158,-65 -327,-70 -466,-11 l -39,16 33,30 c 62,56 28,91 -38,39 l -41,-33 -25,24 -25,23 53,18 c 62,21 71,29 62,51 -8,22 -17,21 -94,-4 l -64,-21 -19,23 c -35,43 -64,113 -95,224 -40,146 -47,185 -30,185 31,0 138,-61 189,-108 63,-58 88,-64 142,-32 47,28 168,69 255,86 111,21 171,18 226,-11 26,-14 53,-25 61,-25 9,0 22,27 35,73 40,136 72,227 80,227 4,0 21,-15 36,-32 z m 635,-221 c 4,-16 3,-55 -3,-87 -13,-77 1,-140 57,-260 33,-69 45,-107 45,-140 0,-52 -38,-141 -77,-182 -22,-23 -29,-25 -49,-16 l -23,11 24,42 c 53,90 45,163 -43,370 -42,100 -56,145 -60,196 -4,61 -3,67 19,83 15,10 39,16 63,14 34,-3 41,-7 47,-31 z m -533,-527 c 44,-27 72,-26 72,1 0,20 4,21 53,16 65,-6 116,-34 187,-103 30,-29 93,-75 140,-102 75,-43 87,-53 100,-90 21,-61 6,-70 -60,-37 -29,14 -58,24 -65,22 -7,-3 -12,-23 -13,-49 0,-34 6,-49 30,-75 l 30,-31 -25,-17 c -15,-9 -48,-23 -74,-31 -70,-21 -278,-35 -349,-24 -33,6 -80,10 -106,10 -49,0 -100,14 -183,51 l -48,21 78,78 c 54,54 76,83 72,94 -13,32 -44,14 -127,-73 l -85,-90 -33,14 -33,15 30,44 c 37,54 74,85 157,134 63,37 81,66 49,78 -17,7 -138,-62 -190,-107 -18,-16 -48,-52 -65,-80 l -33,-50 -26,17 c -94,60 -136,113 -150,191 -13,69 -9,73 70,73 102,0 212,26 319,75 84,38 104,43 170,44 59,1 82,-3 108,-19 z m 777,-496 c 77,-36 79,-38 50,-45 -58,-13 -101,-9 -151,16 -71,37 -117,77 -109,97 6,16 12,15 68,-6 34,-13 98,-41 142,-62 z"
       id="path4"
       inkscape:connector-curvature="0"
       style="fill:#000000" />
    <path
       d="m 7816,13920 c -106,-13 -118,-17 -114,-43 3,-19 8,-22 38,-19 19,2 91,9 160,15 114,11 125,14 125,32 0,18 -7,20 -70,21 -38,1 -101,-2 -139,-6 z"
       id="path6"
       inkscape:connector-curvature="0"
       style="fill:#000000" />
    <path
       d="m 7449,13810 c -37,-22 -29,-118 11,-140 33,-18 93,-11 145,18 47,25 50,29 50,67 0,33 -3,40 -20,40 -13,0 -21,-8 -23,-23 -2,-14 -17,-29 -43,-43 -53,-27 -83,-22 -87,13 -3,26 -1,27 50,30 45,3 53,6 53,23 0,18 -7,20 -60,22 -33,2 -67,-2 -76,-7 z"
       id="path8"
       inkscape:connector-curvature="0"
       style="fill:#000000" />
    <path
       d="m 7216,13449 c -105,-35 -254,-110 -284,-142 -35,-37 -37,-70 -7,-105 22,-26 34,-32 65,-32 22,0 49,4 62,10 139,58 292,113 328,119 36,5 46,11 48,27 7,47 -56,38 -240,-35 -198,-79 -196,-78 -215,-58 -16,15 -15,18 2,37 25,28 177,103 265,131 68,22 70,22 84,4 16,-22 37,-16 55,18 34,64 -23,74 -163,26 z"
       id="path10"
       inkscape:connector-curvature="0"
       style="fill:#000000" />
  </g>
  <circle
     style="fill:#000000;stroke-width:0.75"
     id="path11"
     cx="53.979492"
     cy="54.812775"
     r="1.9775391" />
  <ellipse
     style="fill:#000000;stroke-width:0.75"
     id="path17"
     cx="66.870117"
     cy="52.249298"
     rx="1.3916016"
     ry="1.6113281" />
  <ellipse
     style="fill:#000000;fill-rule:evenodd;stroke-width:0.75"
     id="path27"
     cx="60.644531"
     cy="56.131134"
     rx="2.4902344"
     ry="1.6845703" />
</svg>
