<?xml version="1.0" encoding="UTF-8" standalone="no"?>
<svg
   xmlns:dc="http://purl.org/dc/elements/1.1/"
   xmlns:cc="http://creativecommons.org/ns#"
   xmlns:rdf="http://www.w3.org/1999/02/22-rdf-syntax-ns#"
   xmlns:svg="http://www.w3.org/2000/svg"
   xmlns="http://www.w3.org/2000/svg"
   xmlns:sodipodi="http://sodipodi.sourceforge.net/DTD/sodipodi-0.dtd"
   xmlns:inkscape="http://www.inkscape.org/namespaces/inkscape"
   version="1.0"
   width="2241.553pt"
   height="1026.105pt"
   viewBox="0 0 2241.5529 1026.105"
   preserveAspectRatio="xMidYMid meet"
   id="svg10"
   sodipodi:docname="quiz.svg"
   inkscape:version="0.92.4 (fd57863, 2020-04-02)">
  <defs
     id="defs14" />
  <sodipodi:namedview
     pagecolor="#ffffff"
     bordercolor="#666666"
     borderopacity="1"
     objecttolerance="10"
     gridtolerance="10"
     guidetolerance="10"
     inkscape:pageopacity="0"
     inkscape:pageshadow="2"
     inkscape:window-width="1366"
     inkscape:window-height="713"
     id="namedview12"
     showgrid="false"
     inkscape:zoom="0.069140625"
     inkscape:cx="-3257.7359"
     inkscape:cy="730.45693"
     inkscape:window-x="0"
     inkscape:window-y="27"
     inkscape:window-maximized="1"
     inkscape:current-layer="svg10" />
  <metadata
     id="metadata2">
Created by potrace 1.15, written by Peter Selinger 2001-2017
<rdf:RDF>
  <cc:Work
     rdf:about="">
    <dc:format>image/svg+xml</dc:format>
    <dc:type
       rdf:resource="http://purl.org/dc/dcmitype/StillImage" />
    <dc:title />
  </cc:Work>
</rdf:RDF>
</metadata>
  <g
     transform="matrix(0.07095318,0,0,-0.06722166,294.66166,1035.592)"
     id="g8"
     style="fill:#000000;stroke:none">
    <path
       d="m 6407,14425 c -388,-74 -755,-352 -934,-710 -179,-355 -175,-747 11,-1141 135,-286 335,-444 562,-444 161,0 421,85 557,182 16,11 32,17 37,12 4,-5 24,-61 45,-124 63,-192 108,-261 204,-313 127,-69 356,-91 516,-48 154,41 315,161 415,310 85,126 170,332 234,562 l 23,84 6,-65 c 3,-36 13,-171 22,-300 29,-433 81,-566 239,-612 235,-68 575,128 795,459 l 51,77 v -39 c 0,-46 32,-188 55,-242 9,-21 27,-50 41,-65 l 26,-26 -24,-7 c -12,-4 -51,-21 -85,-37 -45,-21 -63,-35 -63,-49 0,-28 25,-24 125,21 82,36 97,40 176,40 93,0 185,22 271,66 41,21 62,24 150,24 133,0 215,-14 285,-48 85,-41 88,-50 53,-155 -36,-106 -37,-127 -9,-127 23,0 39,32 72,148 l 21,77 167,-67 c 91,-37 276,-101 410,-142 314,-95 436,-115 427,-68 -2,11 -25,19 -83,29 -140,23 -511,139 -745,233 -85,34 -157,63 -158,65 -2,2 4,45 13,97 22,126 31,454 16,648 -26,339 -116,876 -180,1068 -27,80 -27,82 -7,82 11,0 180,11 376,25 195,14 405,26 465,27 102,3 110,4 110,23 0,19 -8,20 -305,23 -313,3 -492,-7 -615,-34 -38,-9 -127,-21 -197,-28 -70,-6 -130,-14 -134,-18 -3,-4 -4,-14 -1,-23 5,-12 25,-15 102,-15 80,0 98,-3 114,-19 81,-81 132,-539 100,-906 -27,-314 -109,-539 -257,-705 l -50,-55 -36,18 c -51,24 -66,22 -66,-8 0,-18 7,-26 25,-31 14,-3 25,-10 25,-14 0,-18 -79,-57 -130,-64 -30,-4 -110,-21 -177,-38 -116,-29 -124,-30 -148,-14 -14,9 -34,34 -45,56 -25,49 -56,182 -64,275 -6,66 -4,76 33,166 22,52 53,140 68,194 27,97 28,108 27,345 0,269 -10,349 -77,630 -28,117 -35,135 -53,138 -28,4 -31,-16 -33,-203 -1,-82 -6,-283 -11,-445 -5,-162 -10,-394 -10,-516 v -220 l -42,-70 c -124,-207 -287,-369 -453,-451 -131,-65 -232,-82 -329,-54 -127,37 -173,163 -201,544 -29,398 -35,592 -22,654 7,36 11,143 11,278 0,180 -4,236 -20,310 -17,76 -23,90 -41,93 -13,2 -22,-3 -25,-15 -2,-10 0,-169 4,-353 5,-184 6,-359 3,-388 -7,-71 -75,-333 -119,-458 -120,-343 -286,-549 -511,-633 -161,-60 -396,-42 -535,41 -74,45 -105,95 -166,272 l -51,149 71,57 c 111,89 276,267 349,376 147,221 229,458 214,620 -14,146 -73,291 -156,385 -37,42 -54,73 -76,139 -63,194 -159,344 -269,419 -103,70 -255,95 -409,66 z m 246,-50 c 32,-8 77,-25 100,-36 62,-32 157,-134 199,-214 41,-79 81,-175 75,-182 -3,-2 -38,20 -79,50 -147,105 -371,201 -528,226 -202,33 -391,-12 -538,-129 -110,-86 -221,-256 -277,-424 -31,-92 -80,-337 -95,-473 -13,-118 0,-284 26,-336 74,-146 215,-162 637,-73 92,20 183,36 203,36 77,0 122,-66 198,-289 25,-73 46,-137 46,-140 0,-10 -146,-96 -214,-126 -164,-72 -350,-101 -466,-71 -85,22 -140,55 -222,134 -110,106 -183,228 -250,422 -95,271 -101,509 -21,764 62,200 146,332 317,501 198,196 389,304 631,355 111,23 184,24 258,5 z m -154,-225 c 177,-50 341,-135 485,-250 l 81,-65 16,-90 c 9,-50 20,-120 24,-157 6,-58 9,-68 26,-68 29,0 31,14 16,129 -13,103 -13,103 6,80 67,-81 124,-277 114,-394 -23,-272 -239,-619 -539,-869 -57,-48 -58,-48 -67,-25 -5,13 -28,78 -51,144 -63,178 -99,238 -161,270 -43,23 -94,18 -308,-25 -227,-46 -349,-62 -401,-54 -54,9 -132,55 -152,90 -24,42 -41,188 -33,284 9,95 49,321 77,425 87,327 290,549 548,599 58,11 247,-3 319,-24 z m 2810,-853 c 16,-141 14,-391 -4,-483 -14,-76 -61,-234 -72,-244 -6,-6 3,598 14,870 l 7,175 22,-111 c 12,-61 27,-154 33,-207 z m 972,-561 c 19,-247 -1,-690 -33,-721 -3,-3 -29,5 -59,18 -30,13 -107,46 -171,72 l -117,48 46,51 c 171,191 250,443 269,861 l 8,160 22,-165 c 12,-91 28,-236 35,-324 z"
       id="path4"
       inkscape:connector-curvature="0" />
    <path
       d="m 13012,13980 c -35,-5 -148,-25 -250,-44 -301,-57 -413,-73 -672,-100 -428,-45 -879,-68 -917,-48 -26,14 -219,27 -267,18 -31,-6 -37,-11 -34,-29 5,-35 155,-49 453,-42 510,11 976,61 1470,156 159,31 237,41 323,42 l 113,2 31,-34 c 27,-30 30,-39 26,-82 -11,-106 -123,-262 -294,-405 -152,-128 -579,-447 -759,-567 -263,-176 -710,-430 -931,-527 -61,-28 -176,-75 -254,-105 -151,-59 -215,-89 -224,-104 -23,-36 45,-55 235,-65 52,-3 222,-21 377,-41 579,-73 881,-95 1407,-102 241,-3 424,-2 445,4 77,21 21,61 -120,87 -192,35 -286,40 -780,41 -362,1 -510,4 -550,14 -30,7 -120,16 -200,21 -80,5 -205,14 -279,20 -77,7 -137,8 -142,3 -5,-5 -41,-6 -81,-2 -40,4 -104,8 -142,8 -44,1 -66,5 -60,10 5,6 72,34 149,64 288,113 453,195 801,397 319,187 592,374 974,670 277,215 379,322 449,471 52,107 34,216 -42,256 -38,20 -161,26 -255,13 z m -177,-2000 c 319,-19 290,-30 -70,-25 -373,5 -559,15 -510,26 47,10 392,10 580,-1 z"
       id="path6"
       inkscape:connector-curvature="0" />
  </g>
  <text
     xml:space="preserve"
     style="font-style:normal;font-weight:normal;font-size:139.72644043px;line-height:1.25;font-family:sans-serif;letter-spacing:0px;word-spacing:0px;fill:#000000;fill-opacity:1;stroke:none;stroke-width:3.49316144"
     x="506.96729"
     y="290.90891"
     id="text827"
     transform="scale(0.64234655,1.5567921)"><tspan
       sodipodi:role="line"
       id="tspan825"
       x="506.96729"
       y="290.90891"
       style="stroke-width:3.49316144">TRY WITH SOUND ON</tspan></text>
  <path
     style="fill:#000000;fill-opacity:1;fill-rule:evenodd;stroke:#000000;stroke-width:3.96593142;stroke-linejoin:bevel;stroke-miterlimit:4;stroke-dasharray:none;stroke-dashoffset:0;stroke-opacity:1"
     id="path847"
     d="m 1383.857,350.02679 c 9.2497,-22.87905 23.495,-43.2154 39.2346,-62.46649 25.2425,-30.68677 60.8504,-51.30136 100.7429,-63.88146 14.641,10.84753 15.961,28.52957 15.0923,44.86732 -1.4465,13.45462 -4.3999,26.70203 -6.1736,40.11563 -1.5442,6.18358 -0.1714,11.52872 1.6654,17.4442 2.4794,8.04452 2.5218,16.02718 1.2131,24.23981 -2.9853,16.36925 -15.3668,27.82222 -28.2466,38.01601 -32.8611,19.41344 -60.2755,41.21634 -96.636,48.74833 -4.6812,0.9697 -8.3765,2.39232 -12.9664,-0.1085 -2.7271,-1.48588 -4.742,-3.91783 -7.1129,-5.87682 -18.6466,-18.40913 -20.8361,-43.24096 -21.5826,-67.45786 1.2119,-19.6291 2.2445,-39.55204 6.5832,-58.83844 4.0443,-10.73259 8.9021,-20.89448 11.2779,-32.12499 2.1896,-13.93426 7.3312,-27.0234 12.5932,-40.10847 5.2132,-13.19109 14.575,-24.2222 23.6909,-35.14225 14.1234,-18.33653 31.3662,-34.10297 48.6707,-49.68314 17.2411,-16.22076 35.3506,-31.29926 55.8537,-43.68608 30.1362,-14.665496 70.0974,-48.594406 110.7105,-51.521636 4.2173,-0.30398 18.6181,0.30747 22.7916,0.4519 19.5162,0.11704 38.6211,2.62093 57.8004,5.6731 16.1276,1.1853 29.3282,8.07911 42.0171,17.06585 18.991,15.32647 37.3093,31.026356 52.1493,50.081356 8.1281,11.75293 18.209,22.66875 22.5842,36.29353 2.8998,10.61889 7.091,20.83209 9.9315,31.46489 3.7716,19.04131 1.8351,38.32575 0.5114,57.47968 -3.4159,22.29266 -10.9725,44.07958 -18.3632,65.4831 -6.4038,17.59773 -16.5318,33.56216 -26.3945,49.54355 -20.5119,30.11215 -58.8171,61.27906 -97.6179,54.50663 -9.6605,-5.2054 -20.6498,-12.31348 -27.1742,-21.12187 -2.1268,-2.87119 -3.5966,-6.13217 -5.3949,-9.19827 -11.6549,-21.06768 -13.4597,-43.91534 -11.585,-67.1714 2.7642,-15.61904 6.4657,-31.14099 11.4425,-46.26664 2.626,-7.89433 4.7408,-16.46838 10.1385,-23.16542 69.6803,-38.34522 58.4328,-55.08732 102.5158,-32.45523 1.6035,0.84818 3.0328,2.10821 4.8107,2.54457 3.9651,0.9732 9.4908,-2.39473 13.5171,-2.26334 6.6405,0.2168 11.3469,2.39964 17.5406,4.51042 17.363,6.88105 30.7793,19.70392 37.1676,36.38272 3.4413,11.81175 3.5125,24.41094 0.6107,36.32765 -1.872,7.301 -7.097,11.74701 -12.6381,16.60421 -4.7504,4.48333 -9.3874,9.07439 -13.9682,13.71321 -0.5034,0.67873 -0.756,1.61476 -1.5101,2.0362 -25.5055,14.25209 -50.2973,29.86592 -77.0617,41.86837 -25.5957,11.47839 49.0295,-26.8606 73.5443,-40.29099 0,0 -81.4826,31.1342 -81.4826,31.1342 v 0 c 25.5488,-14.24215 53.7614,-24.87592 76.6465,-42.72642 21.2885,-16.60515 -104.0467,45.33615 -71.1775,39.94135 4.8609,-4.63518 9.6384,-9.34662 14.4033,-14.07021 1.837,-1.86084 3.3466,-4.07111 5.5133,-5.58051 3.3354,-2.32366 6.8193,-3.61899 8.5774,-7.70416 5.5591,-9.24917 5.1681,-21.587 2.9686,-31.65244 -5.2744,-14.64152 -16.7134,-25.31816 -32.4705,-29.96526 -2.8546,-0.53652 -5.6641,-1.37548 -8.5637,-1.60951 -10.2968,-0.83093 -20.0229,2.98834 -28.9893,-4.14209 -4.8167,-2.28901 -9.9603,-5.13252 -15.5522,-5.1267 -3.0991,0.005 -8.3487,3.40112 -5.6556,1.90818 24.2188,-13.42615 48.5042,-26.74433 72.7563,-40.11654 -8.6034,2.95128 -10.8961,11.10029 -13.2599,18.92803 -5.2073,14.86859 -9.7342,29.89829 -13.3264,45.2136 -2.9304,22.31654 -2.2008,42.15733 9.2565,62.51369 6.5557,9.69352 16.3988,21.19466 29.3183,22.67312 4.6073,-0.569 2.3797,0.0934 6.6488,-2.08725 -23.5574,13.153 -47.1147,26.30596 -70.6722,39.45897 -0.8932,0.49915 12.3845,-8.08976 11.7767,-10.42598 10.2888,-15.65331 20.8701,-31.23455 28.1587,-48.41797 7.9039,-20.64381 14.3143,-42.09361 19.0667,-63.53367 1.7849,-18.18711 3.3484,-36.53312 -0.4145,-54.61369 -2.5848,-10.61101 -6.9081,-20.64599 -10.0617,-31.10084 -3.2543,-12.84933 -12.104,-23.61857 -19.4794,-34.5731 -14.0656,-18.4702 -31.9502,-33.88664 -51.1986,-47.46834 -12.4656,-7.58264 -25.4373,-12.43191 -40.3034,-13.88728 -18.5836,-3.20976 -37.2931,-5.06993 -56.2148,-5.16874 -9.5469,0.0515 -12.6261,-0.29055 -22.051,1.17618 -31.4301,4.89138 -86.113,42.22835 37.3904,-26.727956 -21.0926,11.56685 -39.9313,25.686366 -56.9323,42.288666 -17.1076,15.03552 -34.4105,30.01679 -48.1264,48.04224 -8.441,10.73021 -18.0388,20.69673 -24.3553,32.80448 -5.0569,12.68109 -11.2774,24.96457 -13.0849,38.58487 -1.7923,11.59043 -4.805,22.57558 -11.1084,32.76373 -5.9155,18.69774 -8.0215,38.42334 -9.6384,57.8007 0.4279,21.38858 1.4248,44.43549 19.3237,59.88292 1.7006,0.69524 3.2792,1.77308 5.1017,2.0857 19.5006,3.34519 127.8121,-67.14355 -41.2742,29.39957 12.4952,-8.10527 25.6728,-17.67232 30.1938,-31.97511 1.2513,-7.07968 2.1991,-13.73961 -0.021,-20.80992 -1.9398,-6.85979 -5.0558,-13.51746 -2.9478,-20.69411 2.2807,-13.43928 5.2625,-26.75066 7.6702,-40.17007 0.2957,-2.92591 0.8144,-5.83915 0.8871,-8.77756 0.04,-1.63164 -2.6686,-26.64932 -7.7796,-21.0372 -22.4357,12.35928 44.6878,-25.01609 67.1273,-37.36935 1.5428,-0.84936 -2.9877,1.85234 -4.4263,2.85256 -6.2355,4.3356 -11.2677,9.70982 -16.3304,15.22419 -16.007,17.79342 -30.9381,36.54351 -39.25,58.84827 0,0 -78.6133,35.37382 -78.6133,35.37382 z"
     inkscape:connector-curvature="0" />
</svg>
