<?xml version="1.0" encoding="UTF-8" standalone="no"?>
<svg
   xmlns:dc="http://purl.org/dc/elements/1.1/"
   xmlns:cc="http://creativecommons.org/ns#"
   xmlns:rdf="http://www.w3.org/1999/02/22-rdf-syntax-ns#"
   xmlns:svg="http://www.w3.org/2000/svg"
   xmlns="http://www.w3.org/2000/svg"
   xmlns:sodipodi="http://sodipodi.sourceforge.net/DTD/sodipodi-0.dtd"
   xmlns:inkscape="http://www.inkscape.org/namespaces/inkscape"
   version="1.0"
   width="948.40826pt"
   height="1156.2751pt"
   viewBox="0 0 948.40823 1156.2752"
   preserveAspectRatio="xMidYMid meet"
   id="svg10"
   sodipodi:docname="quizmob.svg"
   inkscape:version="0.92.4 (fd57863, 2020-04-02)">
  <defs
     id="defs14" />
  <sodipodi:namedview
     pagecolor="#ffffff"
     bordercolor="#666666"
     borderopacity="1"
     objecttolerance="10"
     gridtolerance="10"
     guidetolerance="10"
     inkscape:pageopacity="0"
     inkscape:pageshadow="2"
     inkscape:window-width="1366"
     inkscape:window-height="713"
     id="namedview12"
     showgrid="false"
     inkscape:zoom="0.13828125"
     inkscape:cx="-166.8615"
     inkscape:cy="980.77217"
     inkscape:window-x="0"
     inkscape:window-y="27"
     inkscape:window-maximized="1"
     inkscape:current-layer="svg10" />
  <metadata
     id="metadata2">
Created by potrace 1.15, written by Peter Selinger 2001-2017
<rdf:RDF>
  <cc:Work
     rdf:about="">
    <dc:format>image/svg+xml</dc:format>
    <dc:type
       rdf:resource="http://purl.org/dc/dcmitype/StillImage" />
    <dc:title />
  </cc:Work>
</rdf:RDF>
</metadata>
  <g
     transform="matrix(0.06620567,0,0,-0.07818973,-130.11068,1264.4076)"
     id="g8"
     style="fill:#000000;stroke:none">
    <path
       d="m 6407,14425 c -388,-74 -755,-352 -934,-710 -179,-355 -175,-747 11,-1141 135,-286 335,-444 562,-444 161,0 421,85 557,182 16,11 32,17 37,12 4,-5 24,-61 45,-124 63,-192 108,-261 204,-313 127,-69 356,-91 516,-48 154,41 315,161 415,310 85,126 170,332 234,562 l 23,84 6,-65 c 3,-36 13,-171 22,-300 29,-433 81,-566 239,-612 235,-68 575,128 795,459 l 51,77 v -39 c 0,-46 32,-188 55,-242 9,-21 27,-50 41,-65 l 26,-26 -24,-7 c -12,-4 -51,-21 -85,-37 -45,-21 -63,-35 -63,-49 0,-28 25,-24 125,21 82,36 97,40 176,40 93,0 185,22 271,66 41,21 62,24 150,24 133,0 215,-14 285,-48 85,-41 88,-50 53,-155 -36,-106 -37,-127 -9,-127 23,0 39,32 72,148 l 21,77 167,-67 c 91,-37 276,-101 410,-142 314,-95 436,-115 427,-68 -2,11 -25,19 -83,29 -140,23 -511,139 -745,233 -85,34 -157,63 -158,65 -2,2 4,45 13,97 22,126 31,454 16,648 -26,339 -116,876 -180,1068 -27,80 -27,82 -7,82 11,0 180,11 376,25 195,14 405,26 465,27 102,3 110,4 110,23 0,19 -8,20 -305,23 -313,3 -492,-7 -615,-34 -38,-9 -127,-21 -197,-28 -70,-6 -130,-14 -134,-18 -3,-4 -4,-14 -1,-23 5,-12 25,-15 102,-15 80,0 98,-3 114,-19 81,-81 132,-539 100,-906 -27,-314 -109,-539 -257,-705 l -50,-55 -36,18 c -51,24 -66,22 -66,-8 0,-18 7,-26 25,-31 14,-3 25,-10 25,-14 0,-18 -79,-57 -130,-64 -30,-4 -110,-21 -177,-38 -116,-29 -124,-30 -148,-14 -14,9 -34,34 -45,56 -25,49 -56,182 -64,275 -6,66 -4,76 33,166 22,52 53,140 68,194 27,97 28,108 27,345 0,269 -10,349 -77,630 -28,117 -35,135 -53,138 -28,4 -31,-16 -33,-203 -1,-82 -6,-283 -11,-445 -5,-162 -10,-394 -10,-516 v -220 l -42,-70 c -124,-207 -287,-369 -453,-451 -131,-65 -232,-82 -329,-54 -127,37 -173,163 -201,544 -29,398 -35,592 -22,654 7,36 11,143 11,278 0,180 -4,236 -20,310 -17,76 -23,90 -41,93 -13,2 -22,-3 -25,-15 -2,-10 0,-169 4,-353 5,-184 6,-359 3,-388 -7,-71 -75,-333 -119,-458 -120,-343 -286,-549 -511,-633 -161,-60 -396,-42 -535,41 -74,45 -105,95 -166,272 l -51,149 71,57 c 111,89 276,267 349,376 147,221 229,458 214,620 -14,146 -73,291 -156,385 -37,42 -54,73 -76,139 -63,194 -159,344 -269,419 -103,70 -255,95 -409,66 z m 246,-50 c 32,-8 77,-25 100,-36 62,-32 157,-134 199,-214 41,-79 81,-175 75,-182 -3,-2 -38,20 -79,50 -147,105 -371,201 -528,226 -202,33 -391,-12 -538,-129 -110,-86 -221,-256 -277,-424 -31,-92 -80,-337 -95,-473 -13,-118 0,-284 26,-336 74,-146 215,-162 637,-73 92,20 183,36 203,36 77,0 122,-66 198,-289 25,-73 46,-137 46,-140 0,-10 -146,-96 -214,-126 -164,-72 -350,-101 -466,-71 -85,22 -140,55 -222,134 -110,106 -183,228 -250,422 -95,271 -101,509 -21,764 62,200 146,332 317,501 198,196 389,304 631,355 111,23 184,24 258,5 z m -154,-225 c 177,-50 341,-135 485,-250 l 81,-65 16,-90 c 9,-50 20,-120 24,-157 6,-58 9,-68 26,-68 29,0 31,14 16,129 -13,103 -13,103 6,80 67,-81 124,-277 114,-394 -23,-272 -239,-619 -539,-869 -57,-48 -58,-48 -67,-25 -5,13 -28,78 -51,144 -63,178 -99,238 -161,270 -43,23 -94,18 -308,-25 -227,-46 -349,-62 -401,-54 -54,9 -132,55 -152,90 -24,42 -41,188 -33,284 9,95 49,321 77,425 87,327 290,549 548,599 58,11 247,-3 319,-24 z m 2810,-853 c 16,-141 14,-391 -4,-483 -14,-76 -61,-234 -72,-244 -6,-6 3,598 14,870 l 7,175 22,-111 c 12,-61 27,-154 33,-207 z m 972,-561 c 19,-247 -1,-690 -33,-721 -3,-3 -29,5 -59,18 -30,13 -107,46 -171,72 l -117,48 46,51 c 171,191 250,443 269,861 l 8,160 22,-165 c 12,-91 28,-236 35,-324 z"
       id="path4"
       inkscape:connector-curvature="0" />
    <path
       d="m 13012,13980 c -35,-5 -148,-25 -250,-44 -301,-57 -413,-73 -672,-100 -428,-45 -879,-68 -917,-48 -26,14 -219,27 -267,18 -31,-6 -37,-11 -34,-29 5,-35 155,-49 453,-42 510,11 976,61 1470,156 159,31 237,41 323,42 l 113,2 31,-34 c 27,-30 30,-39 26,-82 -11,-106 -123,-262 -294,-405 -152,-128 -579,-447 -759,-567 -263,-176 -710,-430 -931,-527 -61,-28 -176,-75 -254,-105 -151,-59 -215,-89 -224,-104 -23,-36 45,-55 235,-65 52,-3 222,-21 377,-41 579,-73 881,-95 1407,-102 241,-3 424,-2 445,4 77,21 21,61 -120,87 -192,35 -286,40 -780,41 -362,1 -510,4 -550,14 -30,7 -120,16 -200,21 -80,5 -205,14 -279,20 -77,7 -137,8 -142,3 -5,-5 -41,-6 -81,-2 -40,4 -104,8 -142,8 -44,1 -66,5 -60,10 5,6 72,34 149,64 288,113 453,195 801,397 319,187 592,374 974,670 277,215 379,322 449,471 52,107 34,216 -42,256 -38,20 -161,26 -255,13 z m -177,-2000 c 319,-19 290,-30 -70,-25 -373,5 -559,15 -510,26 47,10 392,10 580,-1 z"
       id="path6"
       inkscape:connector-curvature="0" />
  </g>
  <path
     style="fill:#000000;fill-opacity:1;fill-rule:evenodd;stroke:#000000;stroke-width:4.69215155;stroke-linejoin:bevel;stroke-miterlimit:4;stroke-dasharray:none;stroke-dashoffset:0;stroke-opacity:1"
     id="path847"
     d="m 234.11319,978.60858 c 9.91354,-29.88086 25.18104,-56.44106 42.05004,-81.58376 27.05384,-40.07814 65.21694,-67.00163 107.97206,-83.43175 15.69167,14.16731 17.10641,37.26077 16.17534,58.59854 -1.55031,17.57228 -4.71559,34.87391 -6.61655,52.39261 -1.65502,8.076 -0.18374,15.057 1.78484,22.7829 2.65732,10.5065 2.70278,20.9321 1.30019,31.65816 -3.19951,21.37892 -16.46954,36.33692 -30.27354,49.65042 -35.21915,25.3548 -64.60082,53.8302 -103.57052,63.6673 -5.01709,1.2665 -8.97754,3.1245 -13.89681,-0.1417 -2.92279,-1.9406 -5.08225,-5.1169 -7.62328,-7.6754 -19.98473,-24.0431 -22.33128,-56.4744 -23.13138,-88.10263 1.29887,-25.63635 2.40556,-51.65655 7.05558,-76.84545 4.33457,-14.0172 9.5409,-27.289 12.08719,-41.95651 2.34672,-18.19872 7.85724,-35.29367 13.49685,-52.3833 5.58733,-17.2281 15.62092,-31.63518 25.39094,-45.8972 15.13693,-23.94826 33.61698,-44.53987 52.16324,-64.8882 18.47832,-21.18497 37.88729,-40.87811 59.86168,-57.0558 32.29873,-19.15374 75.12754,-63.46627 118.65492,-67.28936 4.51996,-0.39701 19.95412,0.40157 24.42714,0.5902 20.91662,0.15286 41.39249,3.42305 61.94812,7.40931 17.28488,1.54804 31.43273,10.55164 45.03215,22.28869 20.35376,20.01699 39.98659,40.52169 55.89146,65.40829 8.71142,15.3498 19.51566,29.60631 24.20483,47.40082 3.10784,13.86871 7.59989,27.20756 10.64413,41.09443 4.04228,24.86872 1.96685,50.05499 0.54817,75.0708 -3.66101,29.11511 -11.75992,57.56973 -19.68092,85.52363 -6.86332,22.9833 -17.71811,43.83346 -28.28855,64.70585 -21.98382,39.32773 -63.0378,80.03293 -104.62279,71.18783 -10.35381,-6.7985 -22.13172,-16.0819 -29.12427,-27.586 -2.27943,-3.7499 -3.85468,-8.0088 -5.78198,-12.0133 -12.49127,-27.5152 -14.42562,-57.35518 -12.41635,-87.72858 2.96252,-20.3991 6.92962,-40.6714 12.26354,-60.4261 2.81448,-10.31032 5.08102,-21.50838 10.86612,-30.25499 74.68039,-50.08041 62.62578,-71.94627 109.87212,-42.38784 1.71862,1.10775 3.25046,2.7534 5.15594,3.32331 4.24964,1.27103 10.17187,-3.12762 14.48708,-2.95601 7.11705,0.28314 12.16113,3.13402 18.79934,5.89078 18.60888,8.98693 32.98798,25.73413 39.83462,47.51731 3.68827,15.42663 3.76458,31.88174 0.65452,47.44544 -2.00632,9.5354 -7.60621,15.342 -13.54501,21.6857 -5.09127,5.8554 -10.061,11.8516 -14.97051,17.9101 -0.53947,0.8864 -0.81019,2.1089 -1.61842,2.6593 -27.3358,18.6138 -53.90655,39.00602 -82.59154,54.68178 -27.43239,14.9913 52.54778,-35.08098 78.82171,-52.62158 0,0 -87.32969,40.66245 -87.32969,40.66245 v 0 c 27.38217,-18.60075 57.61927,-32.48895 82.14659,-55.80245 22.8161,-21.687 -111.51302,59.21085 -76.2851,52.16502 5.20969,-6.05376 10.33001,-12.20706 15.43679,-18.37622 1.96883,-2.4303 3.58684,-5.317 5.90894,-7.2884 3.57477,-3.0348 7.30865,-4.7265 9.19295,-10.0619 5.958,-12.0798 5.53891,-28.1935 3.18162,-41.3394 -5.6529,-19.1224 -17.91276,-33.06657 -34.80055,-39.13587 -3.05942,-0.70072 -6.07052,-1.79643 -9.17828,-2.10209 -11.03565,-1.08523 -21.45969,3.90289 -31.06952,-5.40974 -5.16233,-2.98954 -10.67499,-6.70327 -16.6682,-6.69568 -3.32145,0.007 -8.94776,4.44201 -6.0614,2.49217 25.95675,-17.5351 51.98482,-34.92918 77.9772,-52.39384 -9.22078,3.8545 -11.67803,14.49743 -14.21143,24.72078 -5.58094,19.41898 -10.43266,39.04838 -14.28267,59.05077 -3.14067,29.1463 -2.35879,55.0592 9.92076,81.6455 7.02612,12.66002 17.57547,27.68108 31.42215,29.61198 4.93789,-0.7431 2.55039,0.122 7.12582,-2.726 -25.24782,17.1783 -50.49557,34.3566 -75.74349,51.535 -0.95733,0.6519 13.27315,-10.5656 12.62183,-13.6168 11.02703,-20.4438 22.36762,-40.7936 30.17932,-63.23582 8.47107,-26.96166 15.34143,-54.97596 20.43483,-82.97756 1.91302,-23.7531 3.58872,-47.71373 -0.4442,-71.32769 -2.77032,-13.85841 -7.40385,-26.9645 -10.78372,-40.61896 -3.48787,-16.78175 -12.97256,-30.84682 -20.87722,-45.15387 -15.0749,-24.12283 -34.24295,-44.25733 -54.87259,-61.99559 -13.36006,-9.90323 -27.26261,-16.23658 -43.19546,-18.13735 -19.91718,-4.19207 -39.9692,-6.62153 -60.24869,-6.75059 -10.23202,0.0672 -13.53213,-0.37947 -23.63335,1.53615 -33.68549,6.38834 -92.29237,55.15194 40.07342,-34.90781 -22.60619,15.10678 -42.79671,33.54745 -61.01761,55.23073 -18.33528,19.637 -36.87982,39.20314 -51.57993,62.74511 -9.04673,14.01409 -19.33324,27.03077 -26.103,42.84399 -5.41976,16.56202 -12.08662,32.60474 -14.02384,50.3934 -1.92091,15.13758 -5.14987,29.48463 -11.90552,42.79077 -6.33999,24.42001 -8.5971,50.18241 -10.33008,75.49011 0.45864,27.9343 1.52709,58.03448 20.71039,78.20948 1.82259,0.908 3.51446,2.3157 5.46777,2.724 20.89988,4.369 136.98374,-87.69218 -44.23599,38.397 13.3918,-10.5858 27.51503,-23.0807 32.36044,-41.7607 1.34114,-9.2464 2.35698,-17.9445 -0.0221,-27.17863 -2.07895,-8.95923 -5.41862,-17.65439 -3.1593,-27.02735 2.44437,-17.5522 5.6401,-34.9375 8.22061,-52.4638 0.31684,-3.8213 0.87281,-7.6261 0.95077,-11.4638 0.0427,-2.131 -2.8601,-34.80511 -8.33788,-27.47546 -24.0457,16.14176 47.89455,-32.67202 71.9442,-48.80589 1.65354,-1.10929 -3.20204,2.41924 -4.7439,3.72556 -6.68294,5.66248 -12.07628,12.68143 -17.50228,19.88342 -17.15565,23.23893 -33.15816,47.72727 -42.06653,76.85827 0,0 -84.25443,46.19956 -84.25443,46.19956 z"
     inkscape:connector-curvature="0" />
  <text
     xml:space="preserve"
     style="font-style:normal;font-weight:normal;font-size:75.00969696px;line-height:1.25;font-family:sans-serif;letter-spacing:0px;word-spacing:0px;fill:#000000;fill-opacity:1;stroke:none;stroke-width:1.87524259"
     x="276.39923"
     y="462.30774"
     id="text819"><tspan
       sodipodi:role="line"
       id="tspan817"
       x="276.39923"
       y="462.30774"
       style="stroke-width:1.87524259">TRY WITH</tspan><tspan
       sodipodi:role="line"
       x="276.39923"
       y="556.06989"
       style="stroke-width:1.87524259"
       id="tspan823">SOUND ON</tspan></text>
</svg>
