<?xml version="1.0" encoding="UTF-8" standalone="no"?>
<svg
   xmlns:dc="http://purl.org/dc/elements/1.1/"
   xmlns:cc="http://creativecommons.org/ns#"
   xmlns:rdf="http://www.w3.org/1999/02/22-rdf-syntax-ns#"
   xmlns:svg="http://www.w3.org/2000/svg"
   xmlns="http://www.w3.org/2000/svg"
   xmlns:sodipodi="http://sodipodi.sourceforge.net/DTD/sodipodi-0.dtd"
   xmlns:inkscape="http://www.inkscape.org/namespaces/inkscape"
   version="1.0"
   width="2241.553pt"
   height="1026.105pt"
   viewBox="0 0 2241.5529 1026.105"
   preserveAspectRatio="xMidYMid meet"
   id="svg10"
   sodipodi:docname="quiz.svg"
   inkscape:version="0.92.4 (fd57863, 2020-04-02)">
  <defs
     id="defs14" />
  <sodipodi:namedview
     pagecolor="#ffffff"
     bordercolor="#666666"
     borderopacity="1"
     objecttolerance="10"
     gridtolerance="10"
     guidetolerance="10"
     inkscape:pageopacity="0"
     inkscape:pageshadow="2"
     inkscape:window-width="1366"
     inkscape:window-height="713"
     id="namedview12"
     showgrid="false"
     inkscape:zoom="0.069140625"
     inkscape:cx="-987.00139"
     inkscape:cy="730.45693"
     inkscape:window-x="0"
     inkscape:window-y="27"
     inkscape:window-maximized="1"
     inkscape:current-layer="svg10" />
  <metadata
     id="metadata2">
Created by potrace 1.15, written by Peter Selinger 2001-2017
<rdf:RDF>
  <cc:Work
     rdf:about="">
    <dc:format>image/svg+xml</dc:format>
    <dc:type
       rdf:resource="http://purl.org/dc/dcmitype/StillImage" />
    <dc:title />
  </cc:Work>
</rdf:RDF>
</metadata>
  <g
     transform="matrix(0.07095318,0,0,-0.06722166,294.66166,1035.592)"
     id="g8"
     style="fill:#000000;stroke:none">
    <path
       d="m 6407,14425 c -388,-74 -755,-352 -934,-710 -179,-355 -175,-747 11,-1141 135,-286 335,-444 562,-444 161,0 421,85 557,182 16,11 32,17 37,12 4,-5 24,-61 45,-124 63,-192 108,-261 204,-313 127,-69 356,-91 516,-48 154,41 315,161 415,310 85,126 170,332 234,562 l 23,84 6,-65 c 3,-36 13,-171 22,-300 29,-433 81,-566 239,-612 235,-68 575,128 795,459 l 51,77 v -39 c 0,-46 32,-188 55,-242 9,-21 27,-50 41,-65 l 26,-26 -24,-7 c -12,-4 -51,-21 -85,-37 -45,-21 -63,-35 -63,-49 0,-28 25,-24 125,21 82,36 97,40 176,40 93,0 185,22 271,66 41,21 62,24 150,24 133,0 215,-14 285,-48 85,-41 88,-50 53,-155 -36,-106 -37,-127 -9,-127 23,0 39,32 72,148 l 21,77 167,-67 c 91,-37 276,-101 410,-142 314,-95 436,-115 427,-68 -2,11 -25,19 -83,29 -140,23 -511,139 -745,233 -85,34 -157,63 -158,65 -2,2 4,45 13,97 22,126 31,454 16,648 -26,339 -116,876 -180,1068 -27,80 -27,82 -7,82 11,0 180,11 376,25 195,14 405,26 465,27 102,3 110,4 110,23 0,19 -8,20 -305,23 -313,3 -492,-7 -615,-34 -38,-9 -127,-21 -197,-28 -70,-6 -130,-14 -134,-18 -3,-4 -4,-14 -1,-23 5,-12 25,-15 102,-15 80,0 98,-3 114,-19 81,-81 132,-539 100,-906 -27,-314 -109,-539 -257,-705 l -50,-55 -36,18 c -51,24 -66,22 -66,-8 0,-18 7,-26 25,-31 14,-3 25,-10 25,-14 0,-18 -79,-57 -130,-64 -30,-4 -110,-21 -177,-38 -116,-29 -124,-30 -148,-14 -14,9 -34,34 -45,56 -25,49 -56,182 -64,275 -6,66 -4,76 33,166 22,52 53,140 68,194 27,97 28,108 27,345 0,269 -10,349 -77,630 -28,117 -35,135 -53,138 -28,4 -31,-16 -33,-203 -1,-82 -6,-283 -11,-445 -5,-162 -10,-394 -10,-516 v -220 l -42,-70 c -124,-207 -287,-369 -453,-451 -131,-65 -232,-82 -329,-54 -127,37 -173,163 -201,544 -29,398 -35,592 -22,654 7,36 11,143 11,278 0,180 -4,236 -20,310 -17,76 -23,90 -41,93 -13,2 -22,-3 -25,-15 -2,-10 0,-169 4,-353 5,-184 6,-359 3,-388 -7,-71 -75,-333 -119,-458 -120,-343 -286,-549 -511,-633 -161,-60 -396,-42 -535,41 -74,45 -105,95 -166,272 l -51,149 71,57 c 111,89 276,267 349,376 147,221 229,458 214,620 -14,146 -73,291 -156,385 -37,42 -54,73 -76,139 -63,194 -159,344 -269,419 -103,70 -255,95 -409,66 z m 246,-50 c 32,-8 77,-25 100,-36 62,-32 157,-134 199,-214 41,-79 81,-175 75,-182 -3,-2 -38,20 -79,50 -147,105 -371,201 -528,226 -202,33 -391,-12 -538,-129 -110,-86 -221,-256 -277,-424 -31,-92 -80,-337 -95,-473 -13,-118 0,-284 26,-336 74,-146 215,-162 637,-73 92,20 183,36 203,36 77,0 122,-66 198,-289 25,-73 46,-137 46,-140 0,-10 -146,-96 -214,-126 -164,-72 -350,-101 -466,-71 -85,22 -140,55 -222,134 -110,106 -183,228 -250,422 -95,271 -101,509 -21,764 62,200 146,332 317,501 198,196 389,304 631,355 111,23 184,24 258,5 z m -154,-225 c 177,-50 341,-135 485,-250 l 81,-65 16,-90 c 9,-50 20,-120 24,-157 6,-58 9,-68 26,-68 29,0 31,14 16,129 -13,103 -13,103 6,80 67,-81 124,-277 114,-394 -23,-272 -239,-619 -539,-869 -57,-48 -58,-48 -67,-25 -5,13 -28,78 -51,144 -63,178 -99,238 -161,270 -43,23 -94,18 -308,-25 -227,-46 -349,-62 -401,-54 -54,9 -132,55 -152,90 -24,42 -41,188 -33,284 9,95 49,321 77,425 87,327 290,549 548,599 58,11 247,-3 319,-24 z m 2810,-853 c 16,-141 14,-391 -4,-483 -14,-76 -61,-234 -72,-244 -6,-6 3,598 14,870 l 7,175 22,-111 c 12,-61 27,-154 33,-207 z m 972,-561 c 19,-247 -1,-690 -33,-721 -3,-3 -29,5 -59,18 -30,13 -107,46 -171,72 l -117,48 46,51 c 171,191 250,443 269,861 l 8,160 22,-165 c 12,-91 28,-236 35,-324 z"
       id="path4"
       inkscape:connector-curvature="0" />
    <path
       d="m 13012,13980 c -35,-5 -148,-25 -250,-44 -301,-57 -413,-73 -672,-100 -428,-45 -879,-68 -917,-48 -26,14 -219,27 -267,18 -31,-6 -37,-11 -34,-29 5,-35 155,-49 453,-42 510,11 976,61 1470,156 159,31 237,41 323,42 l 113,2 31,-34 c 27,-30 30,-39 26,-82 -11,-106 -123,-262 -294,-405 -152,-128 -579,-447 -759,-567 -263,-176 -710,-430 -931,-527 -61,-28 -176,-75 -254,-105 -151,-59 -215,-89 -224,-104 -23,-36 45,-55 235,-65 52,-3 222,-21 377,-41 579,-73 881,-95 1407,-102 241,-3 424,-2 445,4 77,21 21,61 -120,87 -192,35 -286,40 -780,41 -362,1 -510,4 -550,14 -30,7 -120,16 -200,21 -80,5 -205,14 -279,20 -77,7 -137,8 -142,3 -5,-5 -41,-6 -81,-2 -40,4 -104,8 -142,8 -44,1 -66,5 -60,10 5,6 72,34 149,64 288,113 453,195 801,397 319,187 592,374 974,670 277,215 379,322 449,471 52,107 34,216 -42,256 -38,20 -161,26 -255,13 z m -177,-2000 c 319,-19 290,-30 -70,-25 -373,5 -559,15 -510,26 47,10 392,10 580,-1 z"
       id="path6"
       inkscape:connector-curvature="0" />
  </g>
  <text
     xml:space="preserve"
     style="font-style:normal;font-weight:normal;font-size:139.72644043px;line-height:1.25;font-family:sans-serif;letter-spacing:0px;word-spacing:0px;fill:#000000;fill-opacity:1;stroke:none;stroke-width:3.49316144"
     x="506.96729"
     y="290.90891"
     id="text827"
     transform="scale(0.64234655,1.5567921)"><tspan
       sodipodi:role="line"
       id="tspan825"
       x="506.96729"
       y="290.90891"
       style="stroke-width:3.49316144">TRY WITH SOUND ON</tspan></text>
  <path
     style="fill:#000000;fill-opacity:1;fill-rule:evenodd;stroke:#000000;stroke-width:5.17966747;stroke-linejoin:bevel;stroke-miterlimit:4;stroke-dasharray:none;stroke-dashoffset:0;stroke-opacity:1"
     id="path847"
     d="m 1291.9068,636.9512 c 12.0806,-29.88097 30.6855,-56.44106 51.242,-81.58377 32.9677,-40.07817 79.4731,-67.00166 131.5743,-83.43178 19.1218,14.16731 20.8458,37.26077 19.7112,58.59854 -1.8892,17.57228 -5.7464,34.87393 -8.0629,52.39264 -2.0168,8.07601 -0.2239,15.05698 2.175,22.78283 3.2382,10.50648 3.2936,20.93215 1.5844,31.65818 -3.8989,21.37891 -20.0697,36.33695 -36.8912,49.65046 -42.9179,25.35474 -78.7223,53.83021 -126.2106,63.66729 -6.1138,1.26647 -10.94,3.12447 -16.9346,-0.1417 -3.5617,-1.94062 -6.1932,-5.11685 -9.2897,-7.67536 -24.3533,-24.04308 -27.2128,-56.47445 -28.1878,-88.10271 1.5828,-25.6364 2.9314,-51.65657 8.5979,-76.84539 5.2821,-14.0172 11.6265,-27.28904 14.7294,-41.95654 2.8597,-18.19872 9.5748,-35.29367 16.4472,-52.3833 6.8087,-17.2281 19.0356,-31.63518 30.9413,-45.8972 18.4458,-23.94826 40.9655,-44.53987 63.5659,-64.8882 22.5176,-21.18497 46.1693,-40.87811 72.9472,-57.0558 39.3591,-19.15374 91.5501,-63.46627 144.5924,-67.28936 5.508,-0.39701 24.316,0.40157 29.7668,0.5902 25.4889,0.15286 50.4407,3.42305 75.4897,7.40931 21.0633,1.54804 38.3038,10.55164 54.876,22.28869 24.803,20.01699 48.7275,40.52169 68.1091,65.40829 10.6157,15.3498 23.7817,29.60631 29.4959,47.40082 3.7872,13.86871 9.2612,27.20756 12.9709,41.09443 4.9259,24.86872 2.3968,50.05499 0.668,75.0708 -4.4613,29.11511 -14.3306,57.56972 -23.9831,85.52358 -8.3636,22.98335 -21.5912,43.83355 -34.4723,64.70589 -26.7894,39.3277 -76.8176,80.03295 -127.4929,71.18788 -12.6171,-6.79847 -26.9696,-16.08191 -35.4907,-27.58602 -2.7777,-3.7499 -4.6973,-8.00886 -7.0459,-12.01332 -15.2218,-27.51524 -17.579,-57.35522 -15.1305,-87.72858 3.6101,-20.39909 8.4444,-40.67139 14.9443,-60.4261 3.4297,-10.31032 6.1917,-21.50838 13.2414,-30.25499 91.0052,-50.08041 76.3155,-71.94627 133.8897,-42.38784 2.0943,1.10775 3.961,2.7534 6.283,3.32331 5.1786,1.27103 12.3954,-3.12762 17.6539,-2.95601 8.6728,0.28314 14.8195,3.13402 22.9088,5.89078 22.6767,8.98693 40.199,25.73413 48.5423,47.51731 4.4945,15.42663 4.5875,31.88169 0.7976,47.44539 -2.4449,9.5354 -9.2689,15.34207 -16.5059,21.68578 -6.2042,5.8554 -12.2603,11.85152 -18.243,17.91 -0.6574,0.88645 -0.9873,2.10895 -1.9722,2.65936 -33.3113,18.61381 -65.6903,39.00611 -100.6457,54.6818 -33.429,14.99124 64.0345,-35.08104 96.0518,-52.62167 0,0 -106.4196,40.66253 -106.4196,40.66253 v 0 c 33.3678,-18.60083 70.2146,-32.48897 100.1035,-55.80245 27.8036,-21.68699 -135.8893,59.21086 -92.9607,52.16503 6.3485,-6.05373 12.5881,-12.20706 18.8112,-18.37627 2.3992,-2.43033 4.3709,-5.31703 7.2006,-7.28837 4.3562,-3.03479 8.9063,-4.72655 11.2025,-10.06194 7.2604,-12.0798 6.7497,-28.1935 3.8771,-41.33937 -6.8886,-19.12242 -21.8284,-33.06655 -42.4078,-39.13585 -3.7282,-0.70072 -7.3975,-1.79643 -11.1846,-2.10209 -13.448,-1.08523 -26.1507,3.90289 -37.8612,-5.40974 -6.2908,-2.98954 -13.0085,-6.70327 -20.3118,-6.69568 -4.0475,0.007 -10.9037,4.44201 -7.3864,2.49217 31.6308,-17.5351 63.3485,-34.92918 95.0227,-52.39384 -11.2364,3.8545 -14.2308,14.49743 -17.318,24.72078 -6.8009,19.41898 -12.7132,39.04838 -17.4048,59.0508 -3.8272,29.14631 -2.8744,55.05918 12.0894,81.64542 8.562,12.66013 21.4174,27.68108 38.2909,29.61202 6.0173,-0.74314 3.1079,0.12201 8.6835,-2.72604 -30.7669,17.17836 -61.5337,34.35666 -92.3007,51.53502 -1.1666,0.65191 16.1746,-10.56556 15.3809,-13.61676 13.4375,-20.44385 27.2571,-40.79359 36.7764,-63.23583 10.3228,-26.96166 18.695,-54.97596 24.9018,-82.97755 2.3312,-23.75311 4.3732,-47.71374 -0.5413,-71.3277 -3.3759,-13.85841 -9.0223,-26.9645 -13.141,-40.61896 -4.2503,-16.78175 -15.8083,-30.84682 -25.4409,-45.15387 -18.3702,-24.12283 -41.7283,-44.25733 -66.8675,-61.99559 -16.2805,-9.90323 -33.2221,-16.23658 -52.6378,-18.13735 -24.271,-4.19207 -48.7063,-6.62153 -73.4188,-6.75059 -12.4687,0.0672 -16.4902,-0.37947 -28.7995,1.53615 -41.049,6.38834 -112.4671,55.15194 48.8333,-34.90781 -27.5478,15.10678 -52.1519,33.54745 -74.3558,55.23073 -22.3433,19.637 -44.9416,39.20314 -62.8551,62.74511 -11.0243,14.01409 -23.5594,27.03077 -31.809,42.84399 -6.6045,16.56202 -14.7287,32.60474 -17.0894,50.3934 -2.3408,15.13758 -6.2756,29.48463 -14.508,42.79077 -7.7259,24.42001 -10.4764,50.18244 -12.5882,75.49006 0.5589,27.93436 1.8609,58.03455 25.2376,78.20952 2.221,0.90802 4.2827,2.31572 6.663,2.72402 25.4685,4.36895 166.9278,-87.69221 -53.9058,38.39703 16.3192,-10.58581 33.5297,-23.08077 39.4343,-41.7608 1.6343,-9.24634 2.8722,-17.94449 -0.027,-27.17859 -2.5334,-8.95917 -6.6031,-17.65436 -3.8499,-27.02735 2.9787,-17.55225 6.873,-34.93745 10.0176,-52.46375 0.3861,-3.82136 1.0636,-7.62617 1.1586,-11.46385 0.052,-2.13099 -3.4853,-34.80509 -10.1605,-27.47544 -29.302,16.14173 58.3641,-32.67202 87.6709,-48.80589 2.015,-1.10929 -3.902,2.41924 -5.7809,3.72556 -8.1438,5.66248 -14.7161,12.68143 -21.3282,19.88342 -20.9058,23.23893 -40.4064,47.72731 -51.2621,76.85823 0,0 -102.6721,46.19964 -102.6721,46.19964 z"
     inkscape:connector-curvature="0" />
</svg>
